%FSLAX25Y25*%
%MOIN*%
G70*
G01*
G75*
G04 Layer_Color=16711935*
%ADD10R,0.04331X0.05512*%
%ADD11R,0.03543X0.02756*%
%ADD12R,0.04803X0.03583*%
%ADD13R,0.03150X0.09449*%
%ADD14R,0.05512X0.04331*%
%ADD15R,0.24410X0.22835*%
%ADD16R,0.11811X0.06299*%
%ADD17R,0.07087X0.08268*%
%ADD18R,0.10039X0.07677*%
%ADD19R,0.04331X0.02362*%
G04:AMPARAMS|DCode=20|XSize=9.84mil|YSize=70.87mil|CornerRadius=0mil|HoleSize=0mil|Usage=FLASHONLY|Rotation=135.000|XOffset=0mil|YOffset=0mil|HoleType=Round|Shape=Round|*
%AMOVALD20*
21,1,0.06102,0.00984,0.00000,0.00000,225.0*
1,1,0.00984,0.02158,0.02158*
1,1,0.00984,-0.02158,-0.02158*
%
%ADD20OVALD20*%

G04:AMPARAMS|DCode=21|XSize=9.84mil|YSize=70.87mil|CornerRadius=0mil|HoleSize=0mil|Usage=FLASHONLY|Rotation=45.000|XOffset=0mil|YOffset=0mil|HoleType=Round|Shape=Round|*
%AMOVALD21*
21,1,0.06102,0.00984,0.00000,0.00000,135.0*
1,1,0.00984,0.02158,-0.02158*
1,1,0.00984,-0.02158,0.02158*
%
%ADD21OVALD21*%

%ADD22R,0.07087X0.09055*%
%ADD23R,0.02362X0.11811*%
%ADD24O,0.08661X0.02362*%
%ADD25R,0.02756X0.03150*%
%ADD26R,0.06000X0.07000*%
%ADD27R,0.06299X0.12598*%
%ADD28O,0.09843X0.02756*%
%ADD29C,0.00800*%
%ADD30C,0.01969*%
%ADD31C,0.00984*%
%ADD32C,0.03937*%
%ADD33C,0.03543*%
%ADD34C,0.01181*%
%ADD35C,0.05906*%
%ADD36C,0.02756*%
%ADD37C,0.11811*%
%ADD38C,0.03150*%
%ADD39C,0.01500*%
%ADD40C,0.01575*%
%ADD41C,0.01000*%
%ADD42C,0.07480*%
%ADD43C,0.06000*%
%ADD44O,0.07874X0.03937*%
%ADD45O,0.07874X0.03937*%
%ADD46C,0.02362*%
%ADD47R,0.15748X0.19685*%
%ADD48R,0.07000X0.06000*%
G04:AMPARAMS|DCode=49|XSize=59.06mil|YSize=39.37mil|CornerRadius=1.97mil|HoleSize=0mil|Usage=FLASHONLY|Rotation=90.000|XOffset=0mil|YOffset=0mil|HoleType=Round|Shape=RoundedRectangle|*
%AMROUNDEDRECTD49*
21,1,0.05906,0.03543,0,0,90.0*
21,1,0.05512,0.03937,0,0,90.0*
1,1,0.00394,0.01772,0.02756*
1,1,0.00394,0.01772,-0.02756*
1,1,0.00394,-0.01772,-0.02756*
1,1,0.00394,-0.01772,0.02756*
%
%ADD49ROUNDEDRECTD49*%
%ADD50R,0.04600X0.04600*%
%ADD51R,0.07480X0.06299*%
%ADD52R,0.04724X0.10236*%
%ADD53C,0.07874*%
%ADD54C,0.15748*%
%ADD55C,0.13780*%
%ADD56C,0.00827*%
%ADD57C,0.02362*%
%ADD58C,0.00787*%
%ADD59C,0.00394*%
%ADD60C,0.00500*%
%ADD61C,0.00591*%
%ADD62C,0.00669*%
%ADD63R,0.06299X0.01969*%
%ADD64R,0.05118X0.06299*%
%ADD65R,0.04331X0.03543*%
%ADD66R,0.05591X0.04370*%
%ADD67R,0.03937X0.10236*%
%ADD68R,0.06299X0.05118*%
%ADD69R,0.25197X0.23622*%
%ADD70R,0.12598X0.07087*%
%ADD71R,0.07874X0.09055*%
%ADD72R,0.10827X0.08465*%
%ADD73R,0.05118X0.03150*%
G04:AMPARAMS|DCode=74|XSize=17.72mil|YSize=78.74mil|CornerRadius=0mil|HoleSize=0mil|Usage=FLASHONLY|Rotation=135.000|XOffset=0mil|YOffset=0mil|HoleType=Round|Shape=Round|*
%AMOVALD74*
21,1,0.06102,0.01772,0.00000,0.00000,225.0*
1,1,0.01772,0.02158,0.02158*
1,1,0.01772,-0.02158,-0.02158*
%
%ADD74OVALD74*%

G04:AMPARAMS|DCode=75|XSize=17.72mil|YSize=78.74mil|CornerRadius=0mil|HoleSize=0mil|Usage=FLASHONLY|Rotation=45.000|XOffset=0mil|YOffset=0mil|HoleType=Round|Shape=Round|*
%AMOVALD75*
21,1,0.06102,0.01772,0.00000,0.00000,135.0*
1,1,0.01772,0.02158,-0.02158*
1,1,0.01772,-0.02158,0.02158*
%
%ADD75OVALD75*%

%ADD76R,0.07874X0.09843*%
%ADD77R,0.03150X0.12598*%
%ADD78O,0.09449X0.03150*%
%ADD79R,0.03543X0.03937*%
%ADD80R,0.06787X0.07787*%
%ADD81R,0.07087X0.13386*%
%ADD82O,0.10630X0.03543*%
%ADD83C,0.08268*%
%ADD84C,0.06787*%
%ADD85O,0.08661X0.04724*%
%ADD86O,0.08661X0.04724*%
%ADD87R,0.16148X0.20085*%
%ADD88R,0.07787X0.06787*%
G04:AMPARAMS|DCode=89|XSize=66.93mil|YSize=47.24mil|CornerRadius=5.91mil|HoleSize=0mil|Usage=FLASHONLY|Rotation=90.000|XOffset=0mil|YOffset=0mil|HoleType=Round|Shape=RoundedRectangle|*
%AMROUNDEDRECTD89*
21,1,0.06693,0.03543,0,0,90.0*
21,1,0.05512,0.04724,0,0,90.0*
1,1,0.01181,0.01772,0.02756*
1,1,0.01181,0.01772,-0.02756*
1,1,0.01181,-0.01772,-0.02756*
1,1,0.01181,-0.01772,0.02756*
%
%ADD89ROUNDEDRECTD89*%
%ADD90R,0.05387X0.05387*%
%ADD91R,0.07880X0.06699*%
%ADD92R,0.05512X0.11024*%
D41*
X0Y0D02*
Y196850D01*
X244094D01*
Y0D02*
Y196850D01*
X0Y0D02*
X244094D01*
D64*
X236417Y103347D02*
D03*
X228150D02*
D03*
X149016Y89764D02*
D03*
X140748D02*
D03*
X173425Y166142D02*
D03*
X165157D02*
D03*
X219291Y132874D02*
D03*
X227559D02*
D03*
X236417Y117126D02*
D03*
X228150D02*
D03*
X223228Y61024D02*
D03*
X231496D02*
D03*
X231496Y51181D02*
D03*
X223228D02*
D03*
X231496Y42323D02*
D03*
X223228D02*
D03*
X172047Y27559D02*
D03*
X180315D02*
D03*
X142815Y54626D02*
D03*
X134547D02*
D03*
X142815Y44783D02*
D03*
X134547D02*
D03*
X177953Y108071D02*
D03*
X169685D02*
D03*
X177953Y116929D02*
D03*
X169685D02*
D03*
X146555Y129823D02*
D03*
X154823D02*
D03*
D68*
X145276Y21457D02*
D03*
Y29724D02*
D03*
X32677Y101772D02*
D03*
Y93504D02*
D03*
X227362Y145473D02*
D03*
X227362Y153740D02*
D03*
X218504Y145473D02*
D03*
Y153740D02*
D03*
X221457Y86516D02*
D03*
Y78248D02*
D03*
X155118Y109055D02*
D03*
Y117323D02*
D03*
X145965Y108957D02*
D03*
Y117225D02*
D03*
D69*
X75590Y98032D02*
D03*
D70*
X47244Y107047D02*
D03*
Y89016D02*
D03*
D83*
X16732Y131811D02*
D03*
Y146811D02*
D03*
Y116811D02*
D03*
Y101811D02*
D03*
Y86811D02*
D03*
Y71811D02*
D03*
Y56811D02*
D03*
Y41811D02*
D03*
Y26811D02*
D03*
Y11811D02*
D03*
X204449Y181890D02*
D03*
X189449D02*
D03*
X174449D02*
D03*
X159449D02*
D03*
D84*
X83661Y159449D02*
D03*
X93661D02*
D03*
X103661D02*
D03*
X113661D02*
D03*
Y189449D02*
D03*
X103661D02*
D03*
X93661D02*
D03*
X83661D02*
D03*
X99921Y90551D02*
D03*
X99921Y100551D02*
D03*
Y110551D02*
D03*
X129921D02*
D03*
X129921Y100551D02*
D03*
Y90551D02*
D03*
X99921Y5906D02*
D03*
Y15905D02*
D03*
X99921Y25905D02*
D03*
X129921Y25905D02*
D03*
Y15905D02*
D03*
X129921Y5906D02*
D03*
X35433Y159449D02*
D03*
X45433D02*
D03*
X55433D02*
D03*
X65433D02*
D03*
Y189449D02*
D03*
X55433D02*
D03*
X45433D02*
D03*
X35433D02*
D03*
D85*
X232283Y77677D02*
D03*
Y82677D02*
D03*
D86*
Y87677D02*
D03*
D87*
X37008Y19685D02*
D03*
X80315D02*
D03*
D88*
X82677Y137890D02*
D03*
Y125890D02*
D03*
X66929Y137890D02*
D03*
Y125890D02*
D03*
X51181Y137890D02*
D03*
Y125890D02*
D03*
X34449Y137890D02*
D03*
Y125890D02*
D03*
D89*
X188976Y134744D02*
D03*
Y143406D02*
D03*
D90*
X189370Y168898D02*
D03*
X197370D02*
D03*
X193370Y159898D02*
D03*
D91*
X153445Y55413D02*
D03*
Y44390D02*
D03*
D92*
X179724Y133858D02*
D03*
X166732D02*
D03*
M02*
