%FSLAX25Y25*%
%MOIN*%
G70*
G01*
G75*
G04 Layer_Physical_Order=1*
G04 Layer_Color=255*
%ADD10R,0.04331X0.05512*%
%ADD11R,0.03543X0.02756*%
%ADD12R,0.04803X0.03583*%
%ADD13R,0.03150X0.09449*%
%ADD14R,0.05512X0.04331*%
%ADD15R,0.24410X0.22835*%
%ADD16R,0.11811X0.06299*%
%ADD17R,0.07087X0.08268*%
%ADD18R,0.10039X0.07677*%
%ADD19R,0.04331X0.02362*%
G04:AMPARAMS|DCode=20|XSize=9.84mil|YSize=70.87mil|CornerRadius=0mil|HoleSize=0mil|Usage=FLASHONLY|Rotation=135.000|XOffset=0mil|YOffset=0mil|HoleType=Round|Shape=Round|*
%AMOVALD20*
21,1,0.06102,0.00984,0.00000,0.00000,225.0*
1,1,0.00984,0.02158,0.02158*
1,1,0.00984,-0.02158,-0.02158*
%
%ADD20OVALD20*%

G04:AMPARAMS|DCode=21|XSize=9.84mil|YSize=70.87mil|CornerRadius=0mil|HoleSize=0mil|Usage=FLASHONLY|Rotation=45.000|XOffset=0mil|YOffset=0mil|HoleType=Round|Shape=Round|*
%AMOVALD21*
21,1,0.06102,0.00984,0.00000,0.00000,135.0*
1,1,0.00984,0.02158,-0.02158*
1,1,0.00984,-0.02158,0.02158*
%
%ADD21OVALD21*%

%ADD22R,0.07087X0.09055*%
%ADD23R,0.02362X0.11811*%
%ADD24O,0.08661X0.02362*%
%ADD25R,0.02756X0.03150*%
%ADD26R,0.06000X0.07000*%
%ADD27R,0.06299X0.12598*%
%ADD28O,0.09843X0.02756*%
%ADD29C,0.00800*%
%ADD30C,0.01969*%
%ADD31C,0.00984*%
%ADD32C,0.03937*%
%ADD33C,0.03543*%
%ADD34C,0.01181*%
%ADD35C,0.05906*%
%ADD36C,0.02756*%
%ADD37C,0.11811*%
%ADD38C,0.03150*%
%ADD39C,0.01500*%
%ADD40C,0.01575*%
%ADD41C,0.01000*%
%ADD42C,0.07480*%
%ADD43C,0.06000*%
%ADD44O,0.07874X0.03937*%
%ADD45O,0.07874X0.03937*%
%ADD46C,0.02362*%
G36*
X69291Y57874D02*
Y54724D01*
X66142Y51575D01*
X63779Y50000D01*
Y54331D01*
X61811Y56299D01*
Y57874D01*
X61811D01*
X63386Y59449D01*
X67716D01*
X69291Y57874D01*
D02*
G37*
D10*
X121063Y72835D02*
D03*
X112795D02*
D03*
X75787Y103937D02*
D03*
X67520D02*
D03*
X234842Y180709D02*
D03*
X226575D02*
D03*
Y170079D02*
D03*
X234842D02*
D03*
X163583Y47638D02*
D03*
X155315D02*
D03*
X198031Y156496D02*
D03*
X189764D02*
D03*
X209350Y134154D02*
D03*
X201083D02*
D03*
D11*
X112205Y58661D02*
D03*
X120866Y62402D02*
D03*
Y54921D02*
D03*
D12*
X101181Y68258D02*
D03*
Y55364D02*
D03*
D13*
X48031Y48031D02*
D03*
Y76378D02*
D03*
X56693Y48031D02*
D03*
Y76378D02*
D03*
X65354D02*
D03*
Y48031D02*
D03*
X77953D02*
D03*
Y76378D02*
D03*
D14*
X32283Y24213D02*
D03*
Y32480D02*
D03*
X132283Y57284D02*
D03*
Y65551D02*
D03*
X32283Y7283D02*
D03*
Y15551D02*
D03*
X189961Y143209D02*
D03*
Y134941D02*
D03*
X221457Y78248D02*
D03*
Y86516D02*
D03*
X145079Y29528D02*
D03*
Y21260D02*
D03*
X150787Y129921D02*
D03*
Y121654D02*
D03*
Y113780D02*
D03*
Y122047D02*
D03*
X148327Y69784D02*
D03*
Y78051D02*
D03*
X206890Y73228D02*
D03*
Y64961D02*
D03*
D15*
X77165Y20866D02*
D03*
D16*
X48819Y11850D02*
D03*
Y29882D02*
D03*
D17*
X182185Y108366D02*
D03*
X164469D02*
D03*
D18*
X196949Y118602D02*
D03*
Y108760D02*
D03*
D19*
X170079Y129528D02*
D03*
Y125787D02*
D03*
Y122047D02*
D03*
X179528D02*
D03*
Y125787D02*
D03*
Y129528D02*
D03*
D20*
X159219Y67247D02*
D03*
X160611Y65855D02*
D03*
X162003Y64463D02*
D03*
X163395Y63071D02*
D03*
X164787Y61679D02*
D03*
X166179Y60287D02*
D03*
X167571Y58895D02*
D03*
X168963Y57503D02*
D03*
X170355Y56112D02*
D03*
X171747Y54720D02*
D03*
X173139Y53328D02*
D03*
X174531Y51936D02*
D03*
X197080Y74485D02*
D03*
X195688Y75877D02*
D03*
X194296Y77269D02*
D03*
X192904Y78661D02*
D03*
X191512Y80053D02*
D03*
X190120Y81445D02*
D03*
X188728Y82837D02*
D03*
X187336Y84229D02*
D03*
X185944Y85621D02*
D03*
X184553Y87013D02*
D03*
X183161Y88405D02*
D03*
X181769Y89797D02*
D03*
D21*
Y51936D02*
D03*
X183161Y53328D02*
D03*
X184553Y54720D02*
D03*
X185944Y56112D02*
D03*
X187336Y57504D02*
D03*
X188728Y58895D02*
D03*
X190120Y60287D02*
D03*
X191512Y61679D02*
D03*
X192904Y63071D02*
D03*
X194296Y64463D02*
D03*
X195688Y65855D02*
D03*
X197080Y67247D02*
D03*
X174531Y89797D02*
D03*
X173139Y88405D02*
D03*
X171747Y87013D02*
D03*
X170355Y85621D02*
D03*
X168963Y84229D02*
D03*
X167571Y82837D02*
D03*
X166179Y81445D02*
D03*
X164787Y80053D02*
D03*
X163395Y78661D02*
D03*
X162003Y77269D02*
D03*
X160611Y75877D02*
D03*
X159219Y74485D02*
D03*
D22*
X159449Y15748D02*
D03*
X187008D02*
D03*
X205709D02*
D03*
X233268D02*
D03*
D23*
X179134Y25591D02*
D03*
X175197D02*
D03*
X171260D02*
D03*
X167323D02*
D03*
X225394D02*
D03*
X221457D02*
D03*
X217520D02*
D03*
X213583D02*
D03*
D24*
X235827Y45650D02*
D03*
Y50650D02*
D03*
Y55650D02*
D03*
Y60650D02*
D03*
X216929Y45650D02*
D03*
Y50650D02*
D03*
Y55650D02*
D03*
Y60650D02*
D03*
D25*
X238287Y102362D02*
D03*
X232185D02*
D03*
X238287Y118110D02*
D03*
X232185D02*
D03*
D26*
X185929Y167323D02*
D03*
X197929D02*
D03*
D27*
X162402Y163386D02*
D03*
Y143701D02*
D03*
D28*
X229724Y143288D02*
D03*
Y148287D02*
D03*
Y153287D02*
D03*
Y158288D02*
D03*
X210433Y143288D02*
D03*
Y148287D02*
D03*
Y153287D02*
D03*
Y158288D02*
D03*
D29*
X137795Y61895D02*
Y65748D01*
X133183Y57284D02*
X137795Y61895D01*
X142126Y5906D02*
X144882Y3150D01*
X190551D01*
X194488Y7087D01*
Y26378D01*
X187795Y33071D02*
X194488Y26378D01*
X187795Y33071D02*
Y51477D01*
X184553Y54720D02*
X187795Y51477D01*
X132283Y57284D02*
X133183D01*
X172441Y68898D02*
Y70079D01*
Y68898D02*
X179134Y62205D01*
Y57354D02*
Y62205D01*
Y57354D02*
X183161Y53328D01*
D30*
X145079Y10039D02*
Y21260D01*
Y10039D02*
X148721Y6398D01*
X141240Y72539D02*
X141339Y72638D01*
X112795Y72244D02*
Y72835D01*
X108809Y68258D02*
X112795Y72244D01*
X101181Y68258D02*
X108809D01*
X108907Y55364D02*
X112205Y58661D01*
X101181Y55364D02*
X108907D01*
X83711D02*
X101181D01*
X77953Y49606D02*
X83711Y55364D01*
X77953Y48031D02*
Y49606D01*
X83711Y68258D02*
X101181D01*
X77953Y74016D02*
X83711Y68258D01*
X77953Y74016D02*
Y76378D01*
X53543Y113779D02*
X57677D01*
X67520Y103937D01*
X89173Y90551D02*
X99921D01*
X75787Y103937D02*
X89173Y90551D01*
X45118Y15551D02*
X48819Y11850D01*
X32283Y15551D02*
X45118D01*
X32283D02*
Y24213D01*
X46220Y32480D02*
X48819Y29882D01*
X32283Y32480D02*
X46220D01*
X48031Y48031D02*
Y49606D01*
X46063Y51575D02*
X48031Y49606D01*
X203150Y157677D02*
X203740Y158268D01*
X203150Y151378D02*
Y157677D01*
X201279Y149508D02*
X203150Y151378D01*
X203740Y158268D02*
Y158661D01*
X234646Y162992D02*
X234842Y163189D01*
Y170079D01*
X159449Y181890D02*
X174016Y167323D01*
X185929D01*
X216437Y73228D02*
X221457Y78248D01*
X162402Y143701D02*
X168209Y149508D01*
X206890Y64961D02*
X211201Y60650D01*
X216929D01*
X163681Y109154D02*
X164469Y108366D01*
X161909Y110925D02*
X163681Y109154D01*
X221457Y15846D02*
Y25591D01*
X225394D02*
X228740D01*
X216929Y40157D02*
Y45650D01*
Y60650D02*
X235827D01*
X190945Y102756D02*
X194882Y106693D01*
X190945Y101575D02*
Y102756D01*
X194882Y106693D02*
X196949Y108760D01*
X194882Y101575D02*
Y106693D01*
X196949Y108760D02*
X198819Y106890D01*
Y101575D02*
Y106890D01*
X194882Y101575D02*
X198819D01*
X190945D02*
X194882D01*
X181791Y156496D02*
X189764D01*
X173819D02*
X181791D01*
X161909Y110925D02*
Y117028D01*
X164469Y108366D02*
X164961Y108858D01*
Y117028D01*
X196063Y118504D02*
Y123130D01*
X190847Y118504D02*
X196063D01*
X182185Y109843D02*
X190847Y118504D01*
X182185Y108366D02*
Y109843D01*
X170079Y129528D02*
Y132185D01*
X181102Y143209D01*
X189961D01*
X189665Y134646D02*
X189961Y134941D01*
X189665Y129528D02*
Y134646D01*
X179528Y129528D02*
X189665D01*
X196063Y123130D01*
X162402Y163386D02*
X166929D01*
X173819Y156496D01*
X197929Y156598D02*
X198031Y156496D01*
X197929Y156598D02*
Y167323D01*
X162402Y125787D02*
X162402Y125787D01*
X184547Y125787D02*
X187500D01*
X179528Y125787D02*
X184547Y125787D01*
X148721Y6398D02*
X174114D01*
X179134Y11417D01*
Y25591D01*
X216929Y50650D02*
Y55650D01*
Y60650D01*
X235827D02*
Y67323D01*
X236221Y67717D01*
X211201Y59035D02*
Y60650D01*
X208858Y56693D02*
X211201Y59035D01*
X209842Y96752D02*
X215256Y91339D01*
Y73228D02*
Y91339D01*
X206890Y73228D02*
X215256D01*
X216437D01*
X164469Y108366D02*
X167618Y105217D01*
X155610Y79725D02*
Y82677D01*
X155807Y82874D01*
X150000Y79725D02*
X155610D01*
X156764D01*
X147343Y20079D02*
X163583Y36319D01*
X148327Y63386D02*
Y69784D01*
X163583Y36319D02*
Y41535D01*
Y47638D01*
X146752Y78051D02*
X148327D01*
X141240Y65945D02*
Y72539D01*
X193504Y40256D02*
X201279Y48031D01*
X201378D01*
X205906Y163287D02*
Y181102D01*
X203740Y161122D02*
X205906Y163287D01*
X203740Y158661D02*
Y161122D01*
X203366Y143288D02*
X210827D01*
X203150Y143504D02*
X203366Y143288D01*
X200000Y135236D02*
X201083Y134154D01*
X200000Y135236D02*
Y149409D01*
X200098Y149508D01*
X168209D02*
X200098D01*
X201279D01*
X162402Y129725D02*
Y143701D01*
X162402Y125787D02*
X170079D01*
D31*
X148313Y32762D02*
X151575D01*
X145079Y29528D02*
X148313Y32762D01*
X169685Y95276D02*
X172835Y98425D01*
X166535Y95276D02*
X169685D01*
X150787Y111024D02*
X166535Y95276D01*
X174803Y73228D02*
X175984Y72047D01*
Y68856D02*
Y72047D01*
Y68856D02*
X187336Y57504D01*
X119685Y178347D02*
X134646Y163386D01*
Y111811D02*
Y163386D01*
Y111811D02*
X145669Y100787D01*
X120866Y180315D02*
X136614Y164567D01*
Y112992D02*
Y164567D01*
Y112992D02*
X146457Y103150D01*
X122441Y182677D02*
X138583Y166535D01*
Y114173D02*
Y166535D01*
Y114173D02*
X147638Y105118D01*
X140551Y114961D02*
X148031Y107480D01*
X140551Y114961D02*
Y170866D01*
X117126Y194291D02*
X140551Y170866D01*
X142913Y122047D02*
X150787D01*
X142913D02*
X143307Y122441D01*
X143307D01*
X233740Y158288D02*
X236614Y155413D01*
Y134646D02*
Y155413D01*
X219291Y117323D02*
X236614Y134646D01*
X108504Y194291D02*
X117126D01*
X103661Y189449D02*
X108504Y194291D01*
X90433Y182677D02*
X122441D01*
X64567Y180315D02*
X120866D01*
X46535Y178347D02*
X119685D01*
X145669Y100787D02*
X149620D01*
X35433Y189449D02*
X46535Y178347D01*
X55433Y189449D02*
X64567Y180315D01*
X146457Y103150D02*
X149921D01*
X83661Y189449D02*
X90433Y182677D01*
X147638Y105118D02*
X150857D01*
X148031Y107480D02*
X151279D01*
X172835Y98425D02*
Y100000D01*
X150787Y111024D02*
Y113780D01*
X162003Y77269D02*
X165453Y73819D01*
X159055Y85728D02*
X159112D01*
X164787Y80053D01*
X186909Y69488D02*
X188386Y70965D01*
X186909Y63498D02*
Y69488D01*
Y63498D02*
X190120Y60287D01*
X177067Y79823D02*
X178150Y80906D01*
Y86178D01*
X174531Y89797D02*
X178150Y86178D01*
X180512Y79429D02*
Y82972D01*
X184553Y87013D01*
X150857Y105118D02*
X170355Y85621D01*
X151279Y107480D02*
X171747Y87013D01*
X149921Y103150D02*
X168612Y84458D01*
X149620Y100787D02*
X167571Y82837D01*
X156764Y79725D02*
X160611Y75877D01*
X148327Y78051D02*
X150000Y79725D01*
X197539Y53051D02*
Y55652D01*
X191512Y61679D02*
X197539Y55652D01*
X190120Y81445D02*
X198439Y89764D01*
X216831Y118799D02*
X229331Y131299D01*
X188728Y82837D02*
X198411Y92520D01*
X185944Y85621D02*
X195599Y95276D01*
X171260Y34252D02*
Y35433D01*
Y25591D02*
Y34252D01*
X159219Y69784D02*
Y74485D01*
Y67247D02*
Y69784D01*
X175197Y45364D02*
X181769Y51936D01*
X175197Y39370D02*
Y45364D01*
X171260Y35433D02*
X175197Y39370D01*
X167323Y25591D02*
Y35433D01*
X172047Y40157D01*
Y49452D01*
X174531Y51936D01*
X157185Y122835D02*
X157972Y122047D01*
X170079D01*
X195599Y95276D02*
X197146D01*
X214075Y112205D01*
X198411Y92520D02*
Y92900D01*
X216831Y111319D01*
Y118799D01*
X198439Y89764D02*
X198917D01*
X219291Y110138D01*
Y117323D01*
X206299Y90748D02*
Y92815D01*
Y90748D02*
X211614Y85433D01*
Y81988D02*
Y85433D01*
X163287Y108760D02*
X163681Y109154D01*
X165453Y73819D02*
X167028D01*
X169095Y75886D01*
X170768D01*
X169488Y70768D02*
X169783Y71063D01*
Y72047D01*
X192904Y63071D02*
X200197Y55779D01*
Y55761D02*
Y55779D01*
X194296Y64463D02*
X198917Y59843D01*
X200197D01*
X208071Y51969D01*
Y50688D02*
Y51969D01*
X195688Y65855D02*
X198650Y62894D01*
X199311D01*
X197080Y67247D02*
X198874Y65453D01*
X199114D01*
X200908Y67247D01*
X167571Y58895D02*
X172455Y63780D01*
X168963Y57503D02*
X172089Y60630D01*
X160982Y57874D02*
X164787Y61679D01*
X161305Y55413D02*
X166179Y60287D01*
X164609Y53150D02*
X168963Y57503D01*
X166043Y51800D02*
X170355Y56112D01*
X166043Y50099D02*
Y51800D01*
X163583Y47638D02*
X166043Y50099D01*
X229331Y148287D02*
Y153287D01*
X224567Y148287D02*
X229331D01*
X219390Y143110D02*
X224567Y148287D01*
X229331Y131299D02*
Y143288D01*
Y158288D02*
X233740D01*
X214075Y112205D02*
Y133957D01*
X219390Y139272D01*
Y143110D01*
X209547Y133957D02*
X214075D01*
X209350Y134154D02*
X209547Y133957D01*
D32*
X141339Y72638D02*
X146752Y78051D01*
X56693Y83071D02*
Y84646D01*
X60630Y64567D02*
X65354Y69291D01*
X56693Y64567D02*
X60630D01*
X54724Y62598D02*
X56693Y64567D01*
X16732Y86811D02*
X18504D01*
D33*
X120866Y72638D02*
X141339D01*
X120866D02*
X121063Y72835D01*
X120866Y62402D02*
Y72638D01*
D34*
X131496Y65551D02*
X132283D01*
X120866Y54921D02*
X131496Y65551D01*
X32283Y7283D02*
X37205Y2362D01*
X96378D01*
X99921Y5906D01*
X239370Y151575D02*
X240158Y152362D01*
Y175394D01*
X234842Y180709D02*
X240158Y175394D01*
X242126Y38386D02*
Y47835D01*
X237795Y34055D02*
X242126Y38386D01*
X211417Y34055D02*
X237795D01*
X239311Y50650D02*
X242126Y47835D01*
X235827Y50650D02*
X239311D01*
X238681Y41831D02*
Y44980D01*
X238012Y45650D02*
X238681Y44980D01*
X235827Y45650D02*
X238012D01*
X231693Y77087D02*
X232283Y77677D01*
X238287Y88760D02*
X238779Y88268D01*
Y70276D02*
Y88268D01*
X236221Y67717D02*
X238779Y70276D01*
X81890Y159449D02*
X83661D01*
X60236Y137795D02*
X81890Y159449D01*
X48228Y137795D02*
X60236D01*
X5217Y33071D02*
Y109055D01*
Y33071D02*
X11476Y26811D01*
X16732D01*
X103661Y152874D02*
Y159449D01*
X98425Y147638D02*
X103661Y152874D01*
X88583Y147638D02*
X98425D01*
X68898Y127953D02*
X88583Y147638D01*
X53150Y127953D02*
X68898D01*
X27008Y101811D02*
X53150Y127953D01*
X16732Y101811D02*
X27008D01*
X27244Y116811D02*
X48228Y137795D01*
X16732Y116811D02*
X27244D01*
X55433Y151890D02*
Y159449D01*
X50197Y146654D02*
X55433Y151890D01*
X42323Y146654D02*
X50197D01*
X27480Y131811D02*
X42323Y146654D01*
X16732Y131811D02*
X27480D01*
X175492Y60630D02*
X175886Y60236D01*
X172089Y60630D02*
X175492D01*
X134449Y49114D02*
Y49705D01*
Y49114D02*
X141929Y41634D01*
X149311D01*
X155315Y47638D01*
X236043Y86516D02*
X238287Y88760D01*
Y102362D01*
X222618Y77087D02*
X231693D01*
X221457Y78248D02*
X222618Y77087D01*
X221457Y86516D02*
X236043D01*
X215354Y15748D02*
X217520Y17913D01*
Y25591D01*
X209154Y25689D02*
X209252Y25591D01*
X213583D01*
X228740D02*
X229921Y26772D01*
X200197Y54921D02*
Y55761D01*
Y54921D02*
X205315Y49803D01*
Y40157D02*
Y49803D01*
Y40157D02*
X211417Y34055D01*
X208120Y42274D02*
X213484Y36909D01*
X227087D01*
X200908Y67247D02*
X206890Y73228D01*
X204823Y62894D02*
X206890Y64961D01*
X199311Y62894D02*
X204823D01*
X227087Y36909D02*
X235827Y45650D01*
X175197Y35138D02*
X175394Y35335D01*
X175197Y25591D02*
Y35138D01*
X179134Y33563D02*
X180315Y34744D01*
X148327Y69784D02*
X159219D01*
X232185Y100000D02*
X235039Y97146D01*
X232185Y100000D02*
Y102362D01*
Y112894D02*
X234252Y110827D01*
X232185Y112894D02*
Y118110D01*
X238287Y102362D02*
X238287Y102362D01*
X238287Y102362D02*
Y118110D01*
X154134Y55413D02*
X161305D01*
X147244Y48524D02*
X154134Y55413D01*
X153839Y55118D02*
X154134Y55413D01*
X160827Y53150D02*
X164609D01*
X155315Y47638D02*
X160827Y53150D01*
X172455Y63780D02*
Y63864D01*
X147244Y44882D02*
Y48524D01*
X147638Y54626D02*
X150886Y57874D01*
X160982D01*
X163583Y47638D02*
Y49340D01*
X216929Y40157D02*
X216929Y40157D01*
X236221Y61043D02*
Y67717D01*
X235827Y60650D02*
X236221Y61043D01*
X179134Y25591D02*
Y33563D01*
X208071Y42224D02*
Y50688D01*
D35*
X49606Y94488D02*
X50787D01*
X46850D02*
X49606D01*
X44094D02*
X46850D01*
X50787D02*
X56693Y88583D01*
Y84646D02*
Y88583D01*
X36220Y62598D02*
X54724D01*
X27008Y71811D02*
X36220Y62598D01*
X16732Y71811D02*
X27008D01*
X28740Y50000D02*
X45276D01*
X21929Y56811D02*
X28740Y50000D01*
X16732Y56811D02*
X21929D01*
X18504Y86811D02*
X33661D01*
X44094Y76378D02*
X45669D01*
X33661Y86811D02*
X44094Y76378D01*
X56693Y37756D02*
Y40551D01*
X48819Y29882D02*
X56693Y37756D01*
X16732Y86811D02*
X17185Y87264D01*
D36*
X56693Y76378D02*
Y83071D01*
Y40551D02*
Y48031D01*
D37*
X84252Y27953D02*
X98032D01*
X77165Y20866D02*
X84252Y27953D01*
D38*
X65354Y69291D02*
Y76378D01*
X167618Y98524D02*
Y105217D01*
D39*
X220079Y164567D02*
X227165Y171654D01*
X221260Y180709D02*
X226575D01*
X217323Y176772D02*
X221260Y180709D01*
X217323Y156201D02*
Y176772D01*
X214409Y153287D02*
X217323Y156201D01*
X210827Y153287D02*
X214409D01*
X217480Y148287D02*
X220079Y150886D01*
X210827Y148287D02*
X217480D01*
X220079Y150886D02*
Y164567D01*
D40*
X203740Y158661D02*
X204114Y158288D01*
X162402Y125787D02*
Y129725D01*
X162205Y129921D02*
X162402Y129725D01*
X150787Y129921D02*
X162205D01*
X162402Y125787D02*
X162402Y125787D01*
X29370Y159449D02*
X35433D01*
X16732Y146811D02*
X29370Y159449D01*
X204114Y158288D02*
X210827D01*
D41*
X0Y0D02*
Y196850D01*
X244094D01*
Y0D02*
Y196850D01*
X0Y0D02*
X244094D01*
D42*
X16732Y131811D02*
D03*
Y146811D02*
D03*
Y116811D02*
D03*
Y101811D02*
D03*
Y86811D02*
D03*
Y71811D02*
D03*
Y56811D02*
D03*
Y41811D02*
D03*
Y26811D02*
D03*
Y11811D02*
D03*
X204449Y181890D02*
D03*
X189449D02*
D03*
X174449D02*
D03*
X159449D02*
D03*
D43*
X83661Y159449D02*
D03*
X93661D02*
D03*
X103661D02*
D03*
X113661D02*
D03*
Y189449D02*
D03*
X103661D02*
D03*
X93661D02*
D03*
X83661D02*
D03*
X99921Y90551D02*
D03*
X99921Y100551D02*
D03*
Y110551D02*
D03*
X129921D02*
D03*
X129921Y100551D02*
D03*
Y90551D02*
D03*
X99921Y5906D02*
D03*
Y15905D02*
D03*
X99921Y25905D02*
D03*
X129921Y25905D02*
D03*
Y15905D02*
D03*
X129921Y5906D02*
D03*
X35433Y159449D02*
D03*
X45433D02*
D03*
X55433D02*
D03*
X65433D02*
D03*
Y189449D02*
D03*
X55433D02*
D03*
X45433D02*
D03*
X35433D02*
D03*
D44*
X232283Y77677D02*
D03*
Y82677D02*
D03*
D45*
Y87677D02*
D03*
D46*
X108268Y68195D02*
D03*
X137795Y65748D02*
D03*
X120866Y67407D02*
D03*
X142126Y5990D02*
D03*
X151575Y32762D02*
D03*
X174803Y73313D02*
D03*
X172441Y70079D02*
D03*
X93307Y25984D02*
D03*
Y29134D02*
D03*
Y32283D02*
D03*
X53543Y113779D02*
D03*
X49606Y94488D02*
D03*
X46850D02*
D03*
X44094D02*
D03*
X65748Y55118D02*
D03*
X63779Y57874D02*
D03*
X67323D02*
D03*
X143307Y122441D02*
D03*
X239370Y151575D02*
D03*
X220866Y165354D02*
D03*
X217323Y176772D02*
D03*
X234646Y162992D02*
D03*
X241732Y48130D02*
D03*
X172835Y100000D02*
D03*
X5217Y109055D02*
D03*
X175886Y60236D02*
D03*
X170768Y75886D02*
D03*
X159112Y85728D02*
D03*
X188386Y70965D02*
D03*
X180709Y78839D02*
D03*
X176279Y79331D02*
D03*
X134449Y49705D02*
D03*
X197638Y52756D02*
D03*
X209154Y25689D02*
D03*
X215354Y15748D02*
D03*
X221358Y15551D02*
D03*
X229921Y26772D02*
D03*
X175394Y35335D02*
D03*
X180315Y34744D02*
D03*
X171260Y34252D02*
D03*
X235039Y97146D02*
D03*
X234252Y110827D02*
D03*
X172455Y63864D02*
D03*
X147244Y44882D02*
D03*
X147638Y54626D02*
D03*
X238681Y41831D02*
D03*
X216929Y40157D02*
D03*
X236221Y67717D02*
D03*
X198819Y101575D02*
D03*
X194882D02*
D03*
X190945D02*
D03*
X157185Y122835D02*
D03*
X181791Y156496D02*
D03*
X161909Y117028D02*
D03*
X164961D02*
D03*
X183661Y143209D02*
D03*
X165650Y125886D02*
D03*
X162402Y125787D02*
D03*
X187500D02*
D03*
X184547D02*
D03*
X215256Y73130D02*
D03*
X208858Y56693D02*
D03*
X206299Y92815D02*
D03*
X211614Y81988D02*
D03*
X209842Y96752D02*
D03*
X167618Y98524D02*
D03*
X155807Y82874D02*
D03*
X148327Y63386D02*
D03*
X163583Y41535D02*
D03*
X141240Y65945D02*
D03*
X193504Y40256D02*
D03*
X201378Y48031D02*
D03*
X203740Y158268D02*
D03*
X203150Y143504D02*
D03*
X220374Y122343D02*
D03*
M02*
