%FSLAX25Y25*%
%MOIN*%
G70*
G01*
G75*
G04 Layer_Physical_Order=2*
G04 Layer_Color=16711680*
%ADD10R,0.07087X0.08268*%
%ADD11R,0.04331X0.05512*%
%ADD12R,0.10039X0.07677*%
%ADD13R,0.05512X0.04331*%
%ADD14R,0.04331X0.02362*%
%ADD15R,0.24410X0.22835*%
%ADD16R,0.11811X0.06299*%
G04:AMPARAMS|DCode=17|XSize=9.84mil|YSize=70.87mil|CornerRadius=0mil|HoleSize=0mil|Usage=FLASHONLY|Rotation=135.000|XOffset=0mil|YOffset=0mil|HoleType=Round|Shape=Round|*
%AMOVALD17*
21,1,0.06102,0.00984,0.00000,0.00000,225.0*
1,1,0.00984,0.02158,0.02158*
1,1,0.00984,-0.02158,-0.02158*
%
%ADD17OVALD17*%

G04:AMPARAMS|DCode=18|XSize=9.84mil|YSize=70.87mil|CornerRadius=0mil|HoleSize=0mil|Usage=FLASHONLY|Rotation=45.000|XOffset=0mil|YOffset=0mil|HoleType=Round|Shape=Round|*
%AMOVALD18*
21,1,0.06102,0.00984,0.00000,0.00000,135.0*
1,1,0.00984,0.02158,-0.02158*
1,1,0.00984,-0.02158,0.02158*
%
%ADD18OVALD18*%

%ADD19R,0.07087X0.09055*%
%ADD20R,0.02362X0.11811*%
%ADD21O,0.08661X0.02362*%
%ADD22R,0.02756X0.03150*%
%ADD23R,0.06000X0.07000*%
%ADD24R,0.06299X0.12598*%
%ADD25O,0.07480X0.02362*%
%ADD26C,0.00984*%
%ADD27C,0.01181*%
%ADD28C,0.01500*%
%ADD29C,0.01969*%
%ADD30C,0.01575*%
%ADD31C,0.07874*%
%ADD32C,0.00800*%
%ADD33C,0.05906*%
%ADD34C,0.03937*%
%ADD35C,0.01000*%
%ADD36C,0.07480*%
%ADD37C,0.06000*%
%ADD38O,0.07874X0.03937*%
%ADD39O,0.07874X0.03937*%
%ADD40C,0.02362*%
%ADD41R,0.07000X0.06000*%
G04:AMPARAMS|DCode=42|XSize=23.62mil|YSize=23.62mil|CornerRadius=1.18mil|HoleSize=0mil|Usage=FLASHONLY|Rotation=90.000|XOffset=0mil|YOffset=0mil|HoleType=Round|Shape=RoundedRectangle|*
%AMROUNDEDRECTD42*
21,1,0.02362,0.02126,0,0,90.0*
21,1,0.02126,0.02362,0,0,90.0*
1,1,0.00236,0.01063,0.01063*
1,1,0.00236,0.01063,-0.01063*
1,1,0.00236,-0.01063,-0.01063*
1,1,0.00236,-0.01063,0.01063*
%
%ADD42ROUNDEDRECTD42*%
%ADD43R,0.04600X0.04600*%
%ADD44R,0.07480X0.04331*%
%ADD45C,0.00827*%
G36*
X74803Y53150D02*
X51181D01*
X50787Y52756D01*
Y68898D01*
X74803Y73228D01*
Y53150D01*
D02*
G37*
G36*
X70866Y121063D02*
X74803Y117126D01*
X78740D01*
X79724Y116142D01*
Y112205D01*
X78740Y111221D01*
X67913D01*
X63976Y107283D01*
X40354D01*
X36417Y103347D01*
X30512D01*
X28543Y105315D01*
Y114173D01*
X31496Y117126D01*
X41339D01*
X43307Y119095D01*
X43307D01*
Y125000D01*
X47244Y128937D01*
X70866D01*
Y121063D01*
D02*
G37*
D11*
X78937Y18701D02*
D03*
X70669D02*
D03*
X144685Y77165D02*
D03*
X136417D02*
D03*
X78937Y6890D02*
D03*
X70669D02*
D03*
X236417Y103347D02*
D03*
X228150D02*
D03*
X145079Y5906D02*
D03*
X136811D02*
D03*
X144685Y90158D02*
D03*
X136417D02*
D03*
X80905Y102362D02*
D03*
X72638D02*
D03*
X173425Y166142D02*
D03*
X165157D02*
D03*
X219291Y132874D02*
D03*
X227559D02*
D03*
X236417Y117126D02*
D03*
X228150D02*
D03*
X223228Y61024D02*
D03*
X231496D02*
D03*
X231496Y51181D02*
D03*
X223228D02*
D03*
X231496Y42323D02*
D03*
X223228D02*
D03*
X172047Y27559D02*
D03*
X180315D02*
D03*
X142815Y54626D02*
D03*
X134547D02*
D03*
X142815Y44783D02*
D03*
X134547D02*
D03*
X177953Y108071D02*
D03*
X169685D02*
D03*
X177953Y116929D02*
D03*
X169685D02*
D03*
X179035Y126772D02*
D03*
X170768D02*
D03*
X146555Y129823D02*
D03*
X154823D02*
D03*
D13*
X139370Y20276D02*
D03*
Y28543D02*
D03*
X227362Y145473D02*
D03*
X227362Y153740D02*
D03*
X218504Y145473D02*
D03*
Y153740D02*
D03*
X221457Y86516D02*
D03*
Y78248D02*
D03*
X155118Y109055D02*
D03*
Y117323D02*
D03*
X145965Y108957D02*
D03*
Y117225D02*
D03*
D15*
X62992Y78248D02*
D03*
X62992Y43406D02*
D03*
D16*
X34646Y87264D02*
D03*
Y69232D02*
D03*
Y52421D02*
D03*
Y34390D02*
D03*
D26*
X238681Y51181D02*
X241732Y48130D01*
X231496Y51181D02*
X238681D01*
X172835Y102953D02*
X174016D01*
X161221D02*
X172835D01*
Y100000D02*
Y102953D01*
X138583Y120079D02*
X141732Y123228D01*
X138583Y107087D02*
Y120079D01*
Y107087D02*
X142815Y102854D01*
X144587D01*
X144685Y77165D02*
X148622Y73228D01*
X158169D01*
X134843Y28543D02*
X139370D01*
X125000Y38386D02*
X134843Y28543D01*
X125000Y38386D02*
Y39370D01*
X145079Y5906D02*
X150394Y11220D01*
X139370Y20276D02*
X145768Y13878D01*
X34449Y23622D02*
X51181Y6890D01*
X70669D01*
X43307Y102362D02*
X72638D01*
X34646Y93701D02*
X43307Y102362D01*
X34646Y87264D02*
Y93701D01*
X158169Y73228D02*
X161824Y69574D01*
X173327Y86319D02*
X199606D01*
X170768Y83760D02*
X173327Y86319D01*
X170768Y75886D02*
Y83760D01*
X157283Y76378D02*
X164469D01*
X144095Y89567D02*
X157283Y76378D01*
X159112Y85728D02*
Y88329D01*
X144587Y102854D02*
X159112Y88329D01*
X215354Y15748D02*
Y28346D01*
X189665Y54036D02*
X215354Y28346D01*
X189665Y54036D02*
Y64862D01*
X184744Y69784D02*
X189665Y64862D01*
X184744Y69784D02*
Y80217D01*
X182480Y82480D02*
X184744Y80217D01*
X179429Y82480D02*
X182480D01*
X176279Y79331D02*
X179429Y82480D01*
X209154Y25689D02*
Y29134D01*
X187106Y51181D02*
X209154Y29134D01*
X187106Y51181D02*
Y62402D01*
X180709Y68799D02*
X187106Y62402D01*
X180709Y68799D02*
Y78839D01*
X188386Y70965D02*
X189075D01*
X221457Y103347D01*
X188386Y70276D02*
Y70965D01*
X221457Y103347D02*
X228150D01*
X134547Y44783D02*
Y54626D01*
X144685Y108957D02*
X145965D01*
X228150Y111909D02*
Y117126D01*
Y111909D02*
X232185Y107874D01*
Y99016D02*
Y107874D01*
X230413Y97244D02*
X232185Y99016D01*
X221949Y97244D02*
X230413D01*
X197638Y72933D02*
X221949Y97244D01*
X197638Y52756D02*
Y72933D01*
X145768Y13878D02*
X183957D01*
X186909Y16831D01*
Y31398D01*
X150394Y11220D02*
X189173D01*
X190453Y12500D02*
Y27559D01*
X189173Y11220D02*
X190453Y12500D01*
X145965Y108957D02*
X146063Y109055D01*
X155118D01*
X161221Y102953D01*
X174016D02*
X177953Y106890D01*
Y108071D01*
X199606Y86319D02*
X206102Y92815D01*
X206299D01*
X164469Y76378D02*
X169488Y71358D01*
X169783Y71654D01*
Y72047D01*
X170808Y69574D02*
X170820Y69587D01*
X161824Y69574D02*
X170808D01*
X170820Y69587D02*
X176083D01*
X182185Y63484D01*
Y62655D02*
Y63484D01*
X227559Y131496D02*
Y132874D01*
X220276Y124213D02*
X227559Y131496D01*
X220276Y122441D02*
Y124213D01*
D27*
X93602Y183661D02*
X107874D01*
X65256D02*
X93602D01*
X93661Y183721D01*
Y189449D01*
X51221Y183661D02*
X65256D01*
X65433Y183839D01*
Y189449D01*
X45433D02*
X51221Y183661D01*
X107874D02*
X113661Y189449D01*
X238189Y42323D02*
X238681Y41831D01*
X142126Y138583D02*
X154823D01*
X136614Y133071D02*
X142126Y138583D01*
X136614Y127913D02*
Y133071D01*
X125000Y116299D02*
X136614Y127913D01*
X80705Y125890D02*
X82677D01*
X68705Y137890D02*
X80705Y125890D01*
X68705Y137890D02*
X68709D01*
X66929D02*
X68213D01*
X48421Y137890D02*
X51181D01*
X36421Y125890D02*
X48421Y137890D01*
X34449Y125890D02*
X36421D01*
X51181D02*
X66929D01*
X51276Y137890D02*
X52165D01*
X216831Y86516D02*
X221457D01*
X226083D01*
X230512Y82087D01*
X222618Y77087D02*
X231693D01*
X221457Y78248D02*
X222618Y77087D01*
X180315Y34744D02*
X180610Y35039D01*
X180315Y27559D02*
Y34744D01*
X171260Y34252D02*
X172047Y33465D01*
Y27559D02*
Y33465D01*
X234252Y110827D02*
X236417Y112992D01*
Y117126D01*
X235039Y97146D02*
X236417Y98524D01*
Y103347D01*
X142815Y44783D02*
X153051D01*
X147638Y54626D02*
X153445D01*
X142815D02*
X147638D01*
X153051Y44783D02*
X153445Y45177D01*
X231496Y42323D02*
X238189D01*
X231496Y61024D02*
Y62992D01*
X221063Y40157D02*
X223228Y42323D01*
X212303Y81988D02*
X216831Y86516D01*
X211614Y81988D02*
X212303D01*
X147244Y28346D02*
X156791D01*
X172455Y44010D01*
Y63864D01*
X166929Y66732D02*
X174705D01*
X175886Y65551D01*
Y60236D02*
Y65551D01*
D28*
X234744Y151575D02*
X239370D01*
X228642Y145473D02*
X234744Y151575D01*
X220472Y164961D02*
X220866Y165354D01*
X193307Y164961D02*
X220472D01*
X189370Y168898D02*
X193307Y164961D01*
X211024Y170473D02*
X217323Y176772D01*
X198945Y170473D02*
X211024D01*
X197370Y168898D02*
X198945Y170473D01*
X174449Y181890D02*
X182323Y189764D01*
X193307D01*
X197370Y185701D01*
Y168898D02*
Y185701D01*
X165157Y172599D02*
X174449Y181890D01*
X165157Y166142D02*
Y172599D01*
X173425Y166142D02*
X176181Y168898D01*
X189370D01*
Y181811D02*
X189449Y181890D01*
X189370Y168898D02*
Y181811D01*
X227362Y145473D02*
X227362Y145473D01*
X218504Y145473D02*
X227362D01*
X227362Y145473D02*
X228642D01*
D29*
X202110Y159898D02*
X203740Y158268D01*
X193370Y159898D02*
X202110D01*
X234646Y161024D02*
Y162992D01*
X227362Y153740D02*
X234646Y161024D01*
X162402Y125787D02*
X165650D01*
X154823Y138583D02*
Y148287D01*
Y129823D02*
Y138583D01*
X113661Y189449D02*
X154823Y148287D01*
X231496Y62992D02*
X236221Y67717D01*
X216929Y40157D02*
X221063D01*
X190945Y122441D02*
Y134606D01*
X185433Y116929D02*
X190945Y122441D01*
X177953Y116929D02*
X185433D01*
X194882Y101575D02*
X198819D01*
X190945D02*
X194882D01*
X184449D02*
X190945D01*
X177953Y108071D02*
X184449Y101575D01*
X177953Y108071D02*
Y116929D01*
X155118Y120768D02*
X157185Y122835D01*
X155118Y117323D02*
Y120768D01*
X158366Y129823D02*
X162402Y125787D01*
X154823Y129823D02*
X158366D01*
X146063Y117323D02*
X146555Y117815D01*
X145965Y117225D02*
X146063Y117323D01*
X146555Y117815D02*
Y129823D01*
X146063Y117323D02*
X155118D01*
X179035Y126772D02*
Y148327D01*
X181791Y151083D01*
Y156496D01*
X165650Y125787D02*
X169783D01*
X165650D02*
Y125886D01*
Y117717D02*
Y125787D01*
X164961Y117028D02*
X165650Y117717D01*
X161909Y117028D02*
X162402Y117520D01*
Y125787D01*
X169685Y108071D02*
Y116929D01*
X162303Y116929D02*
X162303Y116929D01*
X183661Y143209D02*
X183858Y143406D01*
X188976D01*
X169783Y125787D02*
X170768Y126772D01*
X184547Y125787D02*
X187500D01*
X180020D02*
X184547D01*
X179035Y126772D02*
X180020Y125787D01*
X218504Y153740D02*
X227362D01*
X218504Y133661D02*
X219291Y132874D01*
X218504Y133661D02*
Y145473D01*
X210157Y132874D02*
X219291D01*
X223228Y61024D02*
Y65158D01*
X215256Y73130D02*
X223228Y65158D01*
Y40453D02*
Y42323D01*
Y40453D02*
X229921Y33760D01*
Y26772D02*
Y33760D01*
X223228Y42323D02*
Y61024D01*
X221358Y15551D02*
Y29626D01*
X208858Y42126D02*
X221358Y29626D01*
X198819Y101575D02*
X205020D01*
X209842Y96752D01*
X175394Y38287D02*
X177461Y40354D01*
X175394Y35335D02*
Y38287D01*
X177461Y40354D02*
Y58662D01*
X175886Y60236D02*
X177461Y58662D01*
X167618Y87697D02*
Y98524D01*
X161417Y81496D02*
X167618Y87697D01*
X157185Y81496D02*
X161417D01*
X155807Y82874D02*
X157185Y81496D01*
X162303Y116929D02*
X169685D01*
X163583Y41535D02*
Y57677D01*
X157874Y63386D02*
X163583Y57677D01*
X148327Y63386D02*
X157874D01*
X141240Y65945D02*
X142913Y67618D01*
X159843D01*
X160728Y66732D01*
X166929D01*
X177461Y40354D02*
X193405D01*
X193504Y40256D01*
X208760Y48031D02*
X208858Y47933D01*
Y42126D02*
Y47933D01*
X201378Y48031D02*
X208858Y55512D01*
Y47933D02*
Y55512D01*
Y56693D01*
X181988Y36417D02*
X187205D01*
X212795Y10827D01*
X225000D01*
X229921Y15748D01*
Y26772D01*
X180610Y35039D02*
X181988Y36417D01*
X213976Y158268D02*
X218504Y153740D01*
X203740Y158268D02*
X213976D01*
X205118Y145473D02*
X218504D01*
X203248Y143602D02*
X205118Y145473D01*
D30*
X190945Y134606D02*
X208425D01*
X189114D02*
X190945D01*
X188976Y134744D02*
X189114Y134606D01*
X208425D02*
X210157Y132874D01*
D31*
X55118Y41339D02*
Y70374D01*
D32*
X125000Y72835D02*
X132087D01*
X136417Y77165D01*
Y90158D02*
Y94882D01*
X125000Y106299D02*
X136417Y94882D01*
X125000Y5906D02*
X136811D01*
X72362Y59370D02*
X95000D01*
X62795Y49803D02*
X72362Y59370D01*
X62795Y43406D02*
Y49803D01*
X34642Y109351D02*
X51181Y125890D01*
X5512Y109351D02*
X34642D01*
X5217Y109055D02*
X5512Y109351D01*
X82677Y137992D02*
X93661Y148976D01*
X82677Y137890D02*
Y137992D01*
X80905Y102362D02*
X84842Y106299D01*
X95000D01*
X104331Y93504D02*
Y123031D01*
Y59055D02*
Y93504D01*
X103661Y92835D02*
X104331Y93504D01*
X95000Y92835D02*
X103661D01*
X104331Y28543D02*
Y59055D01*
X104016Y59370D02*
X104331Y59055D01*
X95000Y59370D02*
X104016D01*
X95000Y25906D02*
X101693D01*
X104331Y28543D01*
X101063Y126299D02*
X104331Y123031D01*
X95000Y126299D02*
X101063D01*
D33*
X16732Y71811D02*
X22677D01*
X25256Y69232D01*
X34646D01*
X16732Y41811D02*
X20197D01*
X27618Y34390D01*
X34449D01*
D34*
X45433Y154095D02*
Y159449D01*
X34449Y143110D02*
X45433Y154095D01*
X34449Y137890D02*
Y143110D01*
X93661Y148976D02*
Y159449D01*
Y148874D02*
Y148976D01*
X82677Y137890D02*
X93661Y148874D01*
D35*
X0Y0D02*
Y196850D01*
X244094D01*
Y0D02*
Y196850D01*
X0Y0D02*
X244094D01*
D36*
X16732Y131811D02*
D03*
Y146811D02*
D03*
Y116811D02*
D03*
Y101811D02*
D03*
Y86811D02*
D03*
Y71811D02*
D03*
Y56811D02*
D03*
Y41811D02*
D03*
Y26811D02*
D03*
Y11811D02*
D03*
X204449Y181890D02*
D03*
X189449D02*
D03*
X174449D02*
D03*
X159449D02*
D03*
D37*
X83661Y159449D02*
D03*
X93661D02*
D03*
X103661D02*
D03*
X113661D02*
D03*
Y189449D02*
D03*
X103661D02*
D03*
X93661D02*
D03*
X83661D02*
D03*
X95000Y5906D02*
D03*
X95000Y15906D02*
D03*
Y25906D02*
D03*
X125000D02*
D03*
X125000Y15906D02*
D03*
Y5906D02*
D03*
X95000Y39370D02*
D03*
Y49370D02*
D03*
X95000Y59370D02*
D03*
X125000Y59370D02*
D03*
Y49370D02*
D03*
X125000Y39370D02*
D03*
X95000Y106299D02*
D03*
Y116299D02*
D03*
Y126299D02*
D03*
X125000Y126299D02*
D03*
X125000Y116299D02*
D03*
Y106299D02*
D03*
X95000Y72835D02*
D03*
Y82835D02*
D03*
X95000Y92835D02*
D03*
X125000Y92835D02*
D03*
X125000Y82835D02*
D03*
Y72835D02*
D03*
X35433Y159449D02*
D03*
X45433D02*
D03*
X55433D02*
D03*
X65433D02*
D03*
Y189449D02*
D03*
X55433D02*
D03*
X45433D02*
D03*
X35433D02*
D03*
D38*
X232283Y77677D02*
D03*
Y82677D02*
D03*
D39*
Y87677D02*
D03*
D40*
X239370Y151575D02*
D03*
X220866Y165354D02*
D03*
X217323Y176772D02*
D03*
X234646Y162992D02*
D03*
X241732Y48130D02*
D03*
X172835Y100000D02*
D03*
X141732Y123228D02*
D03*
X72835Y62992D02*
D03*
Y59055D02*
D03*
X68898Y62992D02*
D03*
Y59055D02*
D03*
X64961Y62992D02*
D03*
Y59055D02*
D03*
X61024Y62992D02*
D03*
Y59055D02*
D03*
X5217Y109055D02*
D03*
X34449Y23622D02*
D03*
X57087Y59055D02*
D03*
X53150D02*
D03*
X57087Y62992D02*
D03*
X53150D02*
D03*
X175886Y60236D02*
D03*
X147244Y28346D02*
D03*
X170768Y75886D02*
D03*
X159112Y85728D02*
D03*
X188386Y70965D02*
D03*
X180709Y78839D02*
D03*
X176279Y79331D02*
D03*
X134449Y49705D02*
D03*
X197638Y52756D02*
D03*
X182185Y62655D02*
D03*
X186909Y31398D02*
D03*
X190453Y27559D02*
D03*
X209154Y25689D02*
D03*
X215354Y15748D02*
D03*
X221358Y15551D02*
D03*
X229921Y26772D02*
D03*
X175394Y35335D02*
D03*
X180315Y34744D02*
D03*
X171260Y34252D02*
D03*
X235039Y97146D02*
D03*
X234252Y110827D02*
D03*
X172455Y63864D02*
D03*
X147244Y44882D02*
D03*
X147638Y54626D02*
D03*
X238681Y41831D02*
D03*
X216929Y40157D02*
D03*
X236221Y67717D02*
D03*
X198819Y101575D02*
D03*
X194882D02*
D03*
X190945D02*
D03*
X157185Y122835D02*
D03*
X181791Y156496D02*
D03*
X161909Y117028D02*
D03*
X164961D02*
D03*
X183661Y143209D02*
D03*
X165650Y125886D02*
D03*
X162402Y125787D02*
D03*
X187500D02*
D03*
X184547D02*
D03*
X215256Y73130D02*
D03*
X208858Y56693D02*
D03*
X206299Y92815D02*
D03*
X211614Y81988D02*
D03*
X209842Y96752D02*
D03*
X167618Y98524D02*
D03*
X155807Y82874D02*
D03*
X148327Y63386D02*
D03*
X163583Y41535D02*
D03*
X141240Y65945D02*
D03*
X169783Y72047D02*
D03*
X193504Y40256D02*
D03*
X201378Y48031D02*
D03*
X203740Y158268D02*
D03*
X203150Y143504D02*
D03*
X220374Y122343D02*
D03*
D41*
X82677Y137890D02*
D03*
Y125890D02*
D03*
X66929Y137890D02*
D03*
Y125890D02*
D03*
X51181Y137890D02*
D03*
Y125890D02*
D03*
X34449Y137890D02*
D03*
Y125890D02*
D03*
D42*
X188976Y134744D02*
D03*
Y143406D02*
D03*
D43*
X189370Y168898D02*
D03*
X197370D02*
D03*
X193370Y159898D02*
D03*
D44*
X153445Y54626D02*
D03*
X153445Y45177D02*
D03*
D45*
X93661Y159449D02*
Y164528D01*
X97441Y168307D01*
X110236D01*
X113661Y164882D01*
Y159449D02*
Y164882D01*
X65433Y159449D02*
Y164882D01*
X62008Y168307D02*
X65433Y164882D01*
X49213Y168307D02*
X62008D01*
X45433Y164528D02*
X49213Y168307D01*
X45433Y159449D02*
Y164528D01*
X94016Y6890D02*
X95000Y5906D01*
X78937Y6890D02*
X94016D01*
X93504Y39370D02*
X95000D01*
X84646Y30512D02*
X93504Y39370D01*
X84646Y24409D02*
Y30512D01*
X78937Y18701D02*
X84646Y24409D01*
X34449Y52421D02*
X37146D01*
X45276Y44291D01*
Y28543D02*
Y44291D01*
Y28543D02*
X52165Y21654D01*
X67716D01*
X70669Y18701D01*
M02*
