%FSLAX25Y25*%
%MOIN*%
G70*
G01*
G75*
G04 Layer_Color=8388736*
%ADD10R,0.10039X0.07677*%
%ADD11R,0.05512X0.04331*%
%ADD12R,0.07087X0.08268*%
%ADD13R,0.04331X0.02362*%
%ADD14R,0.24410X0.22835*%
%ADD15R,0.11811X0.06299*%
%ADD16R,0.04331X0.05512*%
G04:AMPARAMS|DCode=17|XSize=9.84mil|YSize=70.87mil|CornerRadius=0mil|HoleSize=0mil|Usage=FLASHONLY|Rotation=135.000|XOffset=0mil|YOffset=0mil|HoleType=Round|Shape=Round|*
%AMOVALD17*
21,1,0.06102,0.00984,0.00000,0.00000,225.0*
1,1,0.00984,0.02158,0.02158*
1,1,0.00984,-0.02158,-0.02158*
%
%ADD17OVALD17*%

G04:AMPARAMS|DCode=18|XSize=9.84mil|YSize=70.87mil|CornerRadius=0mil|HoleSize=0mil|Usage=FLASHONLY|Rotation=45.000|XOffset=0mil|YOffset=0mil|HoleType=Round|Shape=Round|*
%AMOVALD18*
21,1,0.06102,0.00984,0.00000,0.00000,135.0*
1,1,0.00984,0.02158,-0.02158*
1,1,0.00984,-0.02158,0.02158*
%
%ADD18OVALD18*%

%ADD19R,0.07087X0.09055*%
%ADD20R,0.02362X0.11811*%
%ADD21O,0.08661X0.02362*%
%ADD22R,0.02756X0.03150*%
%ADD23R,0.06000X0.07000*%
%ADD24R,0.06299X0.12598*%
%ADD25C,0.01181*%
%ADD26C,0.01969*%
%ADD27C,0.01575*%
%ADD28C,0.00984*%
%ADD29C,0.01500*%
%ADD30C,0.07874*%
%ADD31C,0.03937*%
%ADD32C,0.07480*%
%ADD33C,0.06000*%
%ADD34O,0.07874X0.03937*%
%ADD35O,0.07874X0.03937*%
%ADD36C,0.05906*%
%ADD37R,0.05906X0.05906*%
%ADD38C,0.02362*%
%ADD39C,0.05000*%
G04:AMPARAMS|DCode=40|XSize=23.62mil|YSize=23.62mil|CornerRadius=1.18mil|HoleSize=0mil|Usage=FLASHONLY|Rotation=90.000|XOffset=0mil|YOffset=0mil|HoleType=Round|Shape=RoundedRectangle|*
%AMROUNDEDRECTD40*
21,1,0.02362,0.02126,0,0,90.0*
21,1,0.02126,0.02362,0,0,90.0*
1,1,0.00236,0.01063,0.01063*
1,1,0.00236,0.01063,-0.01063*
1,1,0.00236,-0.01063,-0.01063*
1,1,0.00236,-0.01063,0.01063*
%
%ADD40ROUNDEDRECTD40*%
%ADD41R,0.04600X0.04600*%
%ADD42R,0.07480X0.04331*%
%ADD43C,0.03150*%
%ADD44C,0.02362*%
%ADD45C,0.00787*%
%ADD46C,0.00394*%
%ADD47C,0.00591*%
%ADD48C,0.00800*%
%ADD49C,0.01000*%
%ADD50C,0.00669*%
%ADD51R,0.10827X0.08465*%
%ADD52R,0.06299X0.05118*%
%ADD53R,0.07874X0.09055*%
%ADD54R,0.05118X0.03150*%
%ADD55R,0.25197X0.23622*%
%ADD56R,0.12598X0.07087*%
%ADD57R,0.05118X0.06299*%
G04:AMPARAMS|DCode=58|XSize=17.72mil|YSize=78.74mil|CornerRadius=0mil|HoleSize=0mil|Usage=FLASHONLY|Rotation=135.000|XOffset=0mil|YOffset=0mil|HoleType=Round|Shape=Round|*
%AMOVALD58*
21,1,0.06102,0.01772,0.00000,0.00000,225.0*
1,1,0.01772,0.02158,0.02158*
1,1,0.01772,-0.02158,-0.02158*
%
%ADD58OVALD58*%

G04:AMPARAMS|DCode=59|XSize=17.72mil|YSize=78.74mil|CornerRadius=0mil|HoleSize=0mil|Usage=FLASHONLY|Rotation=45.000|XOffset=0mil|YOffset=0mil|HoleType=Round|Shape=Round|*
%AMOVALD59*
21,1,0.06102,0.01772,0.00000,0.00000,135.0*
1,1,0.01772,0.02158,-0.02158*
1,1,0.01772,-0.02158,0.02158*
%
%ADD59OVALD59*%

%ADD60R,0.07874X0.09843*%
%ADD61R,0.03150X0.12598*%
%ADD62O,0.09449X0.03150*%
%ADD63R,0.03543X0.03937*%
%ADD64R,0.06787X0.07787*%
%ADD65R,0.07087X0.13386*%
%ADD66C,0.08268*%
%ADD67C,0.06787*%
%ADD68O,0.08661X0.04724*%
%ADD69O,0.08661X0.04724*%
%ADD70C,0.06693*%
%ADD71R,0.06693X0.06693*%
D51*
X206791Y120571D02*
D03*
Y110728D02*
D03*
D52*
X199803Y145177D02*
D03*
Y136909D02*
D03*
X231299Y80216D02*
D03*
Y88484D02*
D03*
X149016Y30315D02*
D03*
Y22047D02*
D03*
X65354Y24213D02*
D03*
Y15945D02*
D03*
Y40748D02*
D03*
Y32480D02*
D03*
X54724Y79724D02*
D03*
Y87992D02*
D03*
X82677Y59842D02*
D03*
Y68110D02*
D03*
X158169Y71752D02*
D03*
Y80020D02*
D03*
X216732Y75197D02*
D03*
Y66929D02*
D03*
D53*
X192028Y110335D02*
D03*
X174311D02*
D03*
D54*
X179921Y131496D02*
D03*
Y127756D02*
D03*
Y124016D02*
D03*
X189370D02*
D03*
Y127756D02*
D03*
Y131496D02*
D03*
D55*
X26378Y149606D02*
D03*
X123228D02*
D03*
D56*
X54724Y158622D02*
D03*
Y140591D02*
D03*
X94882D02*
D03*
Y158622D02*
D03*
D57*
X162697Y110728D02*
D03*
X154429D02*
D03*
X146555D02*
D03*
X154823D02*
D03*
X173425Y49606D02*
D03*
X165157D02*
D03*
X207874Y158465D02*
D03*
X199606D02*
D03*
D58*
X169062Y69216D02*
D03*
X170454Y67824D02*
D03*
X171846Y66432D02*
D03*
X173238Y65040D02*
D03*
X174629Y63648D02*
D03*
X176021Y62256D02*
D03*
X177413Y60864D02*
D03*
X178805Y59472D02*
D03*
X180197Y58080D02*
D03*
X181589Y56688D02*
D03*
X182981Y55296D02*
D03*
X184373Y53904D02*
D03*
X206923Y76454D02*
D03*
X205531Y77846D02*
D03*
X204139Y79238D02*
D03*
X202747Y80629D02*
D03*
X201355Y82021D02*
D03*
X199963Y83413D02*
D03*
X198571Y84805D02*
D03*
X197179Y86197D02*
D03*
X195787Y87589D02*
D03*
X194395Y88981D02*
D03*
X193003Y90373D02*
D03*
X191611Y91765D02*
D03*
D59*
Y53904D02*
D03*
X193003Y55296D02*
D03*
X194395Y56688D02*
D03*
X195787Y58080D02*
D03*
X197179Y59472D02*
D03*
X198571Y60864D02*
D03*
X199963Y62256D02*
D03*
X201355Y63648D02*
D03*
X202747Y65040D02*
D03*
X204139Y66432D02*
D03*
X205531Y67824D02*
D03*
X206923Y69216D02*
D03*
X184373Y91765D02*
D03*
X182981Y90373D02*
D03*
X181589Y88981D02*
D03*
X180197Y87589D02*
D03*
X178805Y86197D02*
D03*
X177413Y84805D02*
D03*
X176021Y83413D02*
D03*
X174629Y82021D02*
D03*
X173238Y80629D02*
D03*
X171846Y79238D02*
D03*
X170454Y77846D02*
D03*
X169062Y76454D02*
D03*
D60*
X169291Y17717D02*
D03*
X196850D02*
D03*
X215551D02*
D03*
X243110D02*
D03*
D61*
X188976Y27559D02*
D03*
X185039D02*
D03*
X181102D02*
D03*
X177165D02*
D03*
X235236D02*
D03*
X231299D02*
D03*
X227362D02*
D03*
X223425D02*
D03*
D62*
X245669Y47618D02*
D03*
Y52618D02*
D03*
Y57618D02*
D03*
Y62618D02*
D03*
X226772Y47618D02*
D03*
Y52618D02*
D03*
Y57618D02*
D03*
Y62618D02*
D03*
D63*
X248130Y104331D02*
D03*
X242028D02*
D03*
X248130Y120079D02*
D03*
X242028D02*
D03*
D64*
X195772Y169291D02*
D03*
X207772D02*
D03*
D65*
X172244Y165354D02*
D03*
Y145669D02*
D03*
D66*
X97441Y183858D02*
D03*
X82441D02*
D03*
X67441D02*
D03*
X52441D02*
D03*
X37441D02*
D03*
X22441D02*
D03*
X222165Y183858D02*
D03*
X207165D02*
D03*
X192165D02*
D03*
X177165D02*
D03*
D67*
X44094Y15748D02*
D03*
Y25748D02*
D03*
Y35748D02*
D03*
Y45748D02*
D03*
X14095D02*
D03*
Y35748D02*
D03*
Y25748D02*
D03*
Y15748D02*
D03*
X44094Y80378D02*
D03*
Y70378D02*
D03*
Y60378D02*
D03*
X14095D02*
D03*
Y70378D02*
D03*
Y80378D02*
D03*
X44094Y116378D02*
D03*
Y106378D02*
D03*
Y96378D02*
D03*
X14095D02*
D03*
Y106378D02*
D03*
Y116378D02*
D03*
X94095Y96378D02*
D03*
Y106378D02*
D03*
Y116378D02*
D03*
X124094D02*
D03*
Y106378D02*
D03*
Y96378D02*
D03*
X94095Y60378D02*
D03*
Y70378D02*
D03*
Y80378D02*
D03*
X124094D02*
D03*
Y70378D02*
D03*
Y60378D02*
D03*
X94095Y45866D02*
D03*
Y35866D02*
D03*
Y25866D02*
D03*
Y15866D02*
D03*
X124094D02*
D03*
Y25866D02*
D03*
Y35866D02*
D03*
Y45866D02*
D03*
D68*
X246457Y79055D02*
D03*
Y84055D02*
D03*
D69*
Y89055D02*
D03*
D70*
X218268Y166575D02*
D03*
Y156575D02*
D03*
Y146575D02*
D03*
Y136575D02*
D03*
X248268Y166575D02*
D03*
Y156575D02*
D03*
Y146575D02*
D03*
D71*
Y136575D02*
D03*
M02*
