M48
;Layer_Color=9474304
;FILE_FORMAT=2:5
INCH,LZ
;TYPE=PLATED
T1F00S00C0.01181
T2F00S00C0.03150
T3F00S00C0.04724
%
T01
X0163583Y0041535
X017126Y0034252
X0175394Y0035335
X0180315Y0034744
X0186909Y0031398
X0190453Y0027559
X0193504Y0040256
X0201378Y0048031
X0197638Y0052756
X0208858Y0056693
X0215256Y007313
X0211614Y0081988
X0206299Y0092815
X0209842Y0096752
X0198819Y0101575
X0194882
X0190945
X0172835Y01
X0167618Y0098524
X0170768Y0075886
X0169783Y0072047
X0172455Y0063864
X0175886Y0060236
X0182185Y0062655
X0188386Y0070965
X0180709Y0078839
X0176279Y0079331
X0236221Y0067717
X0241732Y004813
X0238681Y0041831
X0216929Y0040157
X0209154Y0025689
X0215354Y0015748
X0221358Y0015551
X0229921Y0026772
X0235039Y0097146
X0159112Y0085728
X0155807Y0082874
X0148327Y0063386
X0147638Y0054626
X0147244Y0044882
Y0028346
X0134449Y0049705
X014124Y0065945
X0072835Y0062992
X0068898
X0064961
X0061024
X0057087
X005315
Y0059055
X0057087
X0061024
X0064961
X0068898
X0072835
X0034449Y0023622
X0005217Y0109055
X0141732Y0123228
X0157185Y0122835
X0162402Y0125787
X016565Y0125886
X0164961Y0117028
X0161909
X0184547Y0125787
X01875
X0183661Y0143209
X0181791Y0156496
X020374Y0158268
X020315Y0143504
X0220374Y0122343
X0234252Y0110827
X023937Y0151575
X0234646Y0162992
X0220866Y0165354
X0217323Y0176772
T02
X0232283Y0077677
Y0082677
Y0087677
X0125Y0082835
Y0072835
X0125Y005937
Y004937
X0125Y003937
X0125Y0025906
X0125Y0015906
Y0005906
X0095
X0095Y0015906
Y0025906
X0095Y003937
Y004937
X0095Y005937
X0095Y0072835
Y0082835
X0095Y0092835
X0125Y0092835
X0125Y0106299
Y0116299
X0125Y0126299
X0095Y0126299
Y0116299
Y0106299
X0093661Y0159449
X0083661
X0065433
X0055433
X0045433
X0035433
Y0189449
X0045433
X0055433
X0065433
X0083661
X0093661
X0103661
X0113661
Y0159449
X0103661
T03
X0016732Y0011811
Y0026811
Y0041811
Y0056811
Y0071811
Y0086811
Y0101811
Y0116811
Y0131811
Y0146811
X0159449Y018189
X0174449
X0189449
X0204449
M30
