%FSLAX25Y25*%
%MOIN*%
G70*
G01*
G75*
G04 Layer_Color=8388736*
%ADD10R,0.07087X0.08268*%
%ADD11R,0.04331X0.05512*%
%ADD12R,0.10039X0.07677*%
%ADD13R,0.05512X0.04331*%
%ADD14R,0.04331X0.02362*%
%ADD15R,0.24410X0.22835*%
%ADD16R,0.11811X0.06299*%
G04:AMPARAMS|DCode=17|XSize=9.84mil|YSize=70.87mil|CornerRadius=0mil|HoleSize=0mil|Usage=FLASHONLY|Rotation=135.000|XOffset=0mil|YOffset=0mil|HoleType=Round|Shape=Round|*
%AMOVALD17*
21,1,0.06102,0.00984,0.00000,0.00000,225.0*
1,1,0.00984,0.02158,0.02158*
1,1,0.00984,-0.02158,-0.02158*
%
%ADD17OVALD17*%

G04:AMPARAMS|DCode=18|XSize=9.84mil|YSize=70.87mil|CornerRadius=0mil|HoleSize=0mil|Usage=FLASHONLY|Rotation=45.000|XOffset=0mil|YOffset=0mil|HoleType=Round|Shape=Round|*
%AMOVALD18*
21,1,0.06102,0.00984,0.00000,0.00000,135.0*
1,1,0.00984,0.02158,-0.02158*
1,1,0.00984,-0.02158,0.02158*
%
%ADD18OVALD18*%

%ADD19R,0.07087X0.09055*%
%ADD20R,0.02362X0.11811*%
%ADD21O,0.08661X0.02362*%
%ADD22R,0.02756X0.03150*%
%ADD23R,0.06000X0.07000*%
%ADD24R,0.06299X0.12598*%
%ADD25O,0.07480X0.02362*%
%ADD26C,0.00984*%
%ADD27C,0.01181*%
%ADD28C,0.01500*%
%ADD29C,0.01969*%
%ADD30C,0.01575*%
%ADD31C,0.07874*%
%ADD32C,0.00800*%
%ADD33C,0.05906*%
%ADD34C,0.03937*%
%ADD35C,0.01000*%
%ADD36C,0.07480*%
%ADD37C,0.06000*%
%ADD38O,0.07874X0.03937*%
%ADD39O,0.07874X0.03937*%
%ADD40C,0.02362*%
%ADD41R,0.07000X0.06000*%
G04:AMPARAMS|DCode=42|XSize=23.62mil|YSize=23.62mil|CornerRadius=1.18mil|HoleSize=0mil|Usage=FLASHONLY|Rotation=90.000|XOffset=0mil|YOffset=0mil|HoleType=Round|Shape=RoundedRectangle|*
%AMROUNDEDRECTD42*
21,1,0.02362,0.02126,0,0,90.0*
21,1,0.02126,0.02362,0,0,90.0*
1,1,0.00236,0.01063,0.01063*
1,1,0.00236,0.01063,-0.01063*
1,1,0.00236,-0.01063,-0.01063*
1,1,0.00236,-0.01063,0.01063*
%
%ADD42ROUNDEDRECTD42*%
%ADD43R,0.04600X0.04600*%
%ADD44R,0.07480X0.04331*%
%ADD45C,0.00827*%
%ADD46C,0.02362*%
%ADD47C,0.00787*%
%ADD48C,0.00591*%
%ADD49C,0.00394*%
%ADD50C,0.00669*%
%ADD51R,0.07874X0.09055*%
%ADD52R,0.05118X0.06299*%
%ADD53R,0.10827X0.08465*%
%ADD54R,0.06299X0.05118*%
%ADD55R,0.05118X0.03150*%
%ADD56R,0.25197X0.23622*%
%ADD57R,0.12598X0.07087*%
G04:AMPARAMS|DCode=58|XSize=17.72mil|YSize=78.74mil|CornerRadius=0mil|HoleSize=0mil|Usage=FLASHONLY|Rotation=135.000|XOffset=0mil|YOffset=0mil|HoleType=Round|Shape=Round|*
%AMOVALD58*
21,1,0.06102,0.01772,0.00000,0.00000,225.0*
1,1,0.01772,0.02158,0.02158*
1,1,0.01772,-0.02158,-0.02158*
%
%ADD58OVALD58*%

G04:AMPARAMS|DCode=59|XSize=17.72mil|YSize=78.74mil|CornerRadius=0mil|HoleSize=0mil|Usage=FLASHONLY|Rotation=45.000|XOffset=0mil|YOffset=0mil|HoleType=Round|Shape=Round|*
%AMOVALD59*
21,1,0.06102,0.01772,0.00000,0.00000,135.0*
1,1,0.01772,0.02158,-0.02158*
1,1,0.01772,-0.02158,0.02158*
%
%ADD59OVALD59*%

%ADD60R,0.07874X0.09843*%
%ADD61R,0.03150X0.12598*%
%ADD62O,0.09449X0.03150*%
%ADD63R,0.03543X0.03937*%
%ADD64R,0.06787X0.07787*%
%ADD65R,0.07087X0.13386*%
%ADD66O,0.08268X0.03150*%
%ADD67C,0.08268*%
%ADD68C,0.06787*%
%ADD69O,0.08661X0.04724*%
%ADD70O,0.08661X0.04724*%
D35*
X0Y0D02*
Y196850D01*
X244094D01*
Y0D02*
Y196850D01*
X0Y0D02*
X244094D01*
D51*
X182185Y108366D02*
D03*
X164469D02*
D03*
D52*
X234842Y180709D02*
D03*
X226575D02*
D03*
Y170079D02*
D03*
X234842D02*
D03*
X80905Y102362D02*
D03*
X72638D02*
D03*
X163583Y47638D02*
D03*
X155315D02*
D03*
X198031Y156496D02*
D03*
X189764D02*
D03*
X209350Y134154D02*
D03*
X201083D02*
D03*
D53*
X196949Y118602D02*
D03*
Y108760D02*
D03*
D54*
X189961Y143209D02*
D03*
Y134941D02*
D03*
X221457Y78248D02*
D03*
Y86516D02*
D03*
X139173Y28346D02*
D03*
Y20079D02*
D03*
X150787Y129921D02*
D03*
Y121654D02*
D03*
Y113780D02*
D03*
Y122047D02*
D03*
X148327Y69784D02*
D03*
Y78051D02*
D03*
X206890Y73228D02*
D03*
Y64961D02*
D03*
D55*
X170079Y129528D02*
D03*
Y125787D02*
D03*
Y122047D02*
D03*
X179528D02*
D03*
Y125787D02*
D03*
Y129528D02*
D03*
D56*
X62992Y43406D02*
D03*
X62992Y78248D02*
D03*
D57*
X34646Y34390D02*
D03*
Y52421D02*
D03*
Y69232D02*
D03*
Y87264D02*
D03*
D58*
X159219Y67247D02*
D03*
X160611Y65855D02*
D03*
X162003Y64463D02*
D03*
X163395Y63071D02*
D03*
X164787Y61679D02*
D03*
X166179Y60287D02*
D03*
X167571Y58895D02*
D03*
X168963Y57503D02*
D03*
X170355Y56112D02*
D03*
X171747Y54720D02*
D03*
X173139Y53328D02*
D03*
X174531Y51936D02*
D03*
X197080Y74485D02*
D03*
X195688Y75877D02*
D03*
X194296Y77269D02*
D03*
X192904Y78661D02*
D03*
X191512Y80053D02*
D03*
X190120Y81445D02*
D03*
X188728Y82837D02*
D03*
X187336Y84229D02*
D03*
X185944Y85621D02*
D03*
X184553Y87013D02*
D03*
X183161Y88405D02*
D03*
X181769Y89797D02*
D03*
D59*
Y51936D02*
D03*
X183161Y53328D02*
D03*
X184553Y54720D02*
D03*
X185944Y56112D02*
D03*
X187336Y57504D02*
D03*
X188728Y58895D02*
D03*
X190120Y60287D02*
D03*
X191512Y61679D02*
D03*
X192904Y63071D02*
D03*
X194296Y64463D02*
D03*
X195688Y65855D02*
D03*
X197080Y67247D02*
D03*
X174531Y89797D02*
D03*
X173139Y88405D02*
D03*
X171747Y87013D02*
D03*
X170355Y85621D02*
D03*
X168963Y84229D02*
D03*
X167571Y82837D02*
D03*
X166179Y81445D02*
D03*
X164787Y80053D02*
D03*
X163395Y78661D02*
D03*
X162003Y77269D02*
D03*
X160611Y75877D02*
D03*
X159219Y74485D02*
D03*
D60*
X159449Y15748D02*
D03*
X187008D02*
D03*
X205709D02*
D03*
X233268D02*
D03*
D61*
X179134Y25591D02*
D03*
X175197D02*
D03*
X171260D02*
D03*
X167323D02*
D03*
X225394D02*
D03*
X221457D02*
D03*
X217520D02*
D03*
X213583D02*
D03*
D62*
X235827Y45650D02*
D03*
Y50650D02*
D03*
Y55650D02*
D03*
Y60650D02*
D03*
X216929Y45650D02*
D03*
Y50650D02*
D03*
Y55650D02*
D03*
Y60650D02*
D03*
D63*
X238287Y102362D02*
D03*
X232185D02*
D03*
X238287Y118110D02*
D03*
X232185D02*
D03*
D64*
X185929Y167323D02*
D03*
X197929D02*
D03*
D65*
X162402Y163386D02*
D03*
Y143701D02*
D03*
D66*
X210827Y158288D02*
D03*
Y153287D02*
D03*
Y148287D02*
D03*
Y143288D02*
D03*
X229331Y158288D02*
D03*
Y153287D02*
D03*
Y148287D02*
D03*
Y143288D02*
D03*
D67*
X16732Y131811D02*
D03*
Y146811D02*
D03*
Y116811D02*
D03*
Y101811D02*
D03*
Y86811D02*
D03*
Y71811D02*
D03*
Y56811D02*
D03*
Y41811D02*
D03*
Y26811D02*
D03*
Y11811D02*
D03*
X204449Y181890D02*
D03*
X189449D02*
D03*
X174449D02*
D03*
X159449D02*
D03*
D68*
X83661Y159449D02*
D03*
X93661D02*
D03*
X103661D02*
D03*
X113661D02*
D03*
Y189449D02*
D03*
X103661D02*
D03*
X93661D02*
D03*
X83661D02*
D03*
X95000Y5906D02*
D03*
X95000Y15906D02*
D03*
Y25906D02*
D03*
X125000D02*
D03*
X125000Y15906D02*
D03*
Y5906D02*
D03*
X95000Y39370D02*
D03*
Y49370D02*
D03*
X95000Y59370D02*
D03*
X125000Y59370D02*
D03*
Y49370D02*
D03*
X125000Y39370D02*
D03*
X95000Y106299D02*
D03*
Y116299D02*
D03*
Y126299D02*
D03*
X125000Y126299D02*
D03*
X125000Y116299D02*
D03*
Y106299D02*
D03*
X95000Y72835D02*
D03*
Y82835D02*
D03*
X95000Y92835D02*
D03*
X125000Y92835D02*
D03*
X125000Y82835D02*
D03*
Y72835D02*
D03*
X35433Y159449D02*
D03*
X45433D02*
D03*
X55433D02*
D03*
X65433D02*
D03*
Y189449D02*
D03*
X55433D02*
D03*
X45433D02*
D03*
X35433D02*
D03*
D69*
X232283Y77677D02*
D03*
Y82677D02*
D03*
D70*
Y87677D02*
D03*
M02*
