M48
;Layer_Color=9474304
;FILE_FORMAT=2:5
INCH,LZ
;TYPE=PLATED
T1F00S00C0.01181
T2F00S00C0.03150
T3F00S00C0.04724
%
T01
X0163583Y0041535
X017126Y0034252
X0175394Y0035335
X0180315Y0034744
X0193504Y0040256
X0201378Y0048031
X0197638Y0052756
X0208858Y0056693
X0215256Y007313
X0211614Y0081988
X0206299Y0092815
X0209842Y0096752
X0198819Y0101575
X0194882
X0190945
X0172835Y01
X0167618Y0098524
X0170768Y0075886
X0174803Y0073313
X0172441Y0070079
X0172455Y0063864
X0175886Y0060236
X0176279Y0079331
X0180709Y0078839
X0188386Y0070965
X0236221Y0067717
X0241732Y004813
X0238681Y0041831
X0216929Y0040157
X0209154Y0025689
X0215354Y0015748
X0221358Y0015551
X0229921Y0026772
X0235039Y0097146
X0159112Y0085728
X0155807Y0082874
X0148327Y0063386
X0147638Y0054626
X0147244Y0044882
X0151575Y0032762
X0134449Y0049705
X0137795Y0065748
X014124Y0065945
X0120866Y0067407
X0108268Y0068195
X0093307Y0032283
Y0029134
Y0025984
X0065748Y0055118
X0067323Y0057874
X0063779
X0049606Y0094488
X004685
X0044094
X0142126Y000599
X0143307Y0122441
X0157185Y0122835
X0053543Y0113779
X0005217Y0109055
X0161909Y0117028
X0164961
X016565Y0125886
X0162402Y0125787
X0184547
X01875
X0183661Y0143209
X0181791Y0156496
X020374Y0158268
X020315Y0143504
X0220374Y0122343
X0234252Y0110827
X023937Y0151575
X0234646Y0162992
X0220866Y0165354
X0217323Y0176772
T02
X0232283Y0077677
Y0082677
Y0087677
X0129921Y0090551
Y0100551
X0099921
X0099921Y0090551
X0099921Y0025905
X0099921Y0015905
Y0005906
X0129921
X0129921Y0015905
Y0025905
X0129921Y0110551
X0099921
X0103661Y0159449
X0113661
X0093661
X0083661
X0065433
X0055433
X0045433
X0035433
Y0189449
X0045433
X0055433
X0065433
X0083661
X0093661
X0103661
X0113661
T03
X0016732Y0011811
Y0026811
Y0041811
Y0056811
Y0071811
Y0086811
Y0101811
Y0116811
Y0131811
Y0146811
X0159449Y018189
X0174449
X0189449
X0204449
M30
