%FSLAX25Y25*%
%MOIN*%
G70*
G01*
G75*
G04 Layer_Color=16711935*
%ADD10R,0.10039X0.07677*%
%ADD11R,0.05512X0.04331*%
%ADD12R,0.07087X0.08268*%
%ADD13R,0.04331X0.02362*%
%ADD14R,0.24410X0.22835*%
%ADD15R,0.11811X0.06299*%
%ADD16R,0.04331X0.05512*%
G04:AMPARAMS|DCode=17|XSize=9.84mil|YSize=70.87mil|CornerRadius=0mil|HoleSize=0mil|Usage=FLASHONLY|Rotation=135.000|XOffset=0mil|YOffset=0mil|HoleType=Round|Shape=Round|*
%AMOVALD17*
21,1,0.06102,0.00984,0.00000,0.00000,225.0*
1,1,0.00984,0.02158,0.02158*
1,1,0.00984,-0.02158,-0.02158*
%
%ADD17OVALD17*%

G04:AMPARAMS|DCode=18|XSize=9.84mil|YSize=70.87mil|CornerRadius=0mil|HoleSize=0mil|Usage=FLASHONLY|Rotation=45.000|XOffset=0mil|YOffset=0mil|HoleType=Round|Shape=Round|*
%AMOVALD18*
21,1,0.06102,0.00984,0.00000,0.00000,135.0*
1,1,0.00984,0.02158,-0.02158*
1,1,0.00984,-0.02158,0.02158*
%
%ADD18OVALD18*%

%ADD19R,0.07087X0.09055*%
%ADD20R,0.02362X0.11811*%
%ADD21O,0.08661X0.02362*%
%ADD22R,0.02756X0.03150*%
%ADD23R,0.06000X0.07000*%
%ADD24R,0.06299X0.12598*%
%ADD25C,0.01181*%
%ADD26C,0.01969*%
%ADD27C,0.01575*%
%ADD28C,0.00984*%
%ADD29C,0.01500*%
%ADD30C,0.07874*%
%ADD31C,0.03937*%
%ADD32C,0.07480*%
%ADD33C,0.06000*%
%ADD34O,0.07874X0.03937*%
%ADD35O,0.07874X0.03937*%
%ADD36C,0.05906*%
%ADD37R,0.05906X0.05906*%
%ADD38C,0.02362*%
%ADD39C,0.05000*%
G04:AMPARAMS|DCode=40|XSize=23.62mil|YSize=23.62mil|CornerRadius=1.18mil|HoleSize=0mil|Usage=FLASHONLY|Rotation=90.000|XOffset=0mil|YOffset=0mil|HoleType=Round|Shape=RoundedRectangle|*
%AMROUNDEDRECTD40*
21,1,0.02362,0.02126,0,0,90.0*
21,1,0.02126,0.02362,0,0,90.0*
1,1,0.00236,0.01063,0.01063*
1,1,0.00236,0.01063,-0.01063*
1,1,0.00236,-0.01063,-0.01063*
1,1,0.00236,-0.01063,0.01063*
%
%ADD40ROUNDEDRECTD40*%
%ADD41R,0.04600X0.04600*%
%ADD42R,0.07480X0.04331*%
%ADD43C,0.03150*%
%ADD44C,0.02362*%
%ADD45C,0.00787*%
%ADD46C,0.00394*%
%ADD47C,0.00591*%
%ADD48C,0.00800*%
%ADD49C,0.01000*%
%ADD50C,0.00669*%
%ADD51R,0.10827X0.08465*%
%ADD52R,0.06299X0.05118*%
%ADD53R,0.07874X0.09055*%
%ADD54R,0.05118X0.03150*%
%ADD55R,0.25197X0.23622*%
%ADD56R,0.12598X0.07087*%
%ADD57R,0.05118X0.06299*%
G04:AMPARAMS|DCode=58|XSize=17.72mil|YSize=78.74mil|CornerRadius=0mil|HoleSize=0mil|Usage=FLASHONLY|Rotation=135.000|XOffset=0mil|YOffset=0mil|HoleType=Round|Shape=Round|*
%AMOVALD58*
21,1,0.06102,0.01772,0.00000,0.00000,225.0*
1,1,0.01772,0.02158,0.02158*
1,1,0.01772,-0.02158,-0.02158*
%
%ADD58OVALD58*%

G04:AMPARAMS|DCode=59|XSize=17.72mil|YSize=78.74mil|CornerRadius=0mil|HoleSize=0mil|Usage=FLASHONLY|Rotation=45.000|XOffset=0mil|YOffset=0mil|HoleType=Round|Shape=Round|*
%AMOVALD59*
21,1,0.06102,0.01772,0.00000,0.00000,135.0*
1,1,0.01772,0.02158,-0.02158*
1,1,0.01772,-0.02158,0.02158*
%
%ADD59OVALD59*%

%ADD60R,0.07874X0.09843*%
%ADD61R,0.03150X0.12598*%
%ADD62O,0.09449X0.03150*%
%ADD63R,0.03543X0.03937*%
%ADD64R,0.06787X0.07787*%
%ADD65R,0.07087X0.13386*%
%ADD66C,0.08268*%
%ADD67C,0.06787*%
%ADD68O,0.08661X0.04724*%
%ADD69O,0.08661X0.04724*%
%ADD70C,0.06693*%
%ADD71R,0.06693X0.06693*%
G04:AMPARAMS|DCode=72|XSize=31.5mil|YSize=31.5mil|CornerRadius=5.12mil|HoleSize=0mil|Usage=FLASHONLY|Rotation=90.000|XOffset=0mil|YOffset=0mil|HoleType=Round|Shape=RoundedRectangle|*
%AMROUNDEDRECTD72*
21,1,0.03150,0.02126,0,0,90.0*
21,1,0.02126,0.03150,0,0,90.0*
1,1,0.01024,0.01063,0.01063*
1,1,0.01024,0.01063,-0.01063*
1,1,0.01024,-0.01063,-0.01063*
1,1,0.01024,-0.01063,0.01063*
%
%ADD72ROUNDEDRECTD72*%
%ADD73R,0.05387X0.05387*%
%ADD74R,0.07880X0.04731*%
D52*
X247047Y188779D02*
D03*
Y197047D02*
D03*
X5906Y108071D02*
D03*
Y116339D02*
D03*
X55118Y116929D02*
D03*
Y125197D02*
D03*
X5906Y72638D02*
D03*
Y80905D02*
D03*
X134843Y104528D02*
D03*
Y96260D02*
D03*
X82677D02*
D03*
Y104528D02*
D03*
X134843Y68110D02*
D03*
Y59842D02*
D03*
X238189Y188779D02*
D03*
Y197047D02*
D03*
X203740Y193701D02*
D03*
Y201969D02*
D03*
X237205Y147441D02*
D03*
X237205Y155709D02*
D03*
X228346Y147441D02*
D03*
Y155709D02*
D03*
X231299Y88484D02*
D03*
Y80216D02*
D03*
X65354Y24213D02*
D03*
Y15945D02*
D03*
Y40748D02*
D03*
Y32480D02*
D03*
X164961Y111024D02*
D03*
Y119291D02*
D03*
X155807Y110925D02*
D03*
Y119193D02*
D03*
D55*
X123228Y149606D02*
D03*
X26378D02*
D03*
D56*
X94882Y158622D02*
D03*
Y140591D02*
D03*
X54724D02*
D03*
Y158622D02*
D03*
D57*
X246260Y105315D02*
D03*
X237992D02*
D03*
X237402Y168307D02*
D03*
X229134D02*
D03*
Y134843D02*
D03*
X237402D02*
D03*
X246260Y119095D02*
D03*
X237992D02*
D03*
X233071Y62992D02*
D03*
X241339D02*
D03*
X241339Y53150D02*
D03*
X233071D02*
D03*
X241339Y44291D02*
D03*
X233071D02*
D03*
X181890Y29528D02*
D03*
X190157D02*
D03*
X152657Y56595D02*
D03*
X144390D02*
D03*
X152657Y46752D02*
D03*
X144390D02*
D03*
X187795Y110039D02*
D03*
X179528D02*
D03*
X187795Y118898D02*
D03*
X179528D02*
D03*
X188878Y128740D02*
D03*
X180610D02*
D03*
X156398Y131791D02*
D03*
X164665D02*
D03*
D66*
X97441Y183858D02*
D03*
X82441D02*
D03*
X67441D02*
D03*
X52441D02*
D03*
X37441D02*
D03*
X22441D02*
D03*
X222165Y183858D02*
D03*
X207165D02*
D03*
X192165D02*
D03*
X177165D02*
D03*
D67*
X44094Y15748D02*
D03*
Y25748D02*
D03*
Y35748D02*
D03*
Y45748D02*
D03*
X14095D02*
D03*
Y35748D02*
D03*
Y25748D02*
D03*
Y15748D02*
D03*
X44094Y80378D02*
D03*
Y70378D02*
D03*
Y60378D02*
D03*
X14095D02*
D03*
Y70378D02*
D03*
Y80378D02*
D03*
X44094Y116378D02*
D03*
Y106378D02*
D03*
Y96378D02*
D03*
X14095D02*
D03*
Y106378D02*
D03*
Y116378D02*
D03*
X94095Y96378D02*
D03*
Y106378D02*
D03*
Y116378D02*
D03*
X124094D02*
D03*
Y106378D02*
D03*
Y96378D02*
D03*
X94095Y60378D02*
D03*
Y70378D02*
D03*
Y80378D02*
D03*
X124094D02*
D03*
Y70378D02*
D03*
Y60378D02*
D03*
X94095Y45866D02*
D03*
Y35866D02*
D03*
Y25866D02*
D03*
Y15866D02*
D03*
X124094D02*
D03*
Y25866D02*
D03*
Y35866D02*
D03*
Y45866D02*
D03*
D68*
X246457Y79055D02*
D03*
Y84055D02*
D03*
D69*
Y89055D02*
D03*
D70*
X218268Y166575D02*
D03*
Y156575D02*
D03*
Y146575D02*
D03*
Y136575D02*
D03*
X248268Y166575D02*
D03*
Y156575D02*
D03*
Y146575D02*
D03*
D71*
Y136575D02*
D03*
D72*
X198819Y136713D02*
D03*
Y145374D02*
D03*
D73*
X214567Y193898D02*
D03*
Y201898D02*
D03*
X223567Y197898D02*
D03*
D74*
X163287Y56595D02*
D03*
X163287Y47146D02*
D03*
M02*
