%FSLAX25Y25*%
%MOIN*%
G70*
G01*
G75*
G04 Layer_Physical_Order=1*
G04 Layer_Color=255*
%ADD10R,0.10039X0.07677*%
%ADD11R,0.05512X0.04331*%
%ADD12R,0.07087X0.08268*%
%ADD13R,0.04331X0.02362*%
%ADD14R,0.24410X0.22835*%
%ADD15R,0.11811X0.06299*%
%ADD16R,0.04331X0.05512*%
G04:AMPARAMS|DCode=17|XSize=9.84mil|YSize=70.87mil|CornerRadius=0mil|HoleSize=0mil|Usage=FLASHONLY|Rotation=135.000|XOffset=0mil|YOffset=0mil|HoleType=Round|Shape=Round|*
%AMOVALD17*
21,1,0.06102,0.00984,0.00000,0.00000,225.0*
1,1,0.00984,0.02158,0.02158*
1,1,0.00984,-0.02158,-0.02158*
%
%ADD17OVALD17*%

G04:AMPARAMS|DCode=18|XSize=9.84mil|YSize=70.87mil|CornerRadius=0mil|HoleSize=0mil|Usage=FLASHONLY|Rotation=45.000|XOffset=0mil|YOffset=0mil|HoleType=Round|Shape=Round|*
%AMOVALD18*
21,1,0.06102,0.00984,0.00000,0.00000,135.0*
1,1,0.00984,0.02158,-0.02158*
1,1,0.00984,-0.02158,0.02158*
%
%ADD18OVALD18*%

%ADD19R,0.07087X0.09055*%
%ADD20R,0.02362X0.11811*%
%ADD21O,0.08661X0.02362*%
%ADD22R,0.02756X0.03150*%
%ADD23R,0.06000X0.07000*%
%ADD24R,0.06299X0.12598*%
%ADD25C,0.01181*%
%ADD26C,0.01969*%
%ADD27C,0.01575*%
%ADD28C,0.00984*%
%ADD29C,0.01500*%
%ADD30C,0.07874*%
%ADD31C,0.03937*%
%ADD32C,0.07480*%
%ADD33C,0.06000*%
%ADD34O,0.07874X0.03937*%
%ADD35O,0.07874X0.03937*%
%ADD36C,0.05906*%
%ADD37R,0.05906X0.05906*%
%ADD38C,0.02362*%
%ADD39C,0.05000*%
G36*
X60433Y34547D02*
X77362D01*
X78445Y33465D01*
Y23031D01*
X77264Y21850D01*
X62008D01*
X54134Y29724D01*
Y36909D01*
X54724Y37500D01*
X57480D01*
X60433Y34547D01*
D02*
G37*
D10*
X206791Y120571D02*
D03*
Y110728D02*
D03*
D11*
X199803Y145177D02*
D03*
Y136909D02*
D03*
X231299Y80216D02*
D03*
Y88484D02*
D03*
X149016Y30315D02*
D03*
Y22047D02*
D03*
X65354Y24213D02*
D03*
Y15945D02*
D03*
Y40748D02*
D03*
Y32480D02*
D03*
X54724Y79724D02*
D03*
Y87992D02*
D03*
X82677Y59842D02*
D03*
Y68110D02*
D03*
X158169Y71752D02*
D03*
Y80020D02*
D03*
X216732Y75197D02*
D03*
Y66929D02*
D03*
D12*
X192028Y110335D02*
D03*
X174311D02*
D03*
D13*
X179921Y131496D02*
D03*
Y127756D02*
D03*
Y124016D02*
D03*
X189370D02*
D03*
Y127756D02*
D03*
Y131496D02*
D03*
D14*
X26378Y149606D02*
D03*
X123228D02*
D03*
D15*
X54724Y158622D02*
D03*
Y140591D02*
D03*
X94882D02*
D03*
Y158622D02*
D03*
D16*
X162697Y110728D02*
D03*
X154429D02*
D03*
X146555D02*
D03*
X154823D02*
D03*
X173425Y49606D02*
D03*
X165157D02*
D03*
X207874Y158465D02*
D03*
X199606D02*
D03*
D17*
X169062Y69216D02*
D03*
X170454Y67824D02*
D03*
X171846Y66432D02*
D03*
X173238Y65040D02*
D03*
X174629Y63648D02*
D03*
X176021Y62256D02*
D03*
X177413Y60864D02*
D03*
X178805Y59472D02*
D03*
X180197Y58080D02*
D03*
X181589Y56688D02*
D03*
X182981Y55296D02*
D03*
X184373Y53904D02*
D03*
X206923Y76454D02*
D03*
X205531Y77846D02*
D03*
X204139Y79238D02*
D03*
X202747Y80629D02*
D03*
X201355Y82021D02*
D03*
X199963Y83413D02*
D03*
X198571Y84805D02*
D03*
X197179Y86197D02*
D03*
X195787Y87589D02*
D03*
X194395Y88981D02*
D03*
X193003Y90373D02*
D03*
X191611Y91765D02*
D03*
D18*
Y53904D02*
D03*
X193003Y55296D02*
D03*
X194395Y56688D02*
D03*
X195787Y58080D02*
D03*
X197179Y59472D02*
D03*
X198571Y60864D02*
D03*
X199963Y62256D02*
D03*
X201355Y63648D02*
D03*
X202747Y65040D02*
D03*
X204139Y66432D02*
D03*
X205531Y67824D02*
D03*
X206923Y69216D02*
D03*
X184373Y91765D02*
D03*
X182981Y90373D02*
D03*
X181589Y88981D02*
D03*
X180197Y87589D02*
D03*
X178805Y86197D02*
D03*
X177413Y84805D02*
D03*
X176021Y83413D02*
D03*
X174629Y82021D02*
D03*
X173238Y80629D02*
D03*
X171846Y79238D02*
D03*
X170454Y77846D02*
D03*
X169062Y76454D02*
D03*
D19*
X169291Y17717D02*
D03*
X196850D02*
D03*
X215551D02*
D03*
X243110D02*
D03*
D20*
X188976Y27559D02*
D03*
X185039D02*
D03*
X181102D02*
D03*
X177165D02*
D03*
X235236D02*
D03*
X231299D02*
D03*
X227362D02*
D03*
X223425D02*
D03*
D21*
X245669Y47618D02*
D03*
Y52618D02*
D03*
Y57618D02*
D03*
Y62618D02*
D03*
X226772Y47618D02*
D03*
Y52618D02*
D03*
Y57618D02*
D03*
Y62618D02*
D03*
D22*
X248130Y104331D02*
D03*
X242028D02*
D03*
X248130Y120079D02*
D03*
X242028D02*
D03*
D23*
X195772Y169291D02*
D03*
X207772D02*
D03*
D24*
X172244Y165354D02*
D03*
Y145669D02*
D03*
D25*
X185335Y62598D02*
X185728Y62205D01*
X181932Y62598D02*
X185335D01*
X149016Y30315D02*
X157087D01*
X144291Y51083D02*
Y51673D01*
Y51083D02*
X151772Y43602D01*
X159153D01*
X165157Y49606D01*
X146457Y103347D02*
X146555Y103445D01*
Y110728D01*
X246457Y89055D02*
X248130Y90728D01*
X245886Y88484D02*
X246457Y89055D01*
X248130Y90728D02*
Y104331D01*
X232461Y79055D02*
X246457D01*
X231299Y80216D02*
X232461Y79055D01*
X231299Y88484D02*
X245886D01*
X225197Y17717D02*
X227362Y19882D01*
Y27559D01*
X218996Y27657D02*
X219094Y27559D01*
X223425D01*
X238583D02*
X239764Y28740D01*
X210039Y56890D02*
Y57729D01*
Y56890D02*
X215158Y51772D01*
Y42126D02*
Y51772D01*
Y42126D02*
X221260Y36024D01*
X217963Y44242D02*
X223327Y38878D01*
X236929D01*
X210751Y69216D02*
X216732Y75197D01*
X214665Y64862D02*
X216732Y66929D01*
X209154Y64862D02*
X214665D01*
X253012Y52618D02*
X256791Y48839D01*
Y43602D02*
Y48839D01*
X249213Y36024D02*
X256791Y43602D01*
X221260Y36024D02*
X249213D01*
X236929Y38878D02*
X245669Y47618D01*
X185039Y37106D02*
X185236Y37303D01*
X185039Y27559D02*
Y37106D01*
X188976Y35531D02*
X190157Y36713D01*
X158169Y71752D02*
X169062D01*
X242028Y101969D02*
X244882Y99114D01*
X242028Y101969D02*
Y104331D01*
Y114862D02*
X244094Y112795D01*
X242028Y114862D02*
Y120079D01*
X248130Y104331D02*
X248130Y104331D01*
X248130Y104331D02*
Y120079D01*
X163976Y57382D02*
X171147D01*
X157087Y50492D02*
X163976Y57382D01*
X163681Y57087D02*
X163976Y57382D01*
X170669Y55118D02*
X174451D01*
X165157Y49606D02*
X170669Y55118D01*
X182298Y65748D02*
Y65833D01*
X157087Y46850D02*
Y50492D01*
X157480Y56595D02*
X160728Y59842D01*
X170824D01*
X173425Y49606D02*
Y51308D01*
X245669Y47618D02*
X253012D01*
X245669Y52618D02*
X253012D01*
X226772Y42126D02*
X226772Y42126D01*
X246063Y63012D02*
Y69685D01*
X245669Y62618D02*
X246063Y63012D01*
X188976Y27559D02*
Y35531D01*
X217913Y44193D02*
Y52657D01*
D26*
X226280Y75197D02*
X231299Y80216D01*
X218268Y165315D02*
Y166575D01*
X212598Y159646D02*
X218268Y165315D01*
X212598Y152953D02*
Y159646D01*
X211122Y151476D02*
X212598Y152953D01*
X178051Y151476D02*
X211122D01*
X172244Y145669D02*
X178051Y151476D01*
X216732Y66929D02*
X221043Y62618D01*
X226772D01*
X173524Y111122D02*
X174311Y110335D01*
X171752Y112894D02*
X173524Y111122D01*
X231299Y17815D02*
Y27559D01*
X235236D02*
X238583D01*
X226772Y42126D02*
Y47618D01*
Y62618D02*
X245669D01*
X218268Y166575D02*
Y179961D01*
X222165Y183858D01*
Y190142D02*
X229921Y197898D01*
X222165Y183858D02*
Y190142D01*
X172244Y127756D02*
X179921D01*
X172244Y127756D02*
Y145669D01*
X200787Y104724D02*
X204724Y108661D01*
X200787Y103543D02*
Y104724D01*
X204724Y108661D02*
X206791Y110728D01*
X204724Y103543D02*
Y108661D01*
X206791Y110728D02*
X208661Y108858D01*
Y103543D02*
Y108858D01*
X204724Y103543D02*
X208661D01*
X200787D02*
X204724D01*
X191634Y158465D02*
X199606D01*
X183661D02*
X191634D01*
X171752Y112894D02*
Y118996D01*
X174311Y110335D02*
X174803Y110827D01*
Y118996D01*
X205906Y120473D02*
Y125098D01*
X200689Y120473D02*
X205906D01*
X192028Y111811D02*
X200689Y120473D01*
X192028Y110335D02*
Y111811D01*
X179921Y131496D02*
Y134153D01*
X190945Y145177D01*
X199803D01*
X199508Y136614D02*
X199803Y136909D01*
X199508Y131496D02*
Y136614D01*
X189370Y131496D02*
X199508D01*
X205906Y125098D01*
X172244Y165354D02*
X176772D01*
X183661Y158465D01*
X207772Y158567D02*
X207874Y158465D01*
X207772Y158567D02*
Y169291D01*
X177165Y183858D02*
X191732Y169291D01*
X195772D01*
X172244Y127756D02*
X172244Y127756D01*
X194390Y127756D02*
X197343D01*
X189370Y127756D02*
X194390Y127756D01*
X149016Y17913D02*
Y22047D01*
Y17913D02*
X158563Y8366D01*
X183957D01*
X188976Y13386D01*
Y27559D01*
X226772Y52618D02*
Y57618D01*
Y62618D01*
X245669D02*
Y69291D01*
X246063Y69685D01*
X221043Y61004D02*
Y62618D01*
X218701Y58661D02*
X221043Y61004D01*
X219685Y98721D02*
X225098Y93307D01*
Y75197D02*
Y93307D01*
X216732Y75197D02*
X225098D01*
X226280D01*
X174311Y110335D02*
X177461Y107185D01*
Y100492D02*
Y107185D01*
X165453Y81693D02*
Y84646D01*
X165650Y84842D01*
X159843Y81693D02*
X165453D01*
X166606D01*
X124094Y106378D02*
X125472D01*
X139370Y120276D01*
X170472D01*
X171752Y118996D01*
X157185Y22047D02*
X173425Y38287D01*
X149016Y22047D02*
X157185D01*
X158169Y65354D02*
Y71752D01*
X173425Y38287D02*
Y43504D01*
Y49606D01*
X156595Y80020D02*
X158169D01*
X151083Y74508D02*
X156595Y80020D01*
X151083Y67913D02*
Y74508D01*
X203346Y42224D02*
X211122Y50000D01*
X211221D01*
D27*
X246063Y69685D02*
X250394D01*
X254528Y73819D01*
Y85925D01*
X251398Y89055D02*
X254528Y85925D01*
X246457Y89055D02*
X251398D01*
X241043Y175984D02*
X246358Y181299D01*
X241043Y168504D02*
Y175984D01*
X234350Y161811D02*
X241043Y168504D01*
X246358Y181299D02*
X246654D01*
X234350Y147244D02*
Y161811D01*
X223681Y136575D02*
X234350Y147244D01*
X218268Y136575D02*
X223681D01*
D28*
X109646Y6102D02*
X111319Y7776D01*
X22343Y6102D02*
X109646D01*
X19685Y8760D02*
X22343Y6102D01*
X19685Y8760D02*
Y23819D01*
X171846Y79238D02*
X175296Y75787D01*
X154429Y104921D02*
Y110728D01*
X168898Y87697D02*
X168954D01*
X174629Y82021D01*
X196752Y71457D02*
X198228Y72933D01*
X196752Y65467D02*
Y71457D01*
Y65467D02*
X199963Y62256D01*
X186909Y81791D02*
X187992Y82874D01*
Y88146D01*
X184373Y91765D02*
X187992Y88146D01*
X190354Y81398D02*
Y84940D01*
X194395Y88981D01*
X170838Y96949D02*
X180197Y87589D01*
X146850Y96949D02*
X170838D01*
X137008Y87106D02*
X146850Y96949D01*
X122146Y87106D02*
X137008D01*
X117913Y82874D02*
X122146Y87106D01*
X117913Y4232D02*
Y82874D01*
X171259Y99311D02*
X181589Y88981D01*
X144882Y99311D02*
X171259D01*
X136122Y90551D02*
X144882Y99311D01*
X120571Y90551D02*
X136122D01*
X114862Y84842D02*
X120571Y90551D01*
X114862Y5118D02*
Y84842D01*
X103150Y91142D02*
Y126772D01*
X94095Y82087D02*
X103150Y91142D01*
X94095Y80378D02*
Y82087D01*
X115551Y1870D02*
X117913Y4232D01*
X113779Y4035D02*
X114862Y5118D01*
X148917Y94291D02*
X170590D01*
X131496Y76870D02*
X148917Y94291D01*
X131496Y53268D02*
Y76870D01*
X150098Y91732D02*
X170486D01*
X135039Y76673D02*
X150098Y91732D01*
X135039Y36811D02*
Y76673D01*
X170590Y94291D02*
X178454Y86427D01*
X170486Y91732D02*
X177413Y84805D01*
X124094Y25866D02*
X135039Y36811D01*
X124094Y45866D02*
X131496Y53268D01*
X162697Y110728D02*
X173130D01*
X166606Y81693D02*
X170454Y77846D01*
X158169Y80020D02*
X159843Y81693D01*
X190650Y61417D02*
X192450D01*
X195787Y58080D01*
X192028Y64623D02*
Y64764D01*
Y64623D02*
X197179Y59472D01*
X207382Y55020D02*
Y57621D01*
X201355Y63648D02*
X207382Y57621D01*
X248268Y166575D02*
X254626Y160216D01*
Y132185D02*
Y160216D01*
X251870Y129429D02*
X254626Y132185D01*
X239272Y129429D02*
X251870D01*
X229134Y119291D02*
X239272Y129429D01*
X199963Y83413D02*
X208282Y91732D01*
X242480Y136575D02*
X248268D01*
X226673Y120768D02*
X242480Y136575D01*
X198571Y84805D02*
X208254Y94488D01*
X243524Y146575D02*
X248268D01*
X232087Y135138D02*
X243524Y146575D01*
X232087Y130118D02*
Y135138D01*
X223917Y121949D02*
X232087Y130118D01*
X195787Y87589D02*
X205442Y97244D01*
X20374Y4035D02*
X113779D01*
X14095Y10315D02*
X20374Y4035D01*
X14095Y10315D02*
Y14378D01*
X7283Y1870D02*
X115551D01*
X2953Y6201D02*
X7283Y1870D01*
X2953Y6201D02*
Y27067D01*
X10264Y34378D01*
X14095D01*
X195582Y34536D02*
X196752Y33366D01*
X200295Y29528D02*
Y50788D01*
X194395Y56688D02*
X200295Y50788D01*
X181102Y36220D02*
Y37402D01*
Y27559D02*
Y36220D01*
X169062Y71752D02*
Y76454D01*
Y69216D02*
Y71752D01*
X185039Y47332D02*
X191611Y53904D01*
X185039Y41339D02*
Y47332D01*
X181102Y37402D02*
X185039Y41339D01*
X177165Y27559D02*
Y37402D01*
X181890Y42126D01*
Y51421D01*
X184373Y53904D01*
X167028Y124803D02*
X167815Y124016D01*
X179921D01*
X19685Y71165D02*
Y100787D01*
Y23819D02*
Y44488D01*
X14095Y44378D02*
X19575D01*
X14095Y24378D02*
X14653Y23819D01*
X19685D01*
X14095Y106378D02*
X19685Y100787D01*
X111221Y134843D02*
Y137598D01*
X103150Y126772D02*
X111221Y134843D01*
Y137598D02*
X123228Y149606D01*
X94095Y116378D02*
X103150D01*
X26378Y149606D02*
X33465Y142520D01*
Y62008D02*
X35094Y60378D01*
X44094D01*
X33543Y96378D02*
X44094D01*
X33465Y96457D02*
X33543Y96378D01*
X33465Y62008D02*
Y96457D01*
Y142520D01*
X52323Y158622D02*
X54724D01*
X44291Y150591D02*
X52323Y158622D01*
X44291Y128937D02*
Y150591D01*
Y128937D02*
X46260Y126969D01*
X54134D01*
X44945Y79527D02*
X56102D01*
X44094Y80378D02*
X44945Y79527D01*
X82677Y59842D02*
X93559D01*
X94095Y60378D01*
X82677Y68110D02*
Y131890D01*
X91378Y140591D01*
X94882D01*
X91693Y158622D02*
X94882D01*
X81693Y148622D02*
X91693Y158622D01*
X81693Y140748D02*
Y148622D01*
X76772Y135827D02*
X81693Y140748D01*
X76772Y83661D02*
Y135827D01*
X85630Y24606D02*
Y41339D01*
Y24606D02*
X93866D01*
X94095Y24378D01*
X35323Y44378D02*
X44094D01*
X73622Y53347D02*
X85630Y41339D01*
X73622Y53347D02*
Y80512D01*
X76772Y83661D01*
X65354Y40748D02*
Y46063D01*
Y47638D01*
Y24213D02*
Y32480D01*
X54724Y89173D02*
X56102Y87795D01*
X54724Y89173D02*
Y126378D01*
X54134Y126969D02*
X54724Y126378D01*
X60236Y60236D02*
X65354Y65354D01*
Y139055D01*
X63819Y140591D02*
X65354Y139055D01*
X34252Y25591D02*
X35465Y24378D01*
X34252Y25591D02*
Y43307D01*
X35323Y44378D01*
X205442Y97244D02*
X206988D01*
X223917Y114173D01*
Y121949D01*
X208254Y94488D02*
Y94868D01*
X226673Y113287D01*
Y120768D01*
X208282Y91732D02*
X208760D01*
X229134Y112106D01*
Y119291D01*
X216142Y92716D02*
Y94784D01*
Y92716D02*
X221457Y87402D01*
Y83957D02*
Y87402D01*
X173130Y110728D02*
X173524Y111122D01*
X179331Y72736D02*
X190650Y61417D01*
X175296Y75787D02*
X176870D01*
X178937Y77854D01*
X180610D01*
X179331Y72736D02*
X179626Y73032D01*
Y74016D01*
X18898Y45055D02*
X19575Y44378D01*
X18898Y45055D02*
Y70378D01*
X14095D02*
X18898D01*
X19685Y71165D01*
X28150Y52165D02*
X28543Y52559D01*
X60433D01*
X65354Y47638D01*
X35465Y24378D02*
X48752D01*
X57185Y15945D01*
X65354D01*
X193003Y55296D02*
X193031D01*
X195582Y52745D01*
Y34536D02*
Y52745D01*
X202747Y65040D02*
X210039Y57747D01*
Y57729D02*
Y57747D01*
X204139Y66432D02*
X208759Y61811D01*
X210039D01*
X217913Y53937D01*
Y52657D02*
Y53937D01*
X205531Y67824D02*
X208492Y64862D01*
X209154D01*
X206923Y69216D02*
X208717Y67421D01*
X208957D01*
X210751Y69216D01*
X177413Y60864D02*
X182298Y65748D01*
X178805Y59472D02*
X181932Y62598D01*
X170824Y59842D02*
X174629Y63648D01*
X171147Y57382D02*
X176021Y62256D01*
X174451Y55118D02*
X178805Y59472D01*
X175886Y53769D02*
X180197Y58080D01*
X175886Y52067D02*
Y53769D01*
X173425Y49606D02*
X175886Y52067D01*
D29*
X218268Y156575D02*
X223799D01*
X225590Y158366D01*
Y169095D01*
X231004Y174508D01*
Y191634D01*
X242618Y203248D01*
X218268Y146575D02*
X227776D01*
X229921Y148721D01*
Y163386D01*
X237008Y170472D01*
Y181595D01*
D30*
X107283Y199803D02*
X122047Y185039D01*
X26575Y199803D02*
X107283D01*
X22441Y195669D02*
X26575Y199803D01*
X122047Y175197D02*
Y185039D01*
X22441Y153543D02*
X26378Y149606D01*
X22441Y153543D02*
Y183858D01*
Y195669D01*
X122047Y150787D02*
X123228Y149606D01*
X122047Y150787D02*
Y167323D01*
Y175197D01*
D31*
X54724Y140591D02*
X63819D01*
X68898Y145669D01*
Y182402D01*
X94882Y158622D02*
X96457Y160197D01*
Y182874D01*
X97441Y183858D01*
D32*
D03*
X82441D02*
D03*
X67441D02*
D03*
X52441D02*
D03*
X37441D02*
D03*
X22441D02*
D03*
X222165Y183858D02*
D03*
X207165D02*
D03*
X192165D02*
D03*
X177165D02*
D03*
D33*
X44094Y15748D02*
D03*
Y25748D02*
D03*
Y35748D02*
D03*
Y45748D02*
D03*
X14095D02*
D03*
Y35748D02*
D03*
Y25748D02*
D03*
Y15748D02*
D03*
X44094Y80378D02*
D03*
Y70378D02*
D03*
Y60378D02*
D03*
X14095D02*
D03*
Y70378D02*
D03*
Y80378D02*
D03*
X44094Y116378D02*
D03*
Y106378D02*
D03*
Y96378D02*
D03*
X14095D02*
D03*
Y106378D02*
D03*
Y116378D02*
D03*
X94095Y96378D02*
D03*
Y106378D02*
D03*
Y116378D02*
D03*
X124094D02*
D03*
Y106378D02*
D03*
Y96378D02*
D03*
X94095Y60378D02*
D03*
Y70378D02*
D03*
Y80378D02*
D03*
X124094D02*
D03*
Y70378D02*
D03*
Y60378D02*
D03*
X94095Y45866D02*
D03*
Y35866D02*
D03*
Y25866D02*
D03*
Y15866D02*
D03*
X124094D02*
D03*
Y25866D02*
D03*
Y35866D02*
D03*
Y45866D02*
D03*
D34*
X246457Y79055D02*
D03*
Y84055D02*
D03*
D35*
Y89055D02*
D03*
D36*
X218268Y166575D02*
D03*
Y156575D02*
D03*
Y146575D02*
D03*
Y136575D02*
D03*
X248268Y166575D02*
D03*
Y156575D02*
D03*
Y146575D02*
D03*
D37*
Y136575D02*
D03*
D38*
X185728Y62205D02*
D03*
X111319Y7776D02*
D03*
X157087Y30315D02*
D03*
X180610Y77854D02*
D03*
X154429Y104823D02*
D03*
X168954Y87697D02*
D03*
X198228Y72933D02*
D03*
X190551Y80807D02*
D03*
X186122Y81299D02*
D03*
X144291Y51673D02*
D03*
X146555Y103445D02*
D03*
X207480Y54724D02*
D03*
X192028Y64623D02*
D03*
X28150Y52165D02*
D03*
X196752Y33366D02*
D03*
X200295Y29528D02*
D03*
X218996Y27657D02*
D03*
X225197Y17717D02*
D03*
X231201Y17520D02*
D03*
X239764Y28740D02*
D03*
X185236Y37303D02*
D03*
X190157Y36713D02*
D03*
X181102Y36220D02*
D03*
X244882Y99114D02*
D03*
X244094Y112795D02*
D03*
X182298Y65833D02*
D03*
X157087Y46850D02*
D03*
X157480Y56595D02*
D03*
X253012Y47618D02*
D03*
Y52618D02*
D03*
X226772Y42126D02*
D03*
X246063Y69685D02*
D03*
X229921Y197898D02*
D03*
X208661Y103543D02*
D03*
X204724D02*
D03*
X200787D02*
D03*
X167028Y124803D02*
D03*
X191634Y158465D02*
D03*
X171752Y118996D02*
D03*
X174803D02*
D03*
X193504Y145177D02*
D03*
X175492Y127854D02*
D03*
X172244Y127756D02*
D03*
X197343D02*
D03*
X194390D02*
D03*
X242618Y203248D02*
D03*
X246654Y181299D02*
D03*
X237008Y181595D02*
D03*
X65354Y46063D02*
D03*
X60236Y60236D02*
D03*
X225098Y75098D02*
D03*
X218701Y58661D02*
D03*
X216142Y94784D02*
D03*
X221457Y83957D02*
D03*
X219685Y98721D02*
D03*
X177461Y100492D02*
D03*
X165650Y84842D02*
D03*
X158169Y65354D02*
D03*
X173425Y43504D02*
D03*
X151083Y67913D02*
D03*
X179626Y74016D02*
D03*
X203346Y42224D02*
D03*
X211221Y50000D02*
D03*
D39*
X122047Y167323D02*
D03*
Y175197D02*
D03*
M02*
