%FSLAX25Y25*%
%MOIN*%
G70*
G01*
G75*
G04 Layer_Color=65535*
%ADD10R,0.04331X0.05512*%
%ADD11R,0.03543X0.02756*%
%ADD12R,0.04803X0.03583*%
%ADD13R,0.03150X0.09449*%
%ADD14R,0.05512X0.04331*%
%ADD15R,0.24410X0.22835*%
%ADD16R,0.11811X0.06299*%
%ADD17R,0.07087X0.08268*%
%ADD18R,0.10039X0.07677*%
%ADD19R,0.04331X0.02362*%
G04:AMPARAMS|DCode=20|XSize=9.84mil|YSize=70.87mil|CornerRadius=0mil|HoleSize=0mil|Usage=FLASHONLY|Rotation=135.000|XOffset=0mil|YOffset=0mil|HoleType=Round|Shape=Round|*
%AMOVALD20*
21,1,0.06102,0.00984,0.00000,0.00000,225.0*
1,1,0.00984,0.02158,0.02158*
1,1,0.00984,-0.02158,-0.02158*
%
%ADD20OVALD20*%

G04:AMPARAMS|DCode=21|XSize=9.84mil|YSize=70.87mil|CornerRadius=0mil|HoleSize=0mil|Usage=FLASHONLY|Rotation=45.000|XOffset=0mil|YOffset=0mil|HoleType=Round|Shape=Round|*
%AMOVALD21*
21,1,0.06102,0.00984,0.00000,0.00000,135.0*
1,1,0.00984,0.02158,-0.02158*
1,1,0.00984,-0.02158,0.02158*
%
%ADD21OVALD21*%

%ADD22R,0.07087X0.09055*%
%ADD23R,0.02362X0.11811*%
%ADD24O,0.08661X0.02362*%
%ADD25R,0.02756X0.03150*%
%ADD26R,0.06000X0.07000*%
%ADD27R,0.06299X0.12598*%
%ADD28O,0.09843X0.02756*%
%ADD29C,0.00800*%
%ADD30C,0.01969*%
%ADD31C,0.00984*%
%ADD32C,0.03937*%
%ADD33C,0.03543*%
%ADD34C,0.01181*%
%ADD35C,0.05906*%
%ADD36C,0.02756*%
%ADD37C,0.11811*%
%ADD38C,0.03150*%
%ADD39C,0.01500*%
%ADD40C,0.01575*%
%ADD41C,0.01000*%
%ADD42C,0.07480*%
%ADD43C,0.06000*%
%ADD44O,0.07874X0.03937*%
%ADD45O,0.07874X0.03937*%
%ADD46C,0.02362*%
%ADD47R,0.15748X0.19685*%
%ADD48R,0.07000X0.06000*%
G04:AMPARAMS|DCode=49|XSize=59.06mil|YSize=39.37mil|CornerRadius=1.97mil|HoleSize=0mil|Usage=FLASHONLY|Rotation=90.000|XOffset=0mil|YOffset=0mil|HoleType=Round|Shape=RoundedRectangle|*
%AMROUNDEDRECTD49*
21,1,0.05906,0.03543,0,0,90.0*
21,1,0.05512,0.03937,0,0,90.0*
1,1,0.00394,0.01772,0.02756*
1,1,0.00394,0.01772,-0.02756*
1,1,0.00394,-0.01772,-0.02756*
1,1,0.00394,-0.01772,0.02756*
%
%ADD49ROUNDEDRECTD49*%
%ADD50R,0.04600X0.04600*%
%ADD51R,0.07480X0.06299*%
%ADD52R,0.04724X0.10236*%
%ADD53C,0.07874*%
%ADD54C,0.15748*%
%ADD55C,0.13780*%
%ADD56C,0.00827*%
%ADD57C,0.02362*%
%ADD58C,0.00787*%
%ADD59C,0.00394*%
%ADD60C,0.00500*%
%ADD61C,0.00591*%
%ADD62C,0.00669*%
%ADD63R,0.06299X0.01969*%
D29*
X1969Y158811D02*
X16732D01*
X78661Y164449D02*
X78661Y184449D01*
X78661Y169449D02*
X83661Y174449D01*
X78661Y179449D02*
X83661Y174449D01*
X118661Y164449D02*
Y184449D01*
X78661D02*
X118661D01*
X78661Y164449D02*
X118661D01*
X124921Y85551D02*
Y116535D01*
X104921Y85551D02*
Y116535D01*
X124921Y116535D01*
X124921Y905D02*
Y31890D01*
X104921D02*
X104921Y905D01*
X104921Y31890D02*
X124921D01*
X109921Y905D02*
X114921Y5906D01*
X119921Y905D01*
X104921Y905D02*
X124921Y905D01*
X30433Y164449D02*
X30433Y184449D01*
X30433Y169449D02*
X35433Y174449D01*
X30433Y179449D02*
X35433Y174449D01*
X70433Y164449D02*
Y184449D01*
X30433D02*
X70433D01*
X30433Y164449D02*
X70433D01*
D31*
X49311Y35197D02*
G03*
X49311Y35197I-492J0D01*
G01*
X170571Y132874D02*
G03*
X170571Y132874I-492J0D01*
G01*
X157763Y69196D02*
G03*
X157763Y69196I-492J0D01*
G01*
X236319Y42303D02*
G03*
X236319Y42303I-492J0D01*
G01*
X230217Y139744D02*
G03*
X230217Y139744I-492J0D01*
G01*
D40*
X227559Y46457D02*
G03*
X227559Y46457I-787J0D01*
G01*
D41*
X41339Y40551D02*
X84646D01*
X41339D02*
Y83858D01*
X84646D01*
Y40551D02*
Y83858D01*
X154724Y33465D02*
X191732D01*
Y7874D02*
Y33465D01*
X154724Y7874D02*
Y33465D01*
Y7874D02*
X191732D01*
X200984Y33465D02*
X237992D01*
Y7874D02*
Y33465D01*
X200984Y7874D02*
Y33465D01*
Y7874D02*
X237992D01*
X0Y0D02*
Y196850D01*
X244094D01*
Y0D02*
Y196850D01*
X0Y0D02*
X244094D01*
D57*
X169587Y70866D02*
G03*
X169587Y70866I-1181J0D01*
G01*
D58*
X225981Y74611D02*
G03*
X225981Y90743I6302J8066D01*
G01*
X59842Y7992D02*
X64358D01*
X59842D02*
X59842Y33740D01*
X64358Y33740D01*
X177756Y103248D02*
Y113583D01*
X16732Y153811D02*
Y158811D01*
X173819Y131890D02*
X175787D01*
X173819Y119685D02*
X175787D01*
X173819D02*
Y131890D01*
X175787Y119685D02*
Y131890D01*
X162838Y70866D02*
X178150Y55555D01*
Y86178D02*
X193461Y70866D01*
X162838D02*
X178150Y86178D01*
Y55555D02*
X193461Y70866D01*
X229921Y43307D02*
Y62992D01*
X222835Y43307D02*
Y62992D01*
Y43307D02*
X229921D01*
X222835Y62992D02*
X229921D01*
X225984Y74611D02*
Y90743D01*
X147449Y181890D02*
X152449D01*
X211449D02*
X216449D01*
X223228Y140945D02*
Y160630D01*
X216929Y140945D02*
Y160630D01*
Y140945D02*
X223228D01*
X216929Y160630D02*
X223228D01*
D59*
X109646Y69291D02*
X124213D01*
X109646D02*
Y76378D01*
X124213D01*
Y69291D02*
Y76378D01*
X98032Y65256D02*
X104331D01*
Y58366D02*
Y65256D01*
X98032Y58366D02*
X104331D01*
X98032D02*
Y65256D01*
Y63287D02*
X104331D01*
X36319Y20768D02*
Y35925D01*
X28248Y20768D02*
X36319D01*
X28248D02*
Y35925D01*
X36319D01*
X136319Y53839D02*
Y68996D01*
X128248Y53839D02*
X136319D01*
X128248D02*
Y68996D01*
X136319D01*
X36319Y3839D02*
Y18996D01*
X28248Y3839D02*
X36319D01*
X28248D02*
Y18996D01*
X36319D01*
X64075Y107972D02*
X79232D01*
Y99902D02*
Y107972D01*
X64075Y99902D02*
X79232D01*
X64075D02*
Y107972D01*
X223130Y184744D02*
X238287D01*
Y176673D02*
Y184744D01*
X223130Y176673D02*
X238287D01*
X223130D02*
Y184744D01*
Y166043D02*
X238287D01*
X223130D02*
Y174114D01*
X238287D01*
Y166043D02*
Y174114D01*
X190847Y123327D02*
X203051D01*
X190847Y104035D02*
Y123327D01*
Y104035D02*
X203051D01*
Y123327D01*
X186417Y131791D02*
X193504D01*
Y146358D01*
X186417Y146358D02*
X193504Y146358D01*
X186417Y131791D02*
Y146358D01*
X217913Y89665D02*
X225000D01*
X217913Y75099D02*
Y89665D01*
Y75099D02*
X225000D01*
X225000Y89665D02*
X225000Y75099D01*
X141043Y17815D02*
Y32972D01*
X149114D01*
Y17815D02*
Y32972D01*
X141043Y17815D02*
X149114D01*
X146752Y133366D02*
X146752Y118209D01*
X146752Y133366D02*
X154823D01*
X154823Y118209D01*
X146752D02*
X154823D01*
Y110335D02*
X154823Y125492D01*
X146752Y110335D02*
X154823D01*
X146752D02*
X146752Y125492D01*
X154823D01*
X144783Y81201D02*
X151870D01*
X144783Y66634D02*
Y81201D01*
Y66634D02*
X151870Y66634D01*
Y81201D01*
X152165Y44094D02*
Y51181D01*
Y44094D02*
X166732D01*
Y51181D01*
X152165D02*
X166732D01*
X203346Y61811D02*
X210433D01*
Y76378D01*
X203346Y76378D02*
X210433Y76378D01*
X203346Y61811D02*
Y76378D01*
X186319Y160531D02*
X201476D01*
Y152461D02*
Y160531D01*
X186319Y152461D02*
X201476D01*
X186319D02*
Y160531D01*
X181988Y162795D02*
Y171850D01*
Y162795D02*
X201969D01*
Y171850D01*
X181988D02*
X201969D01*
X197638Y138189D02*
X212795D01*
Y130118D02*
Y138189D01*
X197638Y130118D02*
X212795D01*
X197638D02*
Y138189D01*
X114304Y79593D02*
X113976Y79921D01*
X113320D01*
X112992Y79593D01*
Y78281D01*
X113320Y77953D01*
X113976D01*
X114304Y78281D01*
X114960Y77953D02*
X115616D01*
X115288D01*
Y79921D01*
X114960Y79593D01*
X117912Y79921D02*
X117256Y79593D01*
X116600Y78937D01*
Y78281D01*
X116928Y77953D01*
X117584D01*
X117912Y78281D01*
Y78609D01*
X117584Y78937D01*
X116600D01*
X115879Y47572D02*
Y48884D01*
X115551Y49212D01*
X114895D01*
X114567Y48884D01*
Y47572D01*
X114895Y47244D01*
X115551D01*
X115223Y47900D02*
X115879Y47244D01*
X115551D02*
X115879Y47572D01*
X116535Y47244D02*
X117191D01*
X116863D01*
Y49212D01*
X116535Y48884D01*
X98425Y74409D02*
Y72441D01*
X99409D01*
X99737Y72769D01*
Y74081D01*
X99409Y74409D01*
X98425D01*
X101377Y72441D02*
Y74409D01*
X100393Y73425D01*
X101705D01*
X33071Y62991D02*
Y61352D01*
X33399Y61024D01*
X34055D01*
X34383Y61352D01*
Y62991D01*
X35039Y61024D02*
X35695D01*
X35367D01*
Y62991D01*
X35039Y62664D01*
X37990Y61024D02*
X36679D01*
X37990Y62335D01*
Y62664D01*
X37663Y62991D01*
X37007D01*
X36679Y62664D01*
X30315Y37402D02*
Y39369D01*
X31299D01*
X31627Y39042D01*
Y38385D01*
X31299Y38058D01*
X30315D01*
X30971D02*
X31627Y37402D01*
X32283Y39042D02*
X32611Y39369D01*
X33267D01*
X33595Y39042D01*
Y38713D01*
X33267Y38385D01*
X32939D01*
X33267D01*
X33595Y38058D01*
Y37730D01*
X33267Y37402D01*
X32611D01*
X32283Y37730D01*
X34251Y37402D02*
X34907D01*
X34579D01*
Y39369D01*
X34251Y39042D01*
X128413Y71624D02*
Y73592D01*
X129396D01*
X129725Y73264D01*
Y72608D01*
X129396Y72280D01*
X128413D01*
X129069D02*
X129725Y71624D01*
X131692D02*
X130380D01*
X131692Y72936D01*
Y73264D01*
X131364Y73592D01*
X130708D01*
X130380Y73264D01*
X133660Y73592D02*
X132348D01*
Y72608D01*
X133004Y72936D01*
X133332D01*
X133660Y72608D01*
Y71952D01*
X133332Y71624D01*
X132676D01*
X132348Y71952D01*
X25591Y9055D02*
X23623D01*
Y10039D01*
X23951Y10367D01*
X24607D01*
X24935Y10039D01*
Y9055D01*
Y9711D02*
X25591Y10367D01*
Y12335D02*
Y11023D01*
X24279Y12335D01*
X23951D01*
X23623Y12007D01*
Y11351D01*
X23951Y11023D01*
Y12991D02*
X23623Y13319D01*
Y13975D01*
X23951Y14303D01*
X25263D01*
X25591Y13975D01*
Y13319D01*
X25263Y12991D01*
X23951D01*
X68110Y110236D02*
Y112204D01*
X69094D01*
X69422Y111876D01*
Y111220D01*
X69094Y110892D01*
X68110D01*
X68766D02*
X69422Y110236D01*
X71390D02*
X70078D01*
X71390Y111548D01*
Y111876D01*
X71062Y112204D01*
X70406D01*
X70078Y111876D01*
X73030Y110236D02*
Y112204D01*
X72046Y111220D01*
X73358D01*
X76378Y4724D02*
X77690D01*
X77034D01*
Y2756D01*
X78346D02*
Y4724D01*
X79330D01*
X79658Y4396D01*
Y3740D01*
X79330Y3412D01*
X78346D01*
X79002D02*
X79658Y2756D01*
X80314D02*
X80970D01*
X80642D01*
Y4724D01*
X80314Y4396D01*
X9843Y164566D02*
Y162599D01*
Y163254D01*
X11154Y164566D01*
X10170Y163582D01*
X11154Y162599D01*
X13122D02*
X11810D01*
X13122Y163910D01*
Y164238D01*
X12794Y164566D01*
X12138D01*
X11810Y164238D01*
X140945Y192125D02*
Y190157D01*
Y190813D01*
X142257Y192125D01*
X141273Y191141D01*
X142257Y190157D01*
X142913D02*
X143569D01*
X143241D01*
Y192125D01*
X142913Y191797D01*
X187953Y150566D02*
X187625Y150894D01*
X186969D01*
X186641Y150566D01*
Y149254D01*
X186969Y148926D01*
X187625D01*
X187953Y149254D01*
X188609Y150566D02*
X188937Y150894D01*
X189593D01*
X189921Y150566D01*
Y150238D01*
X189593Y149910D01*
X189265D01*
X189593D01*
X189921Y149582D01*
Y149254D01*
X189593Y148926D01*
X188937D01*
X188609Y149254D01*
X152985Y171325D02*
X152657Y171653D01*
X152001D01*
X151673Y171325D01*
Y170013D01*
X152001Y169685D01*
X152657D01*
X152985Y170013D01*
X154625Y169685D02*
Y171653D01*
X153641Y170669D01*
X154953D01*
X147769Y84317D02*
X147441Y84645D01*
X146785D01*
X146457Y84317D01*
Y83005D01*
X146785Y82677D01*
X147441D01*
X147769Y83005D01*
X148424D02*
X148752Y82677D01*
X149408D01*
X149736Y83005D01*
Y84317D01*
X149408Y84645D01*
X148752D01*
X148424Y84317D01*
Y83989D01*
X148752Y83661D01*
X149736D01*
X157513Y42191D02*
X157185Y42519D01*
X156529D01*
X156201Y42191D01*
Y40879D01*
X156529Y40551D01*
X157185D01*
X157513Y40879D01*
X158169Y40551D02*
X158825D01*
X158497D01*
Y42519D01*
X158169Y42191D01*
X159809D02*
X160136Y42519D01*
X160793D01*
X161120Y42191D01*
Y40879D01*
X160793Y40551D01*
X160136D01*
X159809Y40879D01*
Y42191D01*
X205839Y79790D02*
X205511Y80117D01*
X204855D01*
X204528Y79790D01*
Y78478D01*
X204855Y78150D01*
X205511D01*
X205839Y78478D01*
X206495Y78150D02*
X207151D01*
X206823D01*
Y80117D01*
X206495Y79790D01*
X208135Y78150D02*
X208791D01*
X208463D01*
Y80117D01*
X208135Y79790D01*
X219404Y93869D02*
X219076Y94197D01*
X218420D01*
X218092Y93869D01*
Y92557D01*
X218420Y92229D01*
X219076D01*
X219404Y92557D01*
X220060Y92229D02*
X220716D01*
X220388D01*
Y94197D01*
X220060Y93869D01*
X223012Y94197D02*
X221700D01*
Y93213D01*
X222356Y93541D01*
X222684D01*
X223012Y93213D01*
Y92557D01*
X222684Y92229D01*
X222028D01*
X221700Y92557D01*
X161122Y99999D02*
Y98032D01*
X162106D01*
X162434Y98360D01*
Y99671D01*
X162106Y99999D01*
X161122D01*
X164402Y98032D02*
X163090D01*
X164402Y99343D01*
Y99671D01*
X164074Y99999D01*
X163418D01*
X163090Y99671D01*
X155118Y5117D02*
Y3150D01*
Y3806D01*
X156430Y5117D01*
X155446Y4134D01*
X156430Y3150D01*
X157086Y4789D02*
X157414Y5117D01*
X158070D01*
X158398Y4789D01*
Y4462D01*
X158070Y4134D01*
X157742D01*
X158070D01*
X158398Y3806D01*
Y3478D01*
X158070Y3150D01*
X157414D01*
X157086Y3478D01*
X209055Y5314D02*
Y3347D01*
Y4002D01*
X210367Y5314D01*
X209383Y4330D01*
X210367Y3347D01*
X212007D02*
Y5314D01*
X211023Y4330D01*
X212335D01*
X194193Y127165D02*
Y125197D01*
X195505D01*
X196161D02*
X196817D01*
X196489D01*
Y127165D01*
X196161Y126837D01*
X222835Y103936D02*
Y101969D01*
X224147D01*
X224802Y103936D02*
Y101969D01*
X225786D01*
X226114Y102296D01*
Y103608D01*
X225786Y103936D01*
X224802D01*
X226770Y101969D02*
X227426D01*
X227098D01*
Y103936D01*
X226770Y103608D01*
X233071Y124409D02*
Y122441D01*
X234383D01*
X235039Y124409D02*
Y122441D01*
X236023D01*
X236351Y122769D01*
Y124081D01*
X236023Y124409D01*
X235039D01*
X238318Y122441D02*
X237007D01*
X238318Y123753D01*
Y124081D01*
X237990Y124409D01*
X237335D01*
X237007Y124081D01*
X229134Y186614D02*
Y188582D01*
X230118D01*
X230446Y188254D01*
Y187598D01*
X230118Y187270D01*
X229134D01*
X229790D02*
X230446Y186614D01*
X232414D02*
X231102D01*
X232414Y187926D01*
Y188254D01*
X232086Y188582D01*
X231430D01*
X231102Y188254D01*
X229134Y162598D02*
Y164566D01*
X230118D01*
X230446Y164238D01*
Y163582D01*
X230118Y163254D01*
X229134D01*
X229790D02*
X230446Y162598D01*
X231102Y164238D02*
X231430Y164566D01*
X232086D01*
X232414Y164238D01*
Y163910D01*
X232086Y163582D01*
X231758D01*
X232086D01*
X232414Y163254D01*
Y162926D01*
X232086Y162598D01*
X231430D01*
X231102Y162926D01*
X205118Y126378D02*
Y128346D01*
X206102D01*
X206430Y128018D01*
Y127362D01*
X206102Y127034D01*
X205118D01*
X205774D02*
X206430Y126378D01*
X208070D02*
Y128346D01*
X207086Y127362D01*
X208398D01*
X189469Y174016D02*
Y175984D01*
X190452D01*
X190780Y175656D01*
Y175000D01*
X190452Y174672D01*
X189469D01*
X190124D02*
X190780Y174016D01*
X191436Y175656D02*
X191764Y175984D01*
X192420D01*
X192748Y175656D01*
Y175328D01*
X192420Y175000D01*
X192748Y174672D01*
Y174344D01*
X192420Y174016D01*
X191764D01*
X191436Y174344D01*
Y174672D01*
X191764Y175000D01*
X191436Y175328D01*
Y175656D01*
X191764Y175000D02*
X192420D01*
X197244Y148917D02*
Y150885D01*
X198228D01*
X198556Y150557D01*
Y149901D01*
X198228Y149573D01*
X197244D01*
X197900D02*
X198556Y148917D01*
X199212Y149245D02*
X199540Y148917D01*
X200196D01*
X200524Y149245D01*
Y150557D01*
X200196Y150885D01*
X199540D01*
X199212Y150557D01*
Y150229D01*
X199540Y149901D01*
X200524D01*
X144390Y112303D02*
X142422D01*
Y113287D01*
X142750Y113615D01*
X143406D01*
X143734Y113287D01*
Y112303D01*
Y112959D02*
X144390Y113615D01*
Y114271D02*
Y114927D01*
Y114599D01*
X142422D01*
X142750Y114271D01*
Y115911D02*
X142422Y116239D01*
Y116895D01*
X142750Y117223D01*
X143078D01*
X143406Y116895D01*
Y116567D01*
Y116895D01*
X143734Y117223D01*
X144062D01*
X144390Y116895D01*
Y116239D01*
X144062Y115911D01*
X141254Y35571D02*
Y37539D01*
X142238D01*
X142566Y37211D01*
Y36555D01*
X142238Y36227D01*
X141254D01*
X141910D02*
X142566Y35571D01*
X143222D02*
X143878D01*
X143550D01*
Y37539D01*
X143222Y37211D01*
X145846Y35571D02*
Y37539D01*
X144862Y36555D01*
X146174D01*
X144685Y125787D02*
X142717D01*
Y126771D01*
X143045Y127099D01*
X143701D01*
X144029Y126771D01*
Y125787D01*
Y126443D02*
X144685Y127099D01*
Y127755D02*
Y128411D01*
Y128083D01*
X142717D01*
X143045Y127755D01*
X142717Y130707D02*
Y129395D01*
X143701D01*
X143373Y130051D01*
Y130379D01*
X143701Y130707D01*
X144357D01*
X144685Y130379D01*
Y129723D01*
X144357Y129395D01*
X218799Y127952D02*
Y126312D01*
X219127Y125984D01*
X219783D01*
X220111Y126312D01*
Y127952D01*
X220767Y125984D02*
X221423D01*
X221095D01*
Y127952D01*
X220767Y127624D01*
X176772Y96358D02*
Y94718D01*
X177100Y94390D01*
X177756D01*
X178084Y94718D01*
Y96358D01*
X180051Y94390D02*
X178740D01*
X180051Y95702D01*
Y96030D01*
X179723Y96358D01*
X179068D01*
X178740Y96030D01*
X167247Y138202D02*
Y136562D01*
X167575Y136234D01*
X168231D01*
X168559Y136562D01*
Y138202D01*
X169215Y137874D02*
X169543Y138202D01*
X170199D01*
X170527Y137874D01*
Y137546D01*
X170199Y137218D01*
X169871D01*
X170199D01*
X170527Y136890D01*
Y136562D01*
X170199Y136234D01*
X169543D01*
X169215Y136562D01*
X236024Y39862D02*
Y38222D01*
X236352Y37894D01*
X237007D01*
X237335Y38222D01*
Y39862D01*
X238975Y37894D02*
Y39862D01*
X237991Y38878D01*
X239303D01*
X238287Y95865D02*
Y94226D01*
X238615Y93898D01*
X239271D01*
X239599Y94226D01*
Y95865D01*
X241567D02*
X240255D01*
Y94882D01*
X240911Y95210D01*
X241239D01*
X241567Y94882D01*
Y94226D01*
X241239Y93898D01*
X240583D01*
X240255Y94226D01*
X112598Y35826D02*
Y34186D01*
X112926Y33858D01*
X113582D01*
X113910Y34186D01*
Y35826D01*
X115878D02*
X115222Y35498D01*
X114566Y34842D01*
Y34186D01*
X114894Y33858D01*
X115550D01*
X115878Y34186D01*
Y34514D01*
X115550Y34842D01*
X114566D01*
X122244Y169094D02*
Y167454D01*
X122572Y167126D01*
X123228D01*
X123556Y167454D01*
Y169094D01*
X124212D02*
X125524D01*
Y168766D01*
X124212Y167454D01*
Y167126D01*
X112598Y121259D02*
Y119619D01*
X112926Y119291D01*
X113582D01*
X113910Y119619D01*
Y121259D01*
X114566Y120931D02*
X114894Y121259D01*
X115550D01*
X115878Y120931D01*
Y120603D01*
X115550Y120275D01*
X115878Y119947D01*
Y119619D01*
X115550Y119291D01*
X114894D01*
X114566Y119619D01*
Y119947D01*
X114894Y120275D01*
X114566Y120603D01*
Y120931D01*
X114894Y120275D02*
X115550D01*
X20768Y174015D02*
Y172375D01*
X21096Y172047D01*
X21752D01*
X22080Y172375D01*
Y174015D01*
X22736Y172047D02*
X23392D01*
X23064D01*
Y174015D01*
X22736Y173687D01*
X24375D02*
X24703Y174015D01*
X25359D01*
X25687Y173687D01*
Y172375D01*
X25359Y172047D01*
X24703D01*
X24375Y172375D01*
Y173687D01*
D60*
X112735Y65461D02*
X118235D01*
X112698Y51861D02*
X118235D01*
X112735Y61375D02*
Y65461D01*
X112698Y51861D02*
Y55961D01*
D61*
X164272Y113681D02*
X182382D01*
X164272Y103150D02*
X182382D01*
X240650Y100984D02*
X240650Y103740D01*
Y116732D02*
Y119488D01*
X148622Y162205D02*
X153740Y167323D01*
X171063D02*
X176181Y162205D01*
X174606Y139764D02*
X176181Y141339D01*
X148622D02*
X150197Y139764D01*
X171653Y168504D02*
X175591D01*
X173622Y166535D02*
Y170473D01*
X176181Y141339D02*
Y162205D01*
X167913Y139764D02*
X174606D01*
X167913Y167323D02*
X171063D01*
X150197Y139764D02*
X156890D01*
X148622Y141339D02*
Y162205D01*
X153740Y167323D02*
X156890D01*
D62*
X199474Y41337D02*
X198162D01*
X198818D01*
Y38058D01*
X198162Y37402D01*
X197506D01*
X196850Y38058D01*
X200786Y41337D02*
X203410D01*
X202098D01*
Y37402D01*
X204722D02*
Y40025D01*
X206034Y41337D01*
X207346Y40025D01*
Y37402D01*
Y39369D01*
X204722D01*
X211281Y40681D02*
X210626Y41337D01*
X209314D01*
X208658Y40681D01*
Y38058D01*
X209314Y37402D01*
X210626D01*
X211281Y38058D01*
Y39369D01*
X209969D01*
X167323Y41337D02*
Y38058D01*
X167979Y37402D01*
X169291D01*
X169947Y38058D01*
Y41337D01*
X171259Y37402D02*
Y40025D01*
X172571Y41337D01*
X173882Y40025D01*
Y37402D01*
Y39369D01*
X171259D01*
X175194Y37402D02*
Y41337D01*
X177162D01*
X177818Y40681D01*
Y39369D01*
X177162Y38713D01*
X175194D01*
X176506D02*
X177818Y37402D01*
X179130Y41337D02*
X181754D01*
X180442D01*
Y37402D01*
X97244Y129134D02*
Y133070D01*
X99212D01*
X99868Y132414D01*
Y131102D01*
X99212Y130446D01*
X97244D01*
X98556D02*
X99868Y129134D01*
X103148Y133070D02*
X101836D01*
X101180Y132414D01*
Y129790D01*
X101836Y129134D01*
X103148D01*
X103804Y129790D01*
Y132414D01*
X103148Y133070D01*
X105116D02*
Y129134D01*
X107739D01*
X111675D02*
X109051D01*
X111675Y131758D01*
Y132414D01*
X111019Y133070D01*
X109707D01*
X109051Y132414D01*
X112987Y131102D02*
X115611D01*
X119547Y132414D02*
X118891Y133070D01*
X117579D01*
X116923Y132414D01*
Y129790D01*
X117579Y129134D01*
X118891D01*
X119547Y129790D01*
X120859Y129134D02*
X122170D01*
X121514D01*
Y133070D01*
X120859Y132414D01*
X88451Y143306D02*
X85827D01*
Y141338D01*
X87139D01*
X85827D01*
Y139370D01*
X89763Y141994D02*
Y139370D01*
Y140682D01*
X90418Y141338D01*
X91074Y141994D01*
X91730D01*
X94354D02*
X95666D01*
X96322Y141338D01*
Y139370D01*
X94354D01*
X93698Y140026D01*
X94354Y140682D01*
X96322D01*
X100258Y141994D02*
X98290D01*
X97634Y141338D01*
Y140026D01*
X98290Y139370D01*
X100258D01*
X102226Y142650D02*
Y141994D01*
X101570D01*
X102882D01*
X102226D01*
Y140026D01*
X102882Y139370D01*
X105506Y141994D02*
X106817D01*
X107473Y141338D01*
Y139370D01*
X105506D01*
X104850Y140026D01*
X105506Y140682D01*
X107473D01*
X108785Y139370D02*
X110097D01*
X109441D01*
Y143306D01*
X108785D01*
X114689Y142650D02*
X114033Y143306D01*
X112721D01*
X112065Y142650D01*
Y141994D01*
X112721Y141338D01*
X114033D01*
X114689Y140682D01*
Y140026D01*
X114033Y139370D01*
X112721D01*
X112065Y140026D01*
X116001Y141994D02*
Y140026D01*
X116657Y139370D01*
X118625D01*
Y138714D01*
X117969Y138058D01*
X117313D01*
X118625Y139370D02*
Y141994D01*
X119937Y139370D02*
X121904D01*
X122560Y140026D01*
X121904Y140682D01*
X120592D01*
X119937Y141338D01*
X120592Y141994D01*
X122560D01*
X124528Y142650D02*
Y141994D01*
X123872D01*
X125184D01*
X124528D01*
Y140026D01*
X125184Y139370D01*
X129120D02*
X127808D01*
X127152Y140026D01*
Y141338D01*
X127808Y141994D01*
X129120D01*
X129776Y141338D01*
Y140682D01*
X127152D01*
X131088Y139370D02*
Y141994D01*
X131744D01*
X132400Y141338D01*
Y139370D01*
Y141338D01*
X133056Y141994D01*
X133712Y141338D01*
Y139370D01*
X135023D02*
X136991D01*
X137647Y140026D01*
X136991Y140682D01*
X135679D01*
X135023Y141338D01*
X135679Y141994D01*
X137647D01*
D63*
X101181Y64272D02*
D03*
M02*
