M48
;Layer_Color=9474304
;FILE_FORMAT=2:5
INCH,LZ
;TYPE=PLATED
T1F00S00C0.01181
T2F00S00C0.01575
T3F00S00C0.03150
T4F00S00C0.03543
T5F00S00C0.04724
%
T01
X0173425Y0043504
X0181102Y003622
X0185236Y0037303
X0190157Y0036713
X0196752Y0033366
X0200295Y0029528
X0203346Y0042224
X0211221Y005
X020748Y0054724
X0218701Y0058661
X0225098Y0075098
X0221457Y0083957
X0216142Y0094784
X0219685Y0098721
X0208661Y0103543
X0204724
X0200787
X0177461Y0100492
X018061Y0077854
X0179626Y0074016
X0182298Y0065833
X0185728Y0062205
X0192028Y0064623
X0198228Y0072933
X0190551Y0080807
X0186122Y0081299
X0246063Y0069685
X0253012Y0052618
Y0047618
X0226772Y0042126
X0218996Y0027657
X0225197Y0017717
X0231201Y001752
X0239764Y002874
X0244882Y0099114
X0168954Y0087697
X016565Y0084842
X0158169Y0065354
X015748Y0056595
X0157087Y004685
Y0030315
X0144291Y0051673
X0151083Y0067913
X0146555Y0103445
X0154429Y0104823
X0060236Y0060236
X0065354Y0046063
X002815Y0052165
X0111319Y0007776
X0167028Y0124803
X0172244Y0127756
X0175492Y0127854
X0174803Y0118996
X0171752
X019439Y0127756
X0197343
X0193504Y0145177
X0191634Y0158465
X0237008Y0181595
X0246654Y0181299
X0242618Y0203248
X0229921Y0197898
X0244094Y0112795
T02
X0122047Y0167323
Y0175197
T03
X0246457Y0079055
Y0084055
Y0089055
X0124094Y0096378
Y0080378
Y0070378
Y0060378
Y0045866
Y0035866
Y0025866
Y0015866
X0094095
Y0025866
Y0035866
Y0045866
Y0060378
Y0070378
Y0080378
Y0096378
X0044094
Y0080378
Y0070378
Y0060378
Y0045748
Y0035748
Y0025748
Y0015748
X0014095
Y0025748
Y0035748
Y0045748
Y0060378
Y0070378
Y0080378
Y0096378
Y0106378
Y0116378
X0044094
Y0106378
X0094095
Y0116378
X0124094
Y0106378
T04
X0218268Y0136575
Y0146575
Y0156575
Y0166575
X0248268
Y0156575
Y0146575
Y0136575
T05
X0022441Y0183858
X0037441
X0052441
X0067441
X0082441
X0097441
X0177165Y0183858
X0192165
X0207165
X0222165
M30
