%FSLAX25Y25*%
%MOIN*%
G70*
G01*
G75*
G04 Layer_Color=65535*
%ADD10R,0.10039X0.07677*%
%ADD11R,0.05512X0.04331*%
%ADD12R,0.07087X0.08268*%
%ADD13R,0.04331X0.02362*%
%ADD14R,0.24410X0.22835*%
%ADD15R,0.11811X0.06299*%
%ADD16R,0.04331X0.05512*%
G04:AMPARAMS|DCode=17|XSize=9.84mil|YSize=70.87mil|CornerRadius=0mil|HoleSize=0mil|Usage=FLASHONLY|Rotation=135.000|XOffset=0mil|YOffset=0mil|HoleType=Round|Shape=Round|*
%AMOVALD17*
21,1,0.06102,0.00984,0.00000,0.00000,225.0*
1,1,0.00984,0.02158,0.02158*
1,1,0.00984,-0.02158,-0.02158*
%
%ADD17OVALD17*%

G04:AMPARAMS|DCode=18|XSize=9.84mil|YSize=70.87mil|CornerRadius=0mil|HoleSize=0mil|Usage=FLASHONLY|Rotation=45.000|XOffset=0mil|YOffset=0mil|HoleType=Round|Shape=Round|*
%AMOVALD18*
21,1,0.06102,0.00984,0.00000,0.00000,135.0*
1,1,0.00984,0.02158,-0.02158*
1,1,0.00984,-0.02158,0.02158*
%
%ADD18OVALD18*%

%ADD19R,0.07087X0.09055*%
%ADD20R,0.02362X0.11811*%
%ADD21O,0.08661X0.02362*%
%ADD22R,0.02756X0.03150*%
%ADD23R,0.06000X0.07000*%
%ADD24R,0.06299X0.12598*%
%ADD25C,0.01181*%
%ADD26C,0.01969*%
%ADD27C,0.01575*%
%ADD28C,0.00984*%
%ADD29C,0.01500*%
%ADD30C,0.07874*%
%ADD31C,0.03937*%
%ADD32C,0.07480*%
%ADD33C,0.06000*%
%ADD34O,0.07874X0.03937*%
%ADD35O,0.07874X0.03937*%
%ADD36C,0.05906*%
%ADD37R,0.05906X0.05906*%
%ADD38C,0.02362*%
%ADD39C,0.05000*%
G04:AMPARAMS|DCode=40|XSize=23.62mil|YSize=23.62mil|CornerRadius=1.18mil|HoleSize=0mil|Usage=FLASHONLY|Rotation=90.000|XOffset=0mil|YOffset=0mil|HoleType=Round|Shape=RoundedRectangle|*
%AMROUNDEDRECTD40*
21,1,0.02362,0.02126,0,0,90.0*
21,1,0.02126,0.02362,0,0,90.0*
1,1,0.00236,0.01063,0.01063*
1,1,0.00236,0.01063,-0.01063*
1,1,0.00236,-0.01063,-0.01063*
1,1,0.00236,-0.01063,0.01063*
%
%ADD40ROUNDEDRECTD40*%
%ADD41R,0.04600X0.04600*%
%ADD42R,0.07480X0.04331*%
%ADD43C,0.03150*%
%ADD44C,0.02362*%
%ADD45C,0.00787*%
%ADD46C,0.00394*%
%ADD47C,0.00591*%
%ADD48C,0.00800*%
%ADD49C,0.01000*%
%ADD50C,0.00669*%
D27*
X237402Y48425D02*
G03*
X237402Y48425I-787J0D01*
G01*
D28*
X180413Y134843D02*
G03*
X180413Y134843I-492J0D01*
G01*
X55216Y135276D02*
G03*
X55216Y135276I-492J0D01*
G01*
X95374Y163937D02*
G03*
X95374Y163937I-492J0D01*
G01*
X167605Y71164D02*
G03*
X167605Y71164I-492J0D01*
G01*
X246161Y44272D02*
G03*
X246161Y44272I-492J0D01*
G01*
X248760Y131457D02*
G03*
X248760Y131457I-492J0D01*
G01*
D44*
X179430Y72835D02*
G03*
X179430Y72835I-1181J0D01*
G01*
X240945Y135433D02*
G03*
X240945Y135433I-1181J0D01*
G01*
D45*
X240155Y75989D02*
G03*
X240155Y92121I6302J8066D01*
G01*
X235768Y131496D02*
G03*
X230768Y131496I-2500J0D01*
G01*
X187598Y105217D02*
Y115551D01*
X10441Y183858D02*
X15441D01*
X104441D02*
X109441D01*
X183661Y133858D02*
X185630D01*
X183661Y121653D02*
X185630D01*
X183661D02*
Y133858D01*
X185630Y121653D02*
Y133858D01*
X39185Y162480D02*
X43701D01*
Y136732D02*
Y162480D01*
X39185Y136732D02*
X43701D01*
X105905D02*
X110421D01*
X105905D02*
Y162480D01*
X110421D01*
X172681Y72835D02*
X187992Y57523D01*
Y88146D02*
X203304Y72835D01*
X172681D02*
X187992Y88146D01*
Y57523D02*
X203304Y72835D01*
X239764Y45276D02*
Y64961D01*
X232677Y45276D02*
Y64961D01*
Y45276D02*
X239764D01*
X232677Y64961D02*
X239764D01*
X240158Y75989D02*
Y92121D01*
X222835Y171654D02*
X243701D01*
X222835Y131496D02*
X230768Y131496D01*
X235768D02*
X243701Y131496D01*
X222835D02*
Y171654D01*
X243701Y131496D02*
Y171654D01*
X165165Y183858D02*
X170165D01*
X229165D02*
X234165D01*
D46*
X200689Y125295D02*
X212894D01*
X200689Y106004D02*
Y125295D01*
Y106004D02*
X212894D01*
Y125295D01*
X196260Y133760D02*
X203346D01*
Y148327D01*
X196260Y148327D02*
X203346Y148327D01*
X196260Y133760D02*
Y148327D01*
X227756Y91634D02*
X234842D01*
X227756Y77067D02*
Y91634D01*
Y77067D02*
X234842D01*
X234842Y91634D02*
X234842Y77067D01*
X144980Y18602D02*
Y33760D01*
X153051D01*
Y18602D02*
Y33760D01*
X144980Y18602D02*
X153051D01*
X61319Y12500D02*
Y27657D01*
X69390D01*
Y12500D02*
Y27657D01*
X61319Y12500D02*
X69390D01*
X61319Y29035D02*
Y44193D01*
X69390D01*
Y29035D02*
Y44193D01*
X61319Y29035D02*
X69390D01*
X58760Y76279D02*
Y91437D01*
X50689Y76279D02*
X58760D01*
X50689D02*
Y91437D01*
X58760D01*
X86713Y56398D02*
Y71555D01*
X78642Y56398D02*
X86713D01*
X78642D02*
Y71555D01*
X86713D01*
X150984Y114764D02*
X166142Y114764D01*
Y106693D02*
Y114764D01*
X150984Y106693D02*
X166142Y106693D01*
X150984Y106693D02*
Y114764D01*
X143110Y106693D02*
X158268Y106693D01*
X143110Y106693D02*
Y114764D01*
X158268Y114764D01*
Y106693D02*
Y114764D01*
X154626Y83169D02*
X161713D01*
X154626Y68602D02*
Y83169D01*
Y68602D02*
X161713Y68602D01*
Y83169D01*
X162008Y46063D02*
Y53150D01*
Y46063D02*
X176575D01*
Y53150D01*
X162008D02*
X176575D01*
X213189Y63779D02*
X220276D01*
Y78347D01*
X213189Y78347D02*
X220276Y78347D01*
X213189Y63779D02*
Y78347D01*
X196161Y162500D02*
X211319D01*
Y154429D02*
Y162500D01*
X196161Y154429D02*
X211319D01*
X196161D02*
Y162500D01*
X191831Y164764D02*
Y173819D01*
Y164764D02*
X211811D01*
Y173819D01*
X191831D02*
X211811D01*
X158465Y198523D02*
Y196555D01*
Y197211D01*
X159776Y198523D01*
X158793Y197539D01*
X159776Y196555D01*
X160432D02*
X161088D01*
X160760D01*
Y198523D01*
X160432Y198195D01*
X197795Y152534D02*
X197467Y152862D01*
X196811D01*
X196484Y152534D01*
Y151223D01*
X196811Y150894D01*
X197467D01*
X197795Y151223D01*
X198451Y152534D02*
X198779Y152862D01*
X199435D01*
X199763Y152534D01*
Y152206D01*
X199435Y151878D01*
X199107D01*
X199435D01*
X199763Y151550D01*
Y151223D01*
X199435Y150894D01*
X198779D01*
X198451Y151223D01*
X162828Y173293D02*
X162500Y173621D01*
X161844D01*
X161516Y173293D01*
Y171982D01*
X161844Y171653D01*
X162500D01*
X162828Y171982D01*
X164468Y171653D02*
Y173621D01*
X163484Y172637D01*
X164795D01*
X157119Y86679D02*
X156791Y87007D01*
X156135D01*
X155807Y86679D01*
Y85367D01*
X156135Y85039D01*
X156791D01*
X157119Y85367D01*
X157775D02*
X158103Y85039D01*
X158759D01*
X159087Y85367D01*
Y86679D01*
X158759Y87007D01*
X158103D01*
X157775Y86679D01*
Y86351D01*
X158103Y86023D01*
X159087D01*
X167355Y44160D02*
X167027Y44488D01*
X166371D01*
X166043Y44160D01*
Y42848D01*
X166371Y42520D01*
X167027D01*
X167355Y42848D01*
X168011Y42520D02*
X168667D01*
X168339D01*
Y44488D01*
X168011Y44160D01*
X169651D02*
X169979Y44488D01*
X170635D01*
X170963Y44160D01*
Y42848D01*
X170635Y42520D01*
X169979D01*
X169651Y42848D01*
Y44160D01*
X215682Y81758D02*
X215354Y82086D01*
X214698D01*
X214370Y81758D01*
Y80446D01*
X214698Y80118D01*
X215354D01*
X215682Y80446D01*
X216338Y80118D02*
X216994D01*
X216666D01*
Y82086D01*
X216338Y81758D01*
X217978Y80118D02*
X218634D01*
X218306D01*
Y82086D01*
X217978Y81758D01*
X229247Y95837D02*
X228919Y96166D01*
X228263D01*
X227935Y95837D01*
Y94526D01*
X228263Y94198D01*
X228919D01*
X229247Y94526D01*
X229903Y94198D02*
X230558D01*
X230230D01*
Y96166D01*
X229903Y95837D01*
X232854Y96166D02*
X231542D01*
Y95182D01*
X232198Y95509D01*
X232526D01*
X232854Y95182D01*
Y94526D01*
X232526Y94198D01*
X231870D01*
X231542Y94526D01*
X170628Y121097D02*
Y119129D01*
X171612D01*
X171940Y119457D01*
Y120769D01*
X171612Y121097D01*
X170628D01*
X173908Y119129D02*
X172596D01*
X173908Y120441D01*
Y120769D01*
X173580Y121097D01*
X172924D01*
X172596Y120769D01*
X164961Y7086D02*
Y5118D01*
Y5774D01*
X166272Y7086D01*
X165289Y6102D01*
X166272Y5118D01*
X166929Y6758D02*
X167256Y7086D01*
X167912D01*
X168240Y6758D01*
Y6430D01*
X167912Y6102D01*
X167584D01*
X167912D01*
X168240Y5774D01*
Y5446D01*
X167912Y5118D01*
X167256D01*
X166929Y5446D01*
X218898Y7283D02*
Y5315D01*
Y5971D01*
X220210Y7283D01*
X219226Y6299D01*
X220210Y5315D01*
X221849D02*
Y7283D01*
X220866Y6299D01*
X222177D01*
X115059Y200196D02*
Y198228D01*
Y198884D01*
X116371Y200196D01*
X115387Y199212D01*
X116371Y198228D01*
X118339Y200196D02*
X117027D01*
Y199212D01*
X117683Y199540D01*
X118011D01*
X118339Y199212D01*
Y198556D01*
X118011Y198228D01*
X117355D01*
X117027Y198556D01*
X204035Y129133D02*
Y127165D01*
X205347D01*
X206003D02*
X206659D01*
X206331D01*
Y129133D01*
X206003Y128805D01*
X252067Y105806D02*
Y103839D01*
X253379D01*
X254035Y105806D02*
Y103839D01*
X255019D01*
X255347Y104167D01*
Y105479D01*
X255019Y105806D01*
X254035D01*
X256003Y103839D02*
X256659D01*
X256331D01*
Y105806D01*
X256003Y105479D01*
X252165Y120964D02*
Y118996D01*
X253477D01*
X254133Y120964D02*
Y118996D01*
X255117D01*
X255445Y119324D01*
Y120636D01*
X255117Y120964D01*
X254133D01*
X257413Y118996D02*
X256101D01*
X257413Y120308D01*
Y120636D01*
X257085Y120964D01*
X256429D01*
X256101Y120636D01*
X199311Y175984D02*
Y177952D01*
X200295D01*
X200623Y177624D01*
Y176968D01*
X200295Y176640D01*
X199311D01*
X199967D02*
X200623Y175984D01*
X201279Y177624D02*
X201607Y177952D01*
X202263D01*
X202591Y177624D01*
Y177296D01*
X202263Y176968D01*
X202591Y176640D01*
Y176312D01*
X202263Y175984D01*
X201607D01*
X201279Y176312D01*
Y176640D01*
X201607Y176968D01*
X201279Y177296D01*
Y177624D01*
X201607Y176968D02*
X202263D01*
X207087Y150886D02*
Y152854D01*
X208070D01*
X208399Y152526D01*
Y151870D01*
X208070Y151542D01*
X207087D01*
X207743D02*
X208399Y150886D01*
X209054Y151214D02*
X209383Y150886D01*
X210038D01*
X210366Y151214D01*
Y152526D01*
X210038Y152854D01*
X209383D01*
X209054Y152526D01*
Y152198D01*
X209383Y151870D01*
X210366D01*
X145079Y117126D02*
Y119094D01*
X146063D01*
X146391Y118766D01*
Y118110D01*
X146063Y117782D01*
X145079D01*
X145735D02*
X146391Y117126D01*
X147047D02*
X147703D01*
X147375D01*
Y119094D01*
X147047Y118766D01*
X148687D02*
X149014Y119094D01*
X149670D01*
X149998Y118766D01*
Y118438D01*
X149670Y118110D01*
X149342D01*
X149670D01*
X149998Y117782D01*
Y117454D01*
X149670Y117126D01*
X149014D01*
X148687Y117454D01*
X145191Y36358D02*
Y38326D01*
X146175D01*
X146503Y37998D01*
Y37342D01*
X146175Y37014D01*
X145191D01*
X145847D02*
X146503Y36358D01*
X147159D02*
X147815D01*
X147487D01*
Y38326D01*
X147159Y37998D01*
X149783Y36358D02*
Y38326D01*
X148799Y37342D01*
X150111D01*
X158563Y116831D02*
Y118799D01*
X159547D01*
X159875Y118471D01*
Y117815D01*
X159547Y117487D01*
X158563D01*
X159219D02*
X159875Y116831D01*
X160531D02*
X161187D01*
X160859D01*
Y118799D01*
X160531Y118471D01*
X163483Y118799D02*
X162171D01*
Y117815D01*
X162827Y118143D01*
X163155D01*
X163483Y117815D01*
Y117159D01*
X163155Y116831D01*
X162499D01*
X162171Y117159D01*
X71358Y35630D02*
Y37598D01*
X72342D01*
X72670Y37270D01*
Y36614D01*
X72342Y36286D01*
X71358D01*
X72014D02*
X72670Y35630D01*
X74638D02*
X73326D01*
X74638Y36942D01*
Y37270D01*
X74310Y37598D01*
X73654D01*
X73326Y37270D01*
X75294Y35630D02*
X75950D01*
X75622D01*
Y37598D01*
X75294Y37270D01*
X71752Y18799D02*
Y20767D01*
X72736D01*
X73064Y20439D01*
Y19783D01*
X72736Y19455D01*
X71752D01*
X72408D02*
X73064Y18799D01*
X75032D02*
X73720D01*
X75032Y20111D01*
Y20439D01*
X74704Y20767D01*
X74048D01*
X73720Y20439D01*
X77000Y18799D02*
X75688D01*
X77000Y20111D01*
Y20439D01*
X76672Y20767D01*
X76016D01*
X75688Y20439D01*
X60433Y82677D02*
Y84645D01*
X61417D01*
X61745Y84317D01*
Y83661D01*
X61417Y83333D01*
X60433D01*
X61089D02*
X61745Y82677D01*
X63713D02*
X62401D01*
X63713Y83989D01*
Y84317D01*
X63385Y84645D01*
X62729D01*
X62401Y84317D01*
X65353Y82677D02*
Y84645D01*
X64369Y83661D01*
X65681D01*
X71457Y63583D02*
Y65551D01*
X72441D01*
X72769Y65223D01*
Y64567D01*
X72441Y64239D01*
X71457D01*
X72113D02*
X72769Y63583D01*
X73425Y65223D02*
X73752Y65551D01*
X74409D01*
X74736Y65223D01*
Y64895D01*
X74409Y64567D01*
X74080D01*
X74409D01*
X74736Y64239D01*
Y63911D01*
X74409Y63583D01*
X73752D01*
X73425Y63911D01*
X75392Y65223D02*
X75720Y65551D01*
X76376D01*
X76704Y65223D01*
Y63911D01*
X76376Y63583D01*
X75720D01*
X75392Y63911D01*
Y65223D01*
X231988Y128740D02*
Y127100D01*
X232316Y126772D01*
X232972D01*
X233300Y127100D01*
Y128740D01*
X233956Y126772D02*
X234612D01*
X234284D01*
Y128740D01*
X233956Y128411D01*
X186614Y98326D02*
Y96686D01*
X186942Y96358D01*
X187598D01*
X187926Y96686D01*
Y98326D01*
X189894Y96358D02*
X188582D01*
X189894Y97670D01*
Y97998D01*
X189566Y98326D01*
X188910D01*
X188582Y97998D01*
X177090Y140170D02*
Y138530D01*
X177418Y138202D01*
X178074D01*
X178402Y138530D01*
Y140170D01*
X179058Y139842D02*
X179386Y140170D01*
X180042D01*
X180369Y139842D01*
Y139514D01*
X180042Y139186D01*
X179714D01*
X180042D01*
X180369Y138858D01*
Y138530D01*
X180042Y138202D01*
X179386D01*
X179058Y138530D01*
X246850Y41240D02*
Y39600D01*
X247178Y39272D01*
X247834D01*
X248162Y39600D01*
Y41240D01*
X249802Y39272D02*
Y41240D01*
X248818Y40256D01*
X250130D01*
X252461Y97243D02*
Y95604D01*
X252789Y95276D01*
X253445D01*
X253772Y95604D01*
Y97243D01*
X255740D02*
X254429D01*
Y96259D01*
X255084Y96588D01*
X255412D01*
X255740Y96259D01*
Y95604D01*
X255412Y95276D01*
X254756D01*
X254429Y95604D01*
X26870Y125984D02*
Y124344D01*
X27198Y124016D01*
X27854D01*
X28182Y124344D01*
Y125984D01*
X30150D02*
X29494Y125656D01*
X28838Y125000D01*
Y124344D01*
X29166Y124016D01*
X29822D01*
X30150Y124344D01*
Y124672D01*
X29822Y125000D01*
X28838D01*
X27461Y8464D02*
Y6824D01*
X27789Y6496D01*
X28445D01*
X28773Y6824D01*
Y8464D01*
X29428D02*
X30740D01*
Y8136D01*
X29428Y6824D01*
Y6496D01*
X49213Y67125D02*
Y65486D01*
X49541Y65158D01*
X50196D01*
X50524Y65486D01*
Y67125D01*
X51180Y66797D02*
X51508Y67125D01*
X52164D01*
X52492Y66797D01*
Y66469D01*
X52164Y66141D01*
X52492Y65813D01*
Y65486D01*
X52164Y65158D01*
X51508D01*
X51180Y65486D01*
Y65813D01*
X51508Y66141D01*
X51180Y66469D01*
Y66797D01*
X51508Y66141D02*
X52164D01*
X106595Y126673D02*
Y125033D01*
X106922Y124705D01*
X107578D01*
X107906Y125033D01*
Y126673D01*
X108562Y125033D02*
X108890Y124705D01*
X109546D01*
X109874Y125033D01*
Y126345D01*
X109546Y126673D01*
X108890D01*
X108562Y126345D01*
Y126017D01*
X108890Y125689D01*
X109874D01*
X117520Y7873D02*
Y6233D01*
X117848Y5906D01*
X118504D01*
X118832Y6233D01*
Y7873D01*
X119488Y5906D02*
X120143D01*
X119816D01*
Y7873D01*
X119488Y7545D01*
X121127D02*
X121455Y7873D01*
X122111D01*
X122439Y7545D01*
Y6233D01*
X122111Y5906D01*
X121455D01*
X121127Y6233D01*
Y7545D01*
X84744Y82184D02*
Y80545D01*
X85072Y80216D01*
X85728D01*
X86056Y80545D01*
Y82184D01*
X86712Y80216D02*
X87368D01*
X87040D01*
Y82184D01*
X86712Y81856D01*
X88352Y80216D02*
X89008D01*
X88680D01*
Y82184D01*
X88352Y81856D01*
X32677Y168700D02*
X33989D01*
X33333D01*
Y166732D01*
X34645D02*
Y168700D01*
X35629D01*
X35957Y168372D01*
Y167716D01*
X35629Y167388D01*
X34645D01*
X35301D02*
X35957Y166732D01*
X37925D02*
X36613D01*
X37925Y168044D01*
Y168372D01*
X37597Y168700D01*
X36941D01*
X36613Y168372D01*
X110630Y167716D02*
X111942D01*
X111286D01*
Y165748D01*
X112598D02*
Y167716D01*
X113582D01*
X113910Y167388D01*
Y166732D01*
X113582Y166404D01*
X112598D01*
X113254D02*
X113910Y165748D01*
X115550D02*
Y167716D01*
X114566Y166732D01*
X115877D01*
D47*
X174114Y115650D02*
X192224D01*
X174114Y105118D02*
X192224D01*
X250492Y102953D02*
X250492Y105709D01*
Y118701D02*
Y121457D01*
X158465Y164173D02*
X163583Y169291D01*
X180905D02*
X186024Y164173D01*
X184449Y141732D02*
X186024Y143307D01*
X158465D02*
X160039Y141732D01*
X181496Y170472D02*
X185433D01*
X183465Y168504D02*
Y172441D01*
X186024Y143307D02*
Y164173D01*
X177756Y141732D02*
X184449D01*
X177756Y169291D02*
X180905D01*
X160039Y141732D02*
X166732D01*
X158465Y143307D02*
Y164173D01*
X163583Y169291D02*
X166732D01*
D48*
X10441Y183858D02*
Y203346D01*
X109441Y183858D02*
Y202756D01*
X19094Y10748D02*
X39094D01*
X29094Y15748D02*
X34095Y10748D01*
X24094D02*
X29094Y15748D01*
X19094Y50748D02*
X39094D01*
X19094Y10748D02*
Y50748D01*
X39094Y10748D02*
Y50748D01*
X19094Y54394D02*
Y85378D01*
X39094Y54394D02*
Y85378D01*
X19094Y54394D02*
X39094D01*
X29094Y80378D02*
X34095Y85378D01*
X24094D02*
X29094Y80378D01*
X19094Y85378D02*
X39094D01*
X19094Y90394D02*
Y121378D01*
X39094Y90394D02*
Y121378D01*
X19094Y90394D02*
X39094D01*
X29094Y116378D02*
X34095Y121378D01*
X24094D02*
X29094Y116378D01*
X19094Y121378D02*
X39094D01*
X119095Y91378D02*
Y122362D01*
X99094Y91378D02*
Y122362D01*
X119095D01*
X104095Y91378D02*
X109095Y96378D01*
X114094Y91378D01*
X99094D02*
X119095D01*
Y55378D02*
Y86362D01*
X99094Y55378D02*
Y86362D01*
X119095D01*
X104095Y55378D02*
X109095Y60378D01*
X114094Y55378D01*
X99094D02*
X119095D01*
X99094Y50866D02*
X119095D01*
X104095D02*
X109095Y45866D01*
X114094Y50866D01*
X99094Y10866D02*
X119095D01*
Y50866D01*
X99094Y10866D02*
Y50866D01*
X165165Y183858D02*
Y202165D01*
X234165Y183858D02*
Y202067D01*
D49*
X164567Y35433D02*
X201575D01*
Y9843D02*
Y35433D01*
X164567Y9843D02*
Y35433D01*
Y9843D02*
X201575D01*
X210827Y35433D02*
X247835D01*
Y9843D02*
Y35433D01*
X210827Y9843D02*
Y35433D01*
Y9843D02*
X247835D01*
D50*
X41206Y175491D02*
X38583D01*
Y173523D01*
X39895D01*
X38583D01*
Y171555D01*
X42518Y174179D02*
Y171555D01*
Y172867D01*
X43174Y173523D01*
X43830Y174179D01*
X44486D01*
X47110D02*
X48422D01*
X49078Y173523D01*
Y171555D01*
X47110D01*
X46454Y172211D01*
X47110Y172867D01*
X49078D01*
X53014Y174179D02*
X51046D01*
X50390Y173523D01*
Y172211D01*
X51046Y171555D01*
X53014D01*
X54982Y174835D02*
Y174179D01*
X54326D01*
X55638D01*
X54982D01*
Y172211D01*
X55638Y171555D01*
X58261Y174179D02*
X59573D01*
X60229Y173523D01*
Y171555D01*
X58261D01*
X57605Y172211D01*
X58261Y172867D01*
X60229D01*
X61541Y171555D02*
X62853D01*
X62197D01*
Y175491D01*
X61541D01*
X67445Y174835D02*
X66789Y175491D01*
X65477D01*
X64821Y174835D01*
Y174179D01*
X65477Y173523D01*
X66789D01*
X67445Y172867D01*
Y172211D01*
X66789Y171555D01*
X65477D01*
X64821Y172211D01*
X68757Y174179D02*
Y172211D01*
X69413Y171555D01*
X71381D01*
Y170899D01*
X70724Y170243D01*
X70069D01*
X71381Y171555D02*
Y174179D01*
X72692Y171555D02*
X74660D01*
X75316Y172211D01*
X74660Y172867D01*
X73348D01*
X72692Y173523D01*
X73348Y174179D01*
X75316D01*
X77284Y174835D02*
Y174179D01*
X76628D01*
X77940D01*
X77284D01*
Y172211D01*
X77940Y171555D01*
X81876D02*
X80564D01*
X79908Y172211D01*
Y173523D01*
X80564Y174179D01*
X81876D01*
X82532Y173523D01*
Y172867D01*
X79908D01*
X83844Y171555D02*
Y174179D01*
X84500D01*
X85156Y173523D01*
Y171555D01*
Y173523D01*
X85812Y174179D01*
X86467Y173523D01*
Y171555D01*
X87779D02*
X89747D01*
X90403Y172211D01*
X89747Y172867D01*
X88435D01*
X87779Y173523D01*
X88435Y174179D01*
X90403D01*
M02*
