%FSLAX25Y25*%
%MOIN*%
G70*
G01*
G75*
G04 Layer_Color=32896*
%ADD10R,0.10039X0.07677*%
%ADD11R,0.05512X0.04331*%
%ADD12R,0.07087X0.08268*%
%ADD13R,0.04331X0.02362*%
%ADD14R,0.24410X0.22835*%
%ADD15R,0.11811X0.06299*%
%ADD16R,0.04331X0.05512*%
G04:AMPARAMS|DCode=17|XSize=9.84mil|YSize=70.87mil|CornerRadius=0mil|HoleSize=0mil|Usage=FLASHONLY|Rotation=135.000|XOffset=0mil|YOffset=0mil|HoleType=Round|Shape=Round|*
%AMOVALD17*
21,1,0.06102,0.00984,0.00000,0.00000,225.0*
1,1,0.00984,0.02158,0.02158*
1,1,0.00984,-0.02158,-0.02158*
%
%ADD17OVALD17*%

G04:AMPARAMS|DCode=18|XSize=9.84mil|YSize=70.87mil|CornerRadius=0mil|HoleSize=0mil|Usage=FLASHONLY|Rotation=45.000|XOffset=0mil|YOffset=0mil|HoleType=Round|Shape=Round|*
%AMOVALD18*
21,1,0.06102,0.00984,0.00000,0.00000,135.0*
1,1,0.00984,0.02158,-0.02158*
1,1,0.00984,-0.02158,0.02158*
%
%ADD18OVALD18*%

%ADD19R,0.07087X0.09055*%
%ADD20R,0.02362X0.11811*%
%ADD21O,0.08661X0.02362*%
%ADD22R,0.02756X0.03150*%
%ADD23R,0.06000X0.07000*%
%ADD24R,0.06299X0.12598*%
%ADD25C,0.01181*%
%ADD26C,0.01969*%
%ADD27C,0.01575*%
%ADD28C,0.00984*%
%ADD29C,0.01500*%
%ADD30C,0.07874*%
%ADD31C,0.03937*%
%ADD32C,0.07480*%
%ADD33C,0.06000*%
%ADD34O,0.07874X0.03937*%
%ADD35O,0.07874X0.03937*%
%ADD36C,0.05906*%
%ADD37R,0.05906X0.05906*%
%ADD38C,0.02362*%
%ADD39C,0.05000*%
G04:AMPARAMS|DCode=40|XSize=23.62mil|YSize=23.62mil|CornerRadius=1.18mil|HoleSize=0mil|Usage=FLASHONLY|Rotation=90.000|XOffset=0mil|YOffset=0mil|HoleType=Round|Shape=RoundedRectangle|*
%AMROUNDEDRECTD40*
21,1,0.02362,0.02126,0,0,90.0*
21,1,0.02126,0.02362,0,0,90.0*
1,1,0.00236,0.01063,0.01063*
1,1,0.00236,0.01063,-0.01063*
1,1,0.00236,-0.01063,-0.01063*
1,1,0.00236,-0.01063,0.01063*
%
%ADD40ROUNDEDRECTD40*%
%ADD41R,0.04600X0.04600*%
%ADD42R,0.07480X0.04331*%
%ADD43C,0.03150*%
%ADD44C,0.02362*%
%ADD45C,0.00787*%
%ADD46C,0.00394*%
%ADD47C,0.00591*%
%ADD48C,0.00800*%
%ADD49C,0.01000*%
%ADD50C,0.00669*%
%ADD51R,0.10827X0.08465*%
%ADD52R,0.06299X0.05118*%
%ADD53R,0.07874X0.09055*%
%ADD54R,0.05118X0.03150*%
%ADD55R,0.25197X0.23622*%
%ADD56R,0.12598X0.07087*%
%ADD57R,0.05118X0.06299*%
G04:AMPARAMS|DCode=58|XSize=17.72mil|YSize=78.74mil|CornerRadius=0mil|HoleSize=0mil|Usage=FLASHONLY|Rotation=135.000|XOffset=0mil|YOffset=0mil|HoleType=Round|Shape=Round|*
%AMOVALD58*
21,1,0.06102,0.01772,0.00000,0.00000,225.0*
1,1,0.01772,0.02158,0.02158*
1,1,0.01772,-0.02158,-0.02158*
%
%ADD58OVALD58*%

G04:AMPARAMS|DCode=59|XSize=17.72mil|YSize=78.74mil|CornerRadius=0mil|HoleSize=0mil|Usage=FLASHONLY|Rotation=45.000|XOffset=0mil|YOffset=0mil|HoleType=Round|Shape=Round|*
%AMOVALD59*
21,1,0.06102,0.01772,0.00000,0.00000,135.0*
1,1,0.01772,0.02158,-0.02158*
1,1,0.01772,-0.02158,0.02158*
%
%ADD59OVALD59*%

%ADD60R,0.07874X0.09843*%
%ADD61R,0.03150X0.12598*%
%ADD62O,0.09449X0.03150*%
%ADD63R,0.03543X0.03937*%
%ADD64R,0.06787X0.07787*%
%ADD65R,0.07087X0.13386*%
%ADD66C,0.08268*%
%ADD67C,0.06787*%
%ADD68O,0.08661X0.04724*%
%ADD69O,0.08661X0.04724*%
%ADD70C,0.06693*%
%ADD71R,0.06693X0.06693*%
G04:AMPARAMS|DCode=72|XSize=31.5mil|YSize=31.5mil|CornerRadius=5.12mil|HoleSize=0mil|Usage=FLASHONLY|Rotation=90.000|XOffset=0mil|YOffset=0mil|HoleType=Round|Shape=RoundedRectangle|*
%AMROUNDEDRECTD72*
21,1,0.03150,0.02126,0,0,90.0*
21,1,0.02126,0.03150,0,0,90.0*
1,1,0.01024,0.01063,0.01063*
1,1,0.01024,0.01063,-0.01063*
1,1,0.01024,-0.01063,-0.01063*
1,1,0.01024,-0.01063,0.01063*
%
%ADD72ROUNDEDRECTD72*%
%ADD73R,0.05387X0.05387*%
%ADD74R,0.07880X0.04731*%
%ADD75R,0.01280X0.01083*%
%ADD76R,0.01280X0.01083*%
D28*
X95374Y135276D02*
G03*
X95374Y135276I-492J0D01*
G01*
X55216Y163937D02*
G03*
X55216Y163937I-492J0D01*
G01*
D45*
X105905Y162480D02*
X110421D01*
X105905Y136732D02*
Y162480D01*
Y136732D02*
X110421D01*
X39185D02*
X43701D01*
Y162480D01*
X39185D02*
X43701D01*
D46*
X234547Y101279D02*
X249705D01*
Y109350D01*
X234547D02*
X249705D01*
X234547Y101279D02*
Y109350D01*
X201575Y137402D02*
Y144882D01*
X196063Y137402D02*
Y144882D01*
X200689Y137402D02*
X201575D01*
X196063D02*
X196949D01*
X243012Y185335D02*
Y200492D01*
Y185335D02*
X251083D01*
Y200492D01*
X243012D02*
X251083D01*
X1870Y104626D02*
Y119783D01*
Y104626D02*
X9941D01*
Y119783D01*
X1870D02*
X9941D01*
X51083Y113484D02*
Y128642D01*
Y113484D02*
X59153D01*
Y128642D01*
X51083D02*
X59153D01*
X1870Y69193D02*
Y84350D01*
Y69193D02*
X9941D01*
Y84350D01*
X1870D02*
X9941D01*
X138878Y92815D02*
Y107972D01*
X130807D02*
X138878D01*
X130807Y92815D02*
Y107972D01*
Y92815D02*
X138878D01*
X78642D02*
Y107972D01*
Y92815D02*
X86713D01*
Y107972D01*
X78642D02*
X86713D01*
X138878Y56398D02*
Y71555D01*
X130807D02*
X138878D01*
X130807Y56398D02*
Y71555D01*
Y56398D02*
X138878D01*
X234154Y185335D02*
Y200492D01*
Y185335D02*
X242224D01*
Y200492D01*
X234154D02*
X242224D01*
X199705Y190256D02*
Y205413D01*
Y190256D02*
X207776D01*
Y205413D01*
X199705D02*
X207776D01*
X225689Y164272D02*
X240846D01*
Y172343D01*
X225689D02*
X240846D01*
X225689Y164272D02*
Y172343D01*
X233661Y158858D02*
X240748D01*
Y144291D02*
Y158858D01*
X233661Y144291D02*
X240748D01*
X233661D02*
Y158858D01*
X224803Y158858D02*
X231890Y158858D01*
Y144291D02*
Y158858D01*
X224803Y144291D02*
X231890Y144291D01*
X224803Y144291D02*
Y158858D01*
X225689Y138878D02*
X240846D01*
X225689Y130807D02*
Y138878D01*
Y130807D02*
X240846D01*
Y138878D01*
X234547Y115059D02*
X249705D01*
Y123130D01*
X234547D02*
X249705D01*
X234547Y115059D02*
Y123130D01*
X235335Y76772D02*
Y91929D01*
X227264D02*
X235335D01*
X227264Y76772D02*
Y91929D01*
Y76772D02*
X235335D01*
X244488Y59449D02*
Y66535D01*
X229921Y59449D02*
X244488D01*
X229921D02*
Y66535D01*
X244488D01*
X229626Y49114D02*
X244783D01*
Y57185D01*
X229626D02*
X244783D01*
X229626Y49114D02*
Y57185D01*
X229626Y40256D02*
X244783D01*
Y48327D01*
X229626D02*
X244783D01*
X229626Y40256D02*
Y48327D01*
X178445Y33563D02*
X193602D01*
X178445Y25492D02*
Y33563D01*
Y25492D02*
X193602D01*
Y33563D01*
X158169Y60138D02*
X168405D01*
X158169Y43602D02*
X168405D01*
X168405Y60138D02*
X168405Y43602D01*
X158169D02*
Y60138D01*
X141240Y53051D02*
Y60138D01*
X155807D01*
Y53051D02*
Y60138D01*
X141240Y53051D02*
X155807Y53051D01*
X141240Y43209D02*
Y50295D01*
X155807D01*
Y43209D02*
Y50295D01*
X141240Y43209D02*
X155807Y43209D01*
X69390Y12500D02*
Y27657D01*
X61319D02*
X69390D01*
X61319Y12500D02*
Y27657D01*
Y12500D02*
X69390D01*
Y29035D02*
Y44193D01*
X61319D02*
X69390D01*
X61319Y29035D02*
Y44193D01*
Y29035D02*
X69390D01*
X176378Y106496D02*
Y113583D01*
X190945D01*
Y106496D02*
Y113583D01*
X176378Y106496D02*
X190945D01*
X176378Y115354D02*
Y122441D01*
X190945D01*
Y115354D02*
Y122441D01*
X176378Y115354D02*
X190945D01*
X177461Y125197D02*
Y132283D01*
X192028D01*
Y125197D02*
Y132283D01*
X177461Y125197D02*
X192028D01*
X161417Y122441D02*
X168504D01*
Y107874D02*
Y122441D01*
X161417Y107874D02*
X168504D01*
X161417D02*
Y122441D01*
X151772Y107480D02*
X151772Y122638D01*
X151772Y107480D02*
X159843D01*
Y122638D01*
X151772D02*
X159843D01*
X152953Y135827D02*
X168110D01*
X152953Y127756D02*
Y135827D01*
Y127756D02*
X168110D01*
Y135827D01*
X216535Y189074D02*
Y187106D01*
X215551D01*
X215224Y187434D01*
Y188746D01*
X215551Y189074D01*
X216535D01*
X214568Y188746D02*
X214240Y189074D01*
X213584D01*
X213256Y188746D01*
Y188418D01*
X213584Y188090D01*
X213912D01*
X213584D01*
X213256Y187762D01*
Y187434D01*
X213584Y187106D01*
X214240D01*
X214568Y187434D01*
X228019Y162270D02*
X228347Y162598D01*
X229003D01*
X229331Y162270D01*
Y160958D01*
X229003Y160630D01*
X228347D01*
X228019Y160958D01*
X227363Y160630D02*
X226707D01*
X227035D01*
Y162598D01*
X227363Y162270D01*
X238255Y162171D02*
X238583Y162499D01*
X239239D01*
X239567Y162171D01*
Y160860D01*
X239239Y160531D01*
X238583D01*
X238255Y160860D01*
X236287Y160531D02*
X237599D01*
X236287Y161843D01*
Y162171D01*
X236615Y162499D01*
X237271D01*
X237599Y162171D01*
X196129Y131660D02*
X196457Y131988D01*
X197113D01*
X197441Y131660D01*
Y130348D01*
X197113Y130020D01*
X196457D01*
X196129Y130348D01*
X194161Y131988D02*
X195473D01*
Y131004D01*
X194817Y131332D01*
X194489D01*
X194161Y131004D01*
Y130348D01*
X194489Y130020D01*
X195145D01*
X195473Y130348D01*
X195145Y119553D02*
X195473Y119881D01*
X196129D01*
X196457Y119553D01*
Y118241D01*
X196129Y117913D01*
X195473D01*
X195145Y118241D01*
X193177Y119881D02*
X193833Y119553D01*
X194489Y118897D01*
Y118241D01*
X194161Y117913D01*
X193505D01*
X193177Y118241D01*
Y118569D01*
X193505Y118897D01*
X194489D01*
X195145Y110400D02*
X195473Y110728D01*
X196129D01*
X196457Y110400D01*
Y109088D01*
X196129Y108760D01*
X195473D01*
X195145Y109088D01*
X194489Y110728D02*
X193177D01*
Y110400D01*
X194489Y109088D01*
Y108760D01*
X163255Y125754D02*
X163583Y126082D01*
X164239D01*
X164567Y125754D01*
Y124442D01*
X164239Y124114D01*
X163583D01*
X163255Y124442D01*
X162599Y125754D02*
X162271Y126082D01*
X161615D01*
X161287Y125754D01*
Y125426D01*
X161615Y125098D01*
X161287Y124770D01*
Y124442D01*
X161615Y124114D01*
X162271D01*
X162599Y124442D01*
Y124770D01*
X162271Y125098D01*
X162599Y125426D01*
Y125754D01*
X162271Y125098D02*
X161615D01*
X149672Y63746D02*
X150000Y64074D01*
X150656D01*
X150984Y63746D01*
Y62434D01*
X150656Y62106D01*
X150000D01*
X149672Y62434D01*
X149016Y62106D02*
X148360D01*
X148688D01*
Y64074D01*
X149016Y63746D01*
X146065Y62106D02*
X147377D01*
X146065Y63418D01*
Y63746D01*
X146393Y64074D01*
X147048D01*
X147377Y63746D01*
X137664Y46916D02*
X137993Y47243D01*
X138648D01*
X138976Y46916D01*
Y45604D01*
X138648Y45276D01*
X137993D01*
X137664Y45604D01*
X137009Y45276D02*
X136353D01*
X136680D01*
Y47243D01*
X137009Y46916D01*
X135369D02*
X135041Y47243D01*
X134385D01*
X134057Y46916D01*
Y46587D01*
X134385Y46259D01*
X134713D01*
X134385D01*
X134057Y45932D01*
Y45604D01*
X134385Y45276D01*
X135041D01*
X135369Y45604D01*
X238353Y70439D02*
X238681Y70767D01*
X239337D01*
X239665Y70439D01*
Y69127D01*
X239337Y68799D01*
X238681D01*
X238353Y69127D01*
X237698Y68799D02*
X237041D01*
X237369D01*
Y70767D01*
X237698Y70439D01*
X235074Y68799D02*
Y70767D01*
X236058Y69783D01*
X234746D01*
X193701Y141535D02*
Y139567D01*
X192717D01*
X192389Y139895D01*
Y141207D01*
X192717Y141535D01*
X193701D01*
X191733Y139567D02*
X191077D01*
X191405D01*
Y141535D01*
X191733Y141207D01*
X234350Y126870D02*
Y128838D01*
X233366D01*
X233038Y128510D01*
Y127854D01*
X233366Y127526D01*
X234350D01*
X233694D02*
X233038Y126870D01*
X232382D02*
X231727D01*
X232055D01*
Y128838D01*
X232382Y128510D01*
X250886Y202165D02*
Y204133D01*
X249902D01*
X249574Y203805D01*
Y203149D01*
X249902Y202821D01*
X250886D01*
X250230D02*
X249574Y202165D01*
X247606D02*
X248918D01*
X247606Y203477D01*
Y203805D01*
X247934Y204133D01*
X248590D01*
X248918Y203805D01*
X239665Y202067D02*
Y204035D01*
X238681D01*
X238353Y203707D01*
Y203051D01*
X238681Y202723D01*
X239665D01*
X239009D02*
X238353Y202067D01*
X237698Y203707D02*
X237369Y204035D01*
X236714D01*
X236386Y203707D01*
Y203379D01*
X236714Y203051D01*
X237041D01*
X236714D01*
X236386Y202723D01*
Y202395D01*
X236714Y202067D01*
X237369D01*
X237698Y202395D01*
X234941Y174213D02*
Y176181D01*
X233957D01*
X233629Y175853D01*
Y175197D01*
X233957Y174869D01*
X234941D01*
X234285D02*
X233629Y174213D01*
X231989D02*
Y176181D01*
X232973Y175197D01*
X231661D01*
X197343Y196161D02*
Y198129D01*
X196359D01*
X196031Y197801D01*
Y197145D01*
X196359Y196817D01*
X197343D01*
X196687D02*
X196031Y196161D01*
X194063Y198129D02*
X195375D01*
Y197145D01*
X194719Y197473D01*
X194391D01*
X194063Y197145D01*
Y196489D01*
X194391Y196161D01*
X195047D01*
X195375Y196489D01*
X232185Y104429D02*
Y106397D01*
X231201D01*
X230873Y106069D01*
Y105413D01*
X231201Y105085D01*
X232185D01*
X231529D02*
X230873Y104429D01*
X228905Y106397D02*
X229561Y106069D01*
X230217Y105413D01*
Y104757D01*
X229889Y104429D01*
X229233D01*
X228905Y104757D01*
Y105085D01*
X229233Y105413D01*
X230217D01*
X175394Y28346D02*
Y30314D01*
X174410D01*
X174082Y29986D01*
Y29330D01*
X174410Y29002D01*
X175394D01*
X174738D02*
X174082Y28346D01*
X173426Y30314D02*
X172114D01*
Y29986D01*
X173426Y28674D01*
Y28346D01*
X245768Y124902D02*
Y126869D01*
X244784D01*
X244456Y126541D01*
Y125885D01*
X244784Y125557D01*
X245768D01*
X245112D02*
X244456Y124902D01*
X243800D02*
X243144D01*
X243472D01*
Y126869D01*
X243800Y126541D01*
X242160D02*
X241832Y126869D01*
X241176D01*
X240848Y126541D01*
Y125230D01*
X241176Y124902D01*
X241832D01*
X242160Y125230D01*
Y126541D01*
X157677Y124213D02*
Y126181D01*
X156693D01*
X156365Y125853D01*
Y125197D01*
X156693Y124869D01*
X157677D01*
X157021D02*
X156365Y124213D01*
X155709D02*
X155053D01*
X155381D01*
Y126181D01*
X155709Y125853D01*
X154069Y124213D02*
X153413D01*
X153741D01*
Y126181D01*
X154069Y125853D01*
X163681Y137303D02*
Y139271D01*
X162697D01*
X162369Y138943D01*
Y138287D01*
X162697Y137959D01*
X163681D01*
X163025D02*
X162369Y137303D01*
X161713D02*
X161057D01*
X161385D01*
Y139271D01*
X161713Y138943D01*
X158761Y137303D02*
X160073D01*
X158761Y138615D01*
Y138943D01*
X159089Y139271D01*
X159745D01*
X160073Y138943D01*
X234350Y94095D02*
Y96062D01*
X233366D01*
X233038Y95734D01*
Y95078D01*
X233366Y94750D01*
X234350D01*
X233694D02*
X233038Y94095D01*
X232382D02*
X231727D01*
X232055D01*
Y96062D01*
X232382Y95734D01*
X229431Y96062D02*
X230087Y95734D01*
X230743Y95078D01*
Y94423D01*
X230415Y94095D01*
X229759D01*
X229431Y94423D01*
Y94750D01*
X229759Y95078D01*
X230743D01*
X227165Y44882D02*
Y46850D01*
X226181D01*
X225853Y46522D01*
Y45866D01*
X226181Y45538D01*
X227165D01*
X226509D02*
X225853Y44882D01*
X225198D02*
X224541D01*
X224869D01*
Y46850D01*
X225198Y46522D01*
X223558Y46850D02*
X222246D01*
Y46522D01*
X223558Y45210D01*
Y44882D01*
X227067Y52264D02*
Y54232D01*
X226083D01*
X225755Y53904D01*
Y53248D01*
X226083Y52920D01*
X227067D01*
X226411D02*
X225755Y52264D01*
X225099D02*
X224443D01*
X224771D01*
Y54232D01*
X225099Y53904D01*
X223459D02*
X223131Y54232D01*
X222475D01*
X222147Y53904D01*
Y53576D01*
X222475Y53248D01*
X222147Y52920D01*
Y52592D01*
X222475Y52264D01*
X223131D01*
X223459Y52592D01*
Y52920D01*
X223131Y53248D01*
X223459Y53576D01*
Y53904D01*
X223131Y53248D02*
X222475D01*
X9768Y122399D02*
Y124367D01*
X8784D01*
X8456Y124039D01*
Y123383D01*
X8784Y123055D01*
X9768D01*
X9112D02*
X8456Y122399D01*
X7800D02*
X7144D01*
X7472D01*
Y124367D01*
X7800Y124039D01*
X6160Y122727D02*
X5832Y122399D01*
X5176D01*
X4848Y122727D01*
Y124039D01*
X5176Y124367D01*
X5832D01*
X6160Y124039D01*
Y123711D01*
X5832Y123383D01*
X4848D01*
X58968Y131199D02*
Y133167D01*
X57984D01*
X57656Y132839D01*
Y132183D01*
X57984Y131855D01*
X58968D01*
X58312D02*
X57656Y131199D01*
X55688D02*
X57000D01*
X55688Y132511D01*
Y132839D01*
X56016Y133167D01*
X56672D01*
X57000Y132839D01*
X55032D02*
X54704Y133167D01*
X54048D01*
X53720Y132839D01*
Y131527D01*
X54048Y131199D01*
X54704D01*
X55032Y131527D01*
Y132839D01*
X9768Y86899D02*
Y88867D01*
X8784D01*
X8456Y88539D01*
Y87883D01*
X8784Y87555D01*
X9768D01*
X9112D02*
X8456Y86899D01*
X6488D02*
X7800D01*
X6488Y88211D01*
Y88539D01*
X6816Y88867D01*
X7472D01*
X7800Y88539D01*
X5832D02*
X5504Y88867D01*
X4848D01*
X4520Y88539D01*
Y88211D01*
X4848Y87883D01*
X5176D01*
X4848D01*
X4520Y87555D01*
Y87227D01*
X4848Y86899D01*
X5504D01*
X5832Y87227D01*
X138668Y110599D02*
Y112567D01*
X137684D01*
X137356Y112239D01*
Y111583D01*
X137684Y111255D01*
X138668D01*
X138012D02*
X137356Y110599D01*
X135388D02*
X136700D01*
X135388Y111911D01*
Y112239D01*
X135716Y112567D01*
X136372D01*
X136700Y112239D01*
X133420Y112567D02*
X134732D01*
Y111583D01*
X134076Y111911D01*
X133748D01*
X133420Y111583D01*
Y110927D01*
X133748Y110599D01*
X134404D01*
X134732Y110927D01*
X85236Y110827D02*
Y112795D01*
X84252D01*
X83924Y112467D01*
Y111811D01*
X84252Y111483D01*
X85236D01*
X84580D02*
X83924Y110827D01*
X81956D02*
X83268D01*
X81956Y112139D01*
Y112467D01*
X82284Y112795D01*
X82940D01*
X83268Y112467D01*
X79989Y112795D02*
X80645Y112467D01*
X81300Y111811D01*
Y111155D01*
X80972Y110827D01*
X80317D01*
X79989Y111155D01*
Y111483D01*
X80317Y111811D01*
X81300D01*
X76772Y35531D02*
Y37499D01*
X75788D01*
X75460Y37171D01*
Y36515D01*
X75788Y36187D01*
X76772D01*
X76116D02*
X75460Y35531D01*
X73492D02*
X74804D01*
X73492Y36843D01*
Y37171D01*
X73820Y37499D01*
X74476D01*
X74804Y37171D01*
X72836Y37499D02*
X71524D01*
Y37171D01*
X72836Y35860D01*
Y35531D01*
X77658Y18898D02*
Y20865D01*
X76674D01*
X76346Y20538D01*
Y19882D01*
X76674Y19554D01*
X77658D01*
X77002D02*
X76346Y18898D01*
X74378D02*
X75690D01*
X74378Y20210D01*
Y20538D01*
X74706Y20865D01*
X75362D01*
X75690Y20538D01*
X73722D02*
X73394Y20865D01*
X72738D01*
X72410Y20538D01*
Y20210D01*
X72738Y19882D01*
X72410Y19554D01*
Y19226D01*
X72738Y18898D01*
X73394D01*
X73722Y19226D01*
Y19554D01*
X73394Y19882D01*
X73722Y20210D01*
Y20538D01*
X73394Y19882D02*
X72738D01*
X138668Y74099D02*
Y76067D01*
X137684D01*
X137356Y75739D01*
Y75083D01*
X137684Y74755D01*
X138668D01*
X138012D02*
X137356Y74099D01*
X135388D02*
X136700D01*
X135388Y75411D01*
Y75739D01*
X135716Y76067D01*
X136372D01*
X136700Y75739D01*
X134732Y74427D02*
X134404Y74099D01*
X133748D01*
X133420Y74427D01*
Y75739D01*
X133748Y76067D01*
X134404D01*
X134732Y75739D01*
Y75411D01*
X134404Y75083D01*
X133420D01*
X165059Y64271D02*
X163747Y62303D01*
Y64271D02*
X165059Y62303D01*
X163091D02*
X162435D01*
X162763D01*
Y64271D01*
X163091Y63943D01*
X61319Y168700D02*
X60007D01*
X60663D01*
Y166732D01*
X59351D02*
Y168700D01*
X58367D01*
X58039Y168372D01*
Y167716D01*
X58367Y167388D01*
X59351D01*
X58695D02*
X58039Y166732D01*
X57383D02*
X56727D01*
X57055D01*
Y168700D01*
X57383Y168372D01*
X139665Y168602D02*
X138353D01*
X139009D01*
Y166634D01*
X137698D02*
Y168602D01*
X136714D01*
X136386Y168274D01*
Y167618D01*
X136714Y167290D01*
X137698D01*
X137041D02*
X136386Y166634D01*
X135730Y168274D02*
X135402Y168602D01*
X134746D01*
X134418Y168274D01*
Y167946D01*
X134746Y167618D01*
X135074D01*
X134746D01*
X134418Y167290D01*
Y166962D01*
X134746Y166634D01*
X135402D01*
X135730Y166962D01*
D75*
X201132Y144931D02*
D03*
D76*
X196506Y144931D02*
D03*
M02*
